<svg width="257" height="49" viewBox="0 0 257 49" fill="none" xmlns="http://www.w3.org/2000/svg">
<path d="M124.226 39.4387H15.7462C11.57 39.4387 7.56493 37.3737 4.61195 33.698C1.65897 30.0223 0 25.0369 0 19.8387L0 19.6C0 14.4018 1.65897 9.41642 4.61195 5.74071C7.56493 2.06499 11.57 0 15.7462 0L241.254 0C245.43 0 249.435 2.06499 252.388 5.74071C255.341 9.41642 257 14.4018 257 19.6V19.8387C257 25.0369 255.341 30.0223 252.388 33.698C249.435 37.3737 245.43 39.4387 241.254 39.4387H132.774L128.5 49L124.226 39.4387Z" fill="white"/>
</svg>
