<svg width="14" height="203" viewBox="0 0 14 203" fill="none" xmlns="http://www.w3.org/2000/svg">
<path d="M12.8809 0.560303H1.12008C0.810778 0.560303 0.56004 0.811103 0.56004 1.12048V12.8842C0.56004 13.1936 0.810778 13.4444 1.12008 13.4444H12.8809C13.1902 13.4444 13.4409 13.1936 13.4409 12.8842V1.12048C13.4409 0.811103 13.1902 0.560303 12.8809 0.560303Z" stroke="white"/>
<path d="M4.15661 6.66887L6.39677 8.90958L10.2745 5.03101" stroke="white" stroke-linecap="round" stroke-linejoin="round"/>
<path d="M12.8809 94.5647H1.12008C0.810778 94.5647 0.56004 94.8155 0.56004 95.1249V106.889C0.56004 107.198 0.810778 107.449 1.12008 107.449H12.8809C13.1902 107.449 13.4409 107.198 13.4409 106.889V95.1249C13.4409 94.8155 13.1902 94.5647 12.8809 94.5647Z" stroke="white"/>
<path d="M4.15661 100.673L6.39677 102.914L10.2745 99.0354" stroke="white" stroke-linecap="round" stroke-linejoin="round"/>
<path d="M12.8809 188.569H1.12008C0.810778 188.569 0.56004 188.82 0.56004 189.129V200.893C0.56004 201.202 0.810778 201.453 1.12008 201.453H12.8809C13.1902 201.453 13.4409 201.202 13.4409 200.893V189.129C13.4409 188.82 13.1902 188.569 12.8809 188.569Z" stroke="white"/>
<path d="M4.15661 194.678L6.39677 196.918L10.2745 193.04" stroke="white" stroke-linecap="round" stroke-linejoin="round"/>
</svg>
