<svg width="260" height="95" viewBox="0 0 260 95" fill="none" xmlns="http://www.w3.org/2000/svg">
<mask id="mask0_113_370" style="mask-type:luminance" maskUnits="userSpaceOnUse" x="212" y="0" width="48" height="51">
<path d="M259.085 0H212V50.8446H259.085V0Z" fill="white"/>
</mask>
<g mask="url(#mask0_113_370)">
<path d="M257.299 12.4523H246.637C246.918 12.2361 247.187 12.0052 247.444 11.7606C250.325 8.87799 250.498 4.43881 247.848 1.84201C247.249 1.24829 246.538 0.779683 245.756 0.463496C244.974 0.147309 244.138 -0.0101428 243.294 0.000311215C241.281 0.0157739 239.355 0.824581 237.934 2.25128C236.986 3.29835 236.172 4.46044 235.513 5.71027C234.904 4.43076 234.086 3.26174 233.093 2.25128C231.672 0.824747 229.747 0.015953 227.734 0.000311215C226.89 -0.0150899 226.053 0.140108 225.271 0.456588C224.489 0.773068 223.779 1.24431 223.184 1.84201C220.592 4.43404 220.763 8.93597 223.588 11.7572C223.844 12.0018 224.113 12.2327 224.394 12.4488H213.729C213.27 12.4503 212.831 12.6334 212.507 12.9581C212.183 13.2828 212.001 13.7227 212 14.1814V26.6907C212.001 27.1488 212.184 27.5878 212.508 27.9118C212.832 28.2357 213.271 28.4184 213.729 28.4198H214.017V49.1123C214.018 49.5711 214.2 50.0109 214.524 50.3356C214.848 50.6603 215.287 50.8435 215.746 50.8449H255.34C255.798 50.8436 256.238 50.6606 256.562 50.3359C256.886 50.0112 257.068 49.5712 257.069 49.1123V28.3625H257.357C257.815 28.3611 258.254 28.1784 258.578 27.8545C258.902 27.5305 259.085 27.0915 259.086 26.6334V14.1814C259.052 13.724 258.852 13.295 258.522 12.9762C258.193 12.6573 257.758 12.4708 257.299 12.4523ZM233.785 47.3286H217.419V28.3625H233.785V47.3286ZM233.785 24.9615H215.4V15.9106H233.785V24.9615ZM233.785 11.8179C233.774 11.9852 233.714 12.1455 233.612 12.279C233.366 12.4137 233.085 12.4739 232.805 12.4523C230.731 12.4523 227.388 10.7231 225.947 9.3391C224.447 7.83845 224.218 5.53428 225.543 4.26624C226.117 3.71544 226.881 3.40587 227.676 3.40132C228.784 3.42503 229.839 3.87993 230.617 4.66936C232.274 6.51595 233.373 8.79459 233.787 11.2408L233.785 11.8179ZM237.186 11.2415C237.599 8.79503 238.698 6.51614 240.355 4.66936C241.133 3.88041 242.187 3.42556 243.294 3.40132C243.691 3.38484 244.086 3.4535 244.454 3.60269C244.822 3.75188 245.154 3.97814 245.427 4.26624C246.695 5.53428 246.522 7.8405 245.023 9.3391C243.582 10.7804 240.239 12.4523 238.165 12.4523C237.885 12.4642 237.608 12.4043 237.358 12.2783C237.243 12.153 237.18 11.9876 237.185 11.8172L237.186 11.2415ZM253.611 47.3252H237.244V28.3625H253.611V47.3252ZM255.57 24.9581H237.243V15.9106H255.628V24.9615L255.57 24.9581Z" fill="#C5385F"/>
</g>
<mask id="mask1_113_370" style="mask-type:luminance" maskUnits="userSpaceOnUse" x="0" y="10" width="39" height="42">
<path d="M38.2099 10.9141H0V51.1586H38.2099V10.9141Z" fill="white"/>
</mask>
<g mask="url(#mask1_113_370)">
<path d="M19.0126 10.9207C18.9498 10.9296 18.8888 10.9482 18.8319 10.9759L0.4003 19.872C0.391625 19.8761 0.3832 19.8806 0.375069 19.8857L0.35802 19.8925C0.342335 19.9027 0.328696 19.915 0.313012 19.9252C0.263815 19.9546 0.218066 19.9894 0.176623 20.0289C0.164348 20.0446 0.154119 20.0616 0.14389 20.0767C0.10545 20.1233 0.0735583 20.1749 0.0490999 20.2301C0.0183347 20.3039 0.00168001 20.3828 0 20.4627L0 41.6136C0.000100529 41.7324 0.0337684 41.8487 0.0971174 41.9491C0.160466 42.0495 0.250914 42.13 0.35802 42.1812L18.8305 51.0895C18.8421 51.0929 18.8544 51.0984 18.8646 51.1018C18.9062 51.119 18.9494 51.1323 18.9935 51.1414C19.0066 51.142 19.0198 51.142 19.033 51.1414C19.0568 51.1467 19.081 51.1501 19.1053 51.1516C19.2191 51.1514 19.3308 51.1205 19.4286 51.0623L37.8526 42.1818C37.9595 42.1307 38.0498 42.0505 38.1131 41.9503C38.1765 41.8502 38.2103 41.7342 38.2106 41.6157V20.4627C38.2106 20.3345 38.1714 20.2093 38.0983 20.104C38.0252 19.9986 37.9216 19.9182 37.8015 19.8734L19.3788 10.9759C19.2646 10.921 19.1365 10.9017 19.0112 10.9207H19.0126ZM19.1053 12.2433L36.1355 20.458L30.6083 23.123L13.5802 14.9076L19.1053 12.2433ZM12.1331 15.6061L29.1646 23.8194L26.0809 25.3057L9.05279 17.0931L12.1331 15.6061ZM7.60503 17.7889L24.6331 26.0022L19.1094 28.6672L2.07652 20.4627L7.60503 17.7889ZM1.25818 21.4593L18.4806 29.7674V49.5282L1.25818 41.2201V21.4593ZM36.9511 21.4593V41.2201L19.7354 49.5255V29.7654L25.4528 27.0069V32.5552C25.4524 32.5919 25.4547 32.6286 25.4597 32.665C25.4697 32.7244 25.4876 32.7822 25.5128 32.8369C25.5442 32.8997 25.5854 32.957 25.6349 33.0068L25.6417 33.0136C25.6612 33.0327 25.6819 33.0505 25.7038 33.0668C25.7098 33.0711 25.7162 33.075 25.7229 33.0784C25.7444 33.0935 25.7672 33.1068 25.7911 33.1179L25.8068 33.1282C25.892 33.1709 25.9858 33.1937 26.0811 33.1949C26.1765 33.196 26.2708 33.1756 26.3571 33.135L30.8763 30.9522L30.8866 30.9475C30.8932 30.9452 30.8996 30.9422 30.9056 30.9386C30.9263 30.9271 30.9463 30.9146 30.9657 30.9011C30.9745 30.8953 30.9829 30.8889 30.9909 30.882C30.9958 30.8791 31.0004 30.8757 31.0045 30.8718L31.0148 30.8629L31.0202 30.8595C31.0256 30.853 31.0318 30.8473 31.0386 30.8424L31.042 30.8376C31.0486 30.8329 31.0543 30.8271 31.0591 30.8206C31.0591 30.8206 31.0645 30.8172 31.0659 30.8138C31.0715 30.8096 31.0767 30.8051 31.0816 30.8001C31.0918 30.7879 31.102 30.7763 31.1109 30.764C31.1137 30.7594 31.1172 30.7553 31.1211 30.7517C31.1246 30.7469 31.13 30.7401 31.1327 30.7346C31.1346 30.7316 31.1369 30.7288 31.1396 30.7265C31.143 30.7196 31.1477 30.7121 31.1511 30.706C31.1507 30.7052 31.1505 30.7042 31.1505 30.7033C31.1505 30.7023 31.1507 30.7014 31.1511 30.7005C31.2175 30.5885 31.2471 30.4585 31.2357 30.3288V24.2178L36.9511 21.4593ZM29.9775 24.8235V29.9864L26.7097 31.5634V26.3971L29.9775 24.8235ZM3.63203 34.446C3.52141 34.4538 3.4148 34.4906 3.32296 34.5527C3.23112 34.6149 3.15731 34.7002 3.10898 34.8C3.03666 34.95 3.02677 35.1226 3.08149 35.2799C3.13621 35.4372 3.25106 35.5663 3.40085 35.639L7.8703 37.7918C8.02035 37.8641 8.19295 37.8739 8.35021 37.819C8.50746 37.7641 8.63653 37.6491 8.70909 37.4991C8.7816 37.3492 8.79158 37.1765 8.73685 37.0192C8.68211 36.8619 8.56714 36.7327 8.41722 36.6601L3.94845 34.5074C3.85034 34.4592 3.74099 34.4384 3.63203 34.4474V34.446ZM3.71454 37.8382C3.63282 37.8332 3.55095 37.8448 3.47382 37.8723C3.35598 37.9126 3.25281 37.9871 3.17744 38.0863C3.10208 38.1854 3.05792 38.3048 3.05061 38.4292C3.0433 38.5535 3.07315 38.6772 3.13637 38.7846C3.1996 38.8919 3.29332 38.978 3.40562 39.0319L7.87508 41.186C8.02474 41.2543 8.19523 41.2613 8.34997 41.2054C8.50471 41.1494 8.63137 41.0351 8.70277 40.8868C8.77416 40.7385 8.78461 40.5682 8.73186 40.4123C8.67912 40.2564 8.56738 40.1274 8.42063 40.053L3.94845 37.9002C3.87453 37.8655 3.79469 37.8452 3.71318 37.8402L3.71454 37.8382Z" fill="#BCBCBC"/>
</g>
<mask id="mask2_113_370" style="mask-type:luminance" maskUnits="userSpaceOnUse" x="87" y="10" width="39" height="42">
<path d="M125.499 10.9141H87.2887V51.1586H125.499V10.9141Z" fill="white"/>
</mask>
<g mask="url(#mask2_113_370)">
<path d="M106.301 10.9207C106.238 10.9296 106.178 10.9482 106.121 10.9759L87.689 19.872C87.6803 19.8761 87.6719 19.8806 87.6637 19.8857L87.6467 19.8925C87.631 19.9027 87.6174 19.915 87.6017 19.9252C87.5525 19.9546 87.5067 19.9894 87.4653 20.0289C87.453 20.0446 87.4428 20.0616 87.4326 20.0767C87.3941 20.1233 87.3622 20.1749 87.3378 20.2301C87.307 20.3039 87.2903 20.3828 87.2887 20.4627V41.6136C87.2888 41.7324 87.3224 41.8487 87.3858 41.9491C87.4491 42.0495 87.5396 42.13 87.6467 42.1812L106.119 51.0895C106.131 51.0929 106.143 51.0984 106.153 51.1018C106.195 51.119 106.238 51.1323 106.282 51.1414C106.295 51.142 106.309 51.142 106.322 51.1414C106.345 51.1467 106.37 51.1501 106.394 51.1516C106.508 51.1514 106.619 51.1205 106.717 51.0623L125.141 42.1818C125.248 42.1307 125.338 42.0505 125.402 41.9503C125.465 41.8502 125.499 41.7342 125.499 41.6157V20.4627C125.499 20.3345 125.46 20.2093 125.387 20.104C125.314 19.9986 125.21 19.9182 125.09 19.8734L106.667 10.9759C106.553 10.921 106.425 10.9017 106.3 10.9207H106.301ZM106.394 12.2433L123.424 20.458L117.897 23.123L100.869 14.9076L106.394 12.2433ZM99.4218 15.6061L116.453 23.8194L113.37 25.3057L96.3415 17.0931L99.4218 15.6061ZM94.8937 17.7889L111.922 26.0022L106.398 28.6672L89.3652 20.4627L94.8937 17.7889ZM88.5469 21.4593L105.769 29.7674V49.5282L88.5469 41.2201V21.4593ZM124.24 21.4593V41.2201L107.024 49.5255V29.7654L112.742 27.0069V32.5552C112.741 32.5919 112.743 32.6286 112.748 32.665C112.758 32.7244 112.776 32.7822 112.802 32.8369C112.833 32.8997 112.874 32.957 112.924 33.0068L112.93 33.0136C112.95 33.0327 112.971 33.0505 112.992 33.0668C112.999 33.0711 113.005 33.075 113.012 33.0784C113.033 33.0935 113.056 33.1068 113.08 33.1179L113.095 33.1282C113.181 33.1709 113.274 33.1937 113.37 33.1949C113.465 33.196 113.559 33.1756 113.646 33.135L118.165 30.9522L118.175 30.9475C118.182 30.9452 118.188 30.9422 118.194 30.9386C118.215 30.9271 118.235 30.9146 118.254 30.9011C118.263 30.8953 118.272 30.8889 118.28 30.882C118.284 30.8791 118.289 30.8757 118.293 30.8718L118.303 30.8629L118.309 30.8595C118.314 30.853 118.32 30.8473 118.327 30.8424L118.331 30.8376C118.337 30.8329 118.343 30.8271 118.348 30.8206C118.348 30.8206 118.353 30.8172 118.355 30.8138C118.36 30.8096 118.365 30.8051 118.37 30.8001C118.38 30.7879 118.391 30.7763 118.4 30.764C118.402 30.7594 118.406 30.7553 118.41 30.7517C118.413 30.7469 118.419 30.7401 118.421 30.7346C118.423 30.7316 118.426 30.7288 118.428 30.7265C118.432 30.7196 118.436 30.7121 118.44 30.706C118.439 30.7052 118.439 30.7042 118.439 30.7033C118.439 30.7023 118.439 30.7014 118.44 30.7005C118.506 30.5885 118.536 30.4585 118.524 30.3288V24.2178L124.24 21.4593ZM117.266 24.8235V29.9864L113.998 31.5634V26.3971L117.266 24.8235ZM90.9207 34.446C90.8101 34.4538 90.7035 34.4906 90.6116 34.5527C90.5198 34.6149 90.446 34.7002 90.3976 34.8C90.3253 34.95 90.3154 35.1226 90.3702 35.2799C90.4249 35.4372 90.5397 35.5663 90.6895 35.639L95.159 37.7918C95.309 37.8641 95.4816 37.8739 95.6389 37.819C95.7961 37.7641 95.9252 37.6491 95.9978 37.4991C96.0703 37.3492 96.0802 37.1765 96.0255 37.0192C95.9708 36.8619 95.8558 36.7327 95.7059 36.6601L91.2371 34.5074C91.139 34.4592 91.0297 34.4384 90.9207 34.4474V34.446ZM91.0032 37.8382C90.9215 37.8332 90.8396 37.8448 90.7625 37.8723C90.6446 37.9126 90.5415 37.9871 90.4661 38.0863C90.3907 38.1854 90.3466 38.3048 90.3393 38.4292C90.332 38.5535 90.3618 38.6772 90.425 38.7846C90.4883 38.8919 90.582 38.978 90.6943 39.0319L95.1637 41.186C95.3134 41.2543 95.4839 41.2613 95.6386 41.2054C95.7934 41.1494 95.92 41.0351 95.9914 40.8868C96.0628 40.7385 96.0733 40.5682 96.0205 40.4123C95.9678 40.2564 95.856 40.1274 95.7093 40.053L91.2371 37.9002C91.1632 37.8655 91.0834 37.8452 91.0018 37.8402L91.0032 37.8382Z" fill="#BCBCBC"/>
</g>
<mask id="mask3_113_370" style="mask-type:luminance" maskUnits="userSpaceOnUse" x="43" y="10" width="39" height="42">
<path d="M81.8543 10.9141H43.6443V51.1586H81.8543V10.9141Z" fill="white"/>
</mask>
<g mask="url(#mask3_113_370)">
<path d="M62.6569 10.9207C62.5942 10.9296 62.5332 10.9482 62.4762 10.9759L44.0446 19.872C44.036 19.8761 44.0275 19.8806 44.0194 19.8857L44.0024 19.8925C43.9867 19.9027 43.973 19.915 43.9574 19.9252C43.9082 19.9546 43.8624 19.9894 43.821 20.0289C43.8087 20.0446 43.7985 20.0616 43.7882 20.0767C43.7498 20.1233 43.7179 20.1749 43.6934 20.2301C43.6627 20.3039 43.646 20.3828 43.6443 20.4627V41.6136C43.6444 41.7324 43.6781 41.8487 43.7415 41.9491C43.8048 42.0495 43.8953 42.13 44.0024 42.1812L62.4748 51.0895C62.4864 51.0929 62.4987 51.0984 62.5089 51.1018C62.5505 51.119 62.5937 51.1323 62.6378 51.1414C62.651 51.142 62.6642 51.142 62.6774 51.1414C62.7012 51.1467 62.7253 51.1501 62.7497 51.1516C62.8635 51.1514 62.9751 51.1205 63.0729 51.0623L81.4969 42.1818C81.6038 42.1307 81.6941 42.0505 81.7575 41.9503C81.8208 41.8502 81.8546 41.7342 81.855 41.6157V20.4627C81.855 20.3345 81.8158 20.2093 81.7426 20.104C81.6695 19.9986 81.5659 19.9182 81.4458 19.8734L63.0231 10.9759C62.9089 10.921 62.7808 10.9017 62.6555 10.9207H62.6569ZM62.7497 12.2433L79.7798 20.458L74.2527 23.123L57.2245 14.9076L62.7497 12.2433ZM55.7775 15.6061L72.809 23.8194L69.7252 25.3057L52.6971 17.0931L55.7775 15.6061ZM51.2494 17.7889L68.2775 26.0022L62.7537 28.6672L45.7209 20.4627L51.2494 17.7889ZM44.9025 21.4593L62.125 29.7674V49.5282L44.9025 41.2201V21.4593ZM80.5954 21.4593V41.2201L63.3798 49.5255V29.7654L69.0972 27.0069V32.5552C69.0968 32.5919 69.099 32.6286 69.104 32.665C69.1141 32.7244 69.1319 32.7822 69.1572 32.8369C69.1886 32.8997 69.2298 32.957 69.2793 33.0068L69.2861 33.0136C69.3055 33.0327 69.3262 33.0505 69.3481 33.0668C69.3542 33.0711 69.3606 33.075 69.3672 33.0784C69.3888 33.0935 69.4116 33.1068 69.4354 33.1179L69.4511 33.1282C69.5363 33.1709 69.6302 33.1937 69.7255 33.1949C69.8208 33.196 69.9152 33.1756 70.0014 33.135L74.5207 30.9522L74.5309 30.9475C74.5375 30.9452 74.5439 30.9422 74.55 30.9386C74.5706 30.9271 74.5906 30.9146 74.61 30.9011C74.6188 30.8953 74.6273 30.8889 74.6352 30.882C74.6402 30.8791 74.6447 30.8757 74.6489 30.8718L74.6591 30.8629L74.6646 30.8595C74.6699 30.853 74.6761 30.8473 74.683 30.8424L74.6864 30.8376C74.6929 30.8329 74.6986 30.8271 74.7034 30.8206C74.7034 30.8206 74.7089 30.8172 74.7102 30.8138C74.7158 30.8096 74.721 30.8051 74.7259 30.8001C74.7362 30.7879 74.7464 30.7763 74.7553 30.764C74.7581 30.7594 74.7615 30.7553 74.7655 30.7517C74.7689 30.7469 74.7743 30.7401 74.7771 30.7346C74.7789 30.7316 74.7812 30.7288 74.7839 30.7265C74.7873 30.7196 74.7921 30.7121 74.7955 30.706C74.7951 30.7052 74.7948 30.7042 74.7948 30.7033C74.7948 30.7023 74.7951 30.7014 74.7955 30.7005C74.8619 30.5885 74.8915 30.4585 74.8801 30.3288V24.2178L80.5954 21.4593ZM73.6219 24.8235V29.9864L70.354 31.5634V26.3971L73.6219 24.8235ZM47.2764 34.446C47.1658 34.4538 47.0591 34.4906 46.9673 34.5527C46.8755 34.6149 46.8016 34.7002 46.7533 34.8C46.681 34.95 46.6711 35.1226 46.7258 35.2799C46.7805 35.4372 46.8954 35.5663 47.0452 35.639L51.5146 37.7918C51.6647 37.8641 51.8373 37.8739 51.9945 37.819C52.1518 37.7641 52.2809 37.6491 52.3534 37.4991C52.4259 37.3492 52.4359 37.1765 52.3812 37.0192C52.3265 36.8619 52.2115 36.7327 52.0616 36.6601L47.5928 34.5074C47.4947 34.4592 47.3853 34.4384 47.2764 34.4474V34.446ZM47.3589 37.8382C47.2772 37.8332 47.1953 37.8448 47.1182 37.8723C47.0003 37.9126 46.8971 37.9871 46.8218 38.0863C46.7464 38.1854 46.7023 38.3048 46.695 38.4292C46.6876 38.5535 46.7175 38.6772 46.7807 38.7846C46.8439 38.8919 46.9377 38.978 47.05 39.0319L51.5194 41.186C51.6691 41.2543 51.8396 41.2613 51.9943 41.2054C52.1491 41.1494 52.2757 41.0351 52.3471 40.8868C52.4185 40.7385 52.429 40.5682 52.3762 40.4123C52.3235 40.2564 52.2117 40.1274 52.065 40.053L47.5928 37.9002C47.5189 37.8655 47.439 37.8452 47.3575 37.8402L47.3589 37.8382Z" fill="#BCBCBC"/>
</g>
<mask id="mask4_113_370" style="mask-type:luminance" maskUnits="userSpaceOnUse" x="130" y="10" width="40" height="42">
<path d="M169.143 10.9141H130.933V51.1586H169.143V10.9141Z" fill="white"/>
</mask>
<g mask="url(#mask4_113_370)">
<path d="M149.946 10.9207C149.883 10.9296 149.822 10.9482 149.765 10.9759L131.333 19.872C131.325 19.8761 131.316 19.8806 131.308 19.8857L131.291 19.8925C131.275 19.9027 131.262 19.915 131.246 19.9252C131.197 19.9546 131.151 19.9894 131.11 20.0289C131.097 20.0446 131.087 20.0616 131.077 20.0767C131.038 20.1233 131.007 20.1749 130.982 20.2301C130.951 20.3039 130.935 20.3828 130.933 20.4627V41.6136C130.933 41.7324 130.967 41.8487 131.03 41.9491C131.093 42.0495 131.184 42.13 131.291 42.1812L149.764 51.0895C149.775 51.0929 149.787 51.0984 149.798 51.1018C149.839 51.119 149.882 51.1323 149.926 51.1414C149.94 51.142 149.953 51.142 149.966 51.1414C149.99 51.1467 150.014 51.1501 150.038 51.1516C150.152 51.1514 150.264 51.1205 150.362 51.0623L168.786 42.1818C168.893 42.1307 168.983 42.0505 169.046 41.9503C169.109 41.8502 169.143 41.7342 169.144 41.6157V20.4627C169.144 20.3345 169.104 20.2093 169.031 20.104C168.958 19.9986 168.855 19.9182 168.734 19.8734L150.312 10.9759C150.198 10.921 150.07 10.9017 149.944 10.9207H149.946ZM150.038 12.2433L167.068 20.458L161.541 23.123L144.513 14.9076L150.038 12.2433ZM143.066 15.6061L160.098 23.8194L157.014 25.3057L139.986 17.0931L143.066 15.6061ZM138.538 17.7889L155.566 26.0022L150.042 28.6672L133.01 20.4627L138.538 17.7889ZM132.191 21.4593L149.414 29.7674V49.5282L132.191 41.2201V21.4593ZM167.884 21.4593V41.2201L150.668 49.5255V29.7654L156.386 27.0069V32.5552C156.385 32.5919 156.388 32.6286 156.393 32.665C156.403 32.7244 156.421 32.7822 156.446 32.8369C156.477 32.8997 156.518 32.957 156.568 33.0068L156.575 33.0136C156.594 33.0327 156.615 33.0505 156.637 33.0668C156.643 33.0711 156.649 33.075 156.656 33.0784C156.677 33.0935 156.7 33.1068 156.724 33.1179L156.74 33.1282C156.825 33.1709 156.919 33.1937 157.014 33.1949C157.109 33.196 157.204 33.1756 157.29 33.135L161.809 30.9522L161.82 30.9475C161.826 30.9452 161.833 30.9422 161.839 30.9386C161.859 30.9271 161.879 30.9146 161.899 30.9011C161.907 30.8953 161.916 30.8889 161.924 30.882C161.929 30.8791 161.933 30.8757 161.938 30.8718L161.948 30.8629L161.953 30.8595C161.959 30.853 161.965 30.8473 161.972 30.8424L161.975 30.8376C161.982 30.8329 161.987 30.8271 161.992 30.8206C161.992 30.8206 161.998 30.8172 161.999 30.8138C162.004 30.8096 162.01 30.8051 162.015 30.8001C162.025 30.7879 162.035 30.7763 162.044 30.764C162.047 30.7594 162.05 30.7553 162.054 30.7517C162.058 30.7469 162.063 30.7401 162.066 30.7346C162.068 30.7316 162.07 30.7288 162.073 30.7265C162.076 30.7196 162.081 30.7121 162.084 30.706C162.084 30.7052 162.084 30.7042 162.084 30.7033C162.084 30.7023 162.084 30.7014 162.084 30.7005C162.151 30.5885 162.18 30.4585 162.169 30.3288V24.2178L167.884 21.4593ZM160.911 24.8235V29.9864L157.643 31.5634V26.3971L160.911 24.8235ZM134.565 34.446C134.454 34.4538 134.348 34.4906 134.256 34.5527C134.164 34.6149 134.09 34.7002 134.042 34.8C133.97 34.95 133.96 35.1226 134.015 35.2799C134.069 35.4372 134.184 35.5663 134.334 35.639L138.803 37.7918C138.953 37.8641 139.126 37.8739 139.283 37.819C139.44 37.7641 139.57 37.6491 139.642 37.4991C139.715 37.3492 139.725 37.1765 139.67 37.0192C139.615 36.8619 139.5 36.7327 139.35 36.6601L134.881 34.5074C134.783 34.4592 134.674 34.4384 134.565 34.4474V34.446ZM134.648 37.8382C134.566 37.8332 134.484 37.8448 134.407 37.8723C134.289 37.9126 134.186 37.9871 134.11 38.0863C134.035 38.1854 133.991 38.3048 133.984 38.4292C133.976 38.5535 134.006 38.6772 134.069 38.7846C134.133 38.8919 134.226 38.978 134.339 39.0319L138.808 41.186C138.958 41.2543 139.128 41.2613 139.283 41.2054C139.438 41.1494 139.564 41.0351 139.636 40.8868C139.707 40.7385 139.718 40.5682 139.665 40.4123C139.612 40.2564 139.5 40.1274 139.354 40.053L134.881 37.9002C134.808 37.8655 134.728 37.8452 134.646 37.8402L134.648 37.8382Z" fill="#BCBCBC"/>
</g>
<path d="M185.614 31.0366H197.207" stroke="#C5385F" stroke-width="3" stroke-linecap="round"/>
<path d="M191.41 36.8347V25.2388" stroke="#C5385F" stroke-width="3" stroke-linecap="round"/>
<path d="M228.618 64H234.5C243.06 64 250 70.9396 250 79.5C250 88.0604 243.06 95 234.5 95H26.5C17.9396 95 11 88.0604 11 79.5C11 70.9396 17.9396 64 26.5 64H219.382L224 56L228.618 64Z" fill="#C5385F"/>
<path d="M44.1528 85V82.858H40.3168V81.71L44.1668 75.158H45.5668V81.542H46.9388V82.858H45.5668V85H44.1528ZM41.8148 81.542H44.1528V77.538L41.8148 81.542ZM51.7707 85.616V73.842H59.9468V85.616H51.7707ZM49.1387 86.008V78.826C49.0174 79.0313 48.8914 79.2227 48.7607 79.4C48.6394 79.568 48.5181 79.7267 48.3967 79.876C48.3127 79.764 48.1961 79.6427 48.0467 79.512C47.8974 79.372 47.7387 79.2367 47.5707 79.106C47.4121 78.9753 47.2767 78.8773 47.1647 78.812C47.4447 78.476 47.7294 78.0747 48.0187 77.608C48.3081 77.132 48.5787 76.6327 48.8307 76.11C49.0827 75.5873 49.3021 75.074 49.4887 74.57C49.6847 74.066 49.8294 73.6133 49.9227 73.212L51.4907 73.59C51.4067 73.926 51.2947 74.2853 51.1547 74.668C51.0241 75.0507 50.8701 75.4473 50.6927 75.858V86.008H49.1387ZM53.3107 84.216H58.4067V78.35H56.5588V79.442H57.8048V83.334H53.9127V79.442H55.1587V78.35H53.3107V84.216ZM53.3107 77.076H55.1587V75.732H56.5588V77.076H58.4067V75.242H53.3107V77.076ZM55.2987 82.088H56.4328V80.688H55.2987V82.088ZM71.1047 86.036C71.0861 85.84 71.0534 85.602 71.0067 85.322C70.9694 85.042 70.9134 84.8227 70.8388 84.664H71.6788C71.8561 84.664 71.9681 84.6453 72.0147 84.608C72.0614 84.5613 72.0847 84.454 72.0847 84.286V83.712H68.5147V86.008H67.0587V83.712H66.2327V82.592H67.0587V79.26H69.5928V78.728H66.3587V77.58H68.2487V76.964H66.9747V75.914H68.2487V75.354H66.4707V74.276H68.2487V73.268H69.6628V74.276H70.9227V73.268H72.3367V74.276H74.2267V75.354H72.3367V75.914H73.7928V76.964H72.3367V77.58H74.3808V78.728H71.0067V79.26H73.5408V82.592H74.5487V83.712H73.5408V84.734C73.5408 85.1913 73.4194 85.5227 73.1767 85.728C72.9434 85.9333 72.5654 86.036 72.0428 86.036H71.1047ZM62.1447 82.718V73.772H66.0227V82.718H62.1447ZM62.6767 86.036C62.5087 85.9427 62.2894 85.8307 62.0187 85.7C61.7574 85.5787 61.5381 85.4947 61.3607 85.448C61.5381 85.2333 61.7154 84.9673 61.8927 84.65C62.0701 84.3327 62.2334 84.006 62.3827 83.67C62.5321 83.334 62.6441 83.0307 62.7187 82.76L64.0207 83.194C63.9367 83.4833 63.8201 83.8053 63.6707 84.16C63.5307 84.5053 63.3721 84.8413 63.1947 85.168C63.0174 85.4947 62.8447 85.784 62.6767 86.036ZM65.6867 85.924C65.5187 85.7 65.3461 85.4293 65.1687 85.112C64.9914 84.804 64.8234 84.482 64.6647 84.146C64.5154 83.8007 64.3894 83.4833 64.2867 83.194L65.5327 82.746C65.6634 83.166 65.8547 83.5953 66.1067 84.034C66.3587 84.4727 66.6107 84.846 66.8627 85.154C66.6854 85.2567 66.4847 85.3827 66.2607 85.532C66.0367 85.6907 65.8454 85.8213 65.6867 85.924ZM63.4607 81.36H64.6927V80.058H63.4607V81.36ZM63.4607 78.826H64.6927V77.58H63.4607V78.826ZM63.4607 76.348H64.6927V75.116H63.4607V76.348ZM69.6628 77.58H70.9227V76.964H69.6628V77.58ZM68.5147 82.592H69.5928V81.934H68.5147V82.592ZM71.0067 82.592H72.0847V81.934H71.0067V82.592ZM69.6628 75.914H70.9227V75.354H69.6628V75.914ZM68.5147 80.912H69.5928V80.296H68.5147V80.912ZM71.0067 80.912H72.0847V80.296H71.0067V80.912ZM76.4667 86.092C76.3454 85.8493 76.1821 85.5973 75.9767 85.336C75.7807 85.0747 75.5754 84.8553 75.3607 84.678C76.5087 84.146 77.4654 83.4927 78.2307 82.718C79.0054 81.9433 79.6121 81.0753 80.0507 80.114C80.4987 79.1527 80.7927 78.1353 80.9327 77.062L81.9267 77.23C81.8894 76.9127 81.8567 76.5907 81.8287 76.264C81.8101 75.9373 81.8054 75.6013 81.8147 75.256H78.5667V73.688H83.5368C83.4154 75.3307 83.4947 76.8287 83.7747 78.182C84.0547 79.5353 84.6008 80.7487 85.4128 81.822C86.2341 82.8953 87.3821 83.8427 88.8568 84.664C88.6514 84.8227 88.4274 85.042 88.1848 85.322C87.9421 85.602 87.7414 85.8587 87.5827 86.092C86.3414 85.2893 85.2541 84.3047 84.3207 83.138C83.3874 81.9713 82.7061 80.5853 82.2767 78.98C82.0061 79.9973 81.5954 80.9587 81.0447 81.864C80.5034 82.76 79.8454 83.5673 79.0707 84.286C78.2961 85.0047 77.4281 85.6067 76.4667 86.092ZM99.3007 85.546C98.3301 85.434 97.4714 85.1493 96.7247 84.692C95.9781 84.2347 95.3947 83.642 94.9747 82.914C94.5641 82.186 94.3587 81.3553 94.3587 80.422C94.3587 79.75 94.5174 79.064 94.8347 78.364C95.1614 77.664 95.6467 77.0433 96.2907 76.502C95.5441 76.6233 94.7974 76.754 94.0507 76.894C93.3134 77.034 92.6414 77.1647 92.0347 77.286C91.4374 77.4073 90.9754 77.51 90.6487 77.594L90.2707 75.788C90.5787 75.7693 91.0034 75.7273 91.5447 75.662C92.0954 75.5967 92.7114 75.5173 93.3927 75.424C94.0834 75.3213 94.7927 75.214 95.5207 75.102C96.2581 74.9807 96.9674 74.8593 97.6487 74.738C98.3394 74.6167 98.9554 74.5 99.4967 74.388C100.047 74.2667 100.477 74.1593 100.785 74.066L101.233 75.774C101.083 75.7833 100.901 75.802 100.687 75.83C100.481 75.858 100.248 75.8907 99.9868 75.928C99.4734 75.9933 98.9834 76.152 98.5167 76.404C98.0501 76.656 97.6301 76.9827 97.2567 77.384C96.8927 77.7853 96.6034 78.2427 96.3887 78.756C96.1741 79.2693 96.0667 79.8247 96.0667 80.422C96.0667 81.1407 96.2487 81.738 96.6127 82.214C96.9767 82.69 97.4714 83.0633 98.0967 83.334C98.7314 83.5953 99.4407 83.7727 100.225 83.866C100.085 84.006 99.9494 84.1833 99.8187 84.398C99.6881 84.6033 99.5761 84.8087 99.4828 85.014C99.3894 85.2287 99.3288 85.406 99.3007 85.546ZM101.737 79.12C101.559 78.8307 101.321 78.5227 101.023 78.196C100.733 77.8693 100.467 77.608 100.225 77.412L100.981 76.782C101.121 76.894 101.289 77.0573 101.485 77.272C101.69 77.4867 101.891 77.706 102.087 77.93C102.283 78.1447 102.432 78.3313 102.535 78.49L101.737 79.12ZM100.477 80.184C100.299 79.8853 100.066 79.5727 99.7767 79.246C99.4874 78.9193 99.2214 78.6533 98.9787 78.448L99.7487 77.832C99.8887 77.944 100.057 78.1073 100.253 78.322C100.449 78.5367 100.64 78.756 100.827 78.98C101.023 79.204 101.172 79.3907 101.275 79.54L100.477 80.184ZM105.629 85V77.104L103.921 78.224L103.123 76.95L105.979 75.186H107.127V85H105.629ZM113.499 85.616V73.842H121.675V85.616H113.499ZM110.867 86.008V78.826C110.746 79.0313 110.62 79.2227 110.489 79.4C110.368 79.568 110.247 79.7267 110.125 79.876C110.041 79.764 109.925 79.6427 109.775 79.512C109.626 79.372 109.467 79.2367 109.299 79.106C109.141 78.9753 109.005 78.8773 108.893 78.812C109.173 78.476 109.458 78.0747 109.747 77.608C110.037 77.132 110.307 76.6327 110.559 76.11C110.811 75.5873 111.031 75.074 111.217 74.57C111.413 74.066 111.558 73.6133 111.651 73.212L113.219 73.59C113.135 73.926 113.023 74.2853 112.883 74.668C112.753 75.0507 112.599 75.4473 112.421 75.858V86.008H110.867ZM115.039 84.216H120.135V78.35H118.287V79.442H119.533V83.334H115.641V79.442H116.887V78.35H115.039V84.216ZM115.039 77.076H116.887V75.732H118.287V77.076H120.135V75.242H115.039V77.076ZM117.027 82.088H118.161V80.688H117.027V82.088ZM134.723 86.092C134.593 85.8493 134.415 85.5507 134.191 85.196C133.977 84.8413 133.743 84.4867 133.491 84.132C133.249 83.7773 133.015 83.4787 132.791 83.236L133.911 82.424H123.971V81.038H125.511V79.148H123.453V77.748H125.511V76.306C125.315 76.5207 125.124 76.7213 124.937 76.908C124.751 77.0947 124.573 77.2533 124.405 77.384C124.256 77.2253 124.055 77.048 123.803 76.852C123.561 76.656 123.341 76.5113 123.145 76.418C123.397 76.222 123.659 75.984 123.929 75.704C124.2 75.4147 124.461 75.1113 124.713 74.794C124.975 74.4673 125.203 74.15 125.399 73.842C125.595 73.534 125.74 73.2633 125.833 73.03L127.415 73.52C127.35 73.6693 127.266 73.8327 127.163 74.01C127.07 74.178 126.963 74.3553 126.841 74.542H135.493V75.928H134.163V77.748H136.179V79.148H134.163V81.038H135.759V82.424H134.023C134.266 82.676 134.518 82.97 134.779 83.306C135.05 83.642 135.307 83.978 135.549 84.314C135.792 84.65 135.988 84.9487 136.137 85.21C135.913 85.3033 135.661 85.4387 135.381 85.616C135.101 85.8027 134.882 85.9613 134.723 86.092ZM124.755 86.134C124.587 85.9753 124.368 85.812 124.097 85.644C123.827 85.4853 123.584 85.3687 123.369 85.294C123.603 85.0887 123.845 84.832 124.097 84.524C124.349 84.216 124.587 83.8893 124.811 83.544C125.045 83.1987 125.231 82.8673 125.371 82.55L126.813 83.236C126.645 83.5813 126.445 83.936 126.211 84.3C125.978 84.6547 125.735 84.9907 125.483 85.308C125.231 85.6253 124.989 85.9007 124.755 86.134ZM130.859 85.98C130.822 85.7093 130.761 85.392 130.677 85.028C130.603 84.6733 130.519 84.3233 130.425 83.978C130.341 83.6233 130.253 83.3293 130.159 83.096L131.657 82.69C131.751 82.9047 131.849 83.1893 131.951 83.544C132.054 83.8893 132.147 84.244 132.231 84.608C132.325 84.972 132.395 85.2987 132.441 85.588C132.236 85.616 131.97 85.6673 131.643 85.742C131.326 85.8167 131.065 85.896 130.859 85.98ZM127.933 86.05C127.915 85.7887 127.877 85.476 127.821 85.112C127.765 84.7573 127.705 84.4073 127.639 84.062C127.574 83.7073 127.509 83.4133 127.443 83.18L128.955 82.872C129.039 83.1053 129.119 83.3947 129.193 83.74C129.277 84.0853 129.347 84.44 129.403 84.804C129.469 85.168 129.511 85.4853 129.529 85.756C129.399 85.7653 129.235 85.784 129.039 85.812C128.843 85.8493 128.643 85.8867 128.437 85.924C128.241 85.9613 128.073 86.0033 127.933 86.05ZM126.995 81.038H127.891V79.148H126.995V81.038ZM131.769 81.038H132.665V79.148H131.769V81.038ZM129.389 81.038H130.271V79.148H129.389V81.038ZM126.995 77.748H127.891V75.928H126.995V77.748ZM131.769 77.748H132.665V75.928H131.769V77.748ZM129.389 77.748H130.271V75.928H129.389V77.748ZM140.057 85.994V81.486C139.768 81.9153 139.465 82.3167 139.147 82.69C138.839 83.0633 138.536 83.3853 138.237 83.656C138.107 83.488 137.934 83.306 137.719 83.11C137.505 82.914 137.304 82.7647 137.117 82.662C137.435 82.4007 137.761 82.0787 138.097 81.696C138.443 81.304 138.769 80.8887 139.077 80.45C139.385 80.002 139.647 79.568 139.861 79.148H137.621V77.706H140.057V73.324H141.583V77.706H143.641V79.148H141.583V79.288C141.751 79.4933 141.966 79.736 142.227 80.016C142.498 80.2867 142.773 80.548 143.053 80.8C143.333 81.052 143.581 81.2573 143.795 81.416C144.262 81.36 144.813 81.2807 145.447 81.178C146.082 81.066 146.717 80.9493 147.351 80.828V76.236C147.249 76.32 147.127 76.432 146.987 76.572C146.857 76.7027 146.726 76.8333 146.595 76.964C146.474 77.0947 146.381 77.2067 146.315 77.3C146.054 77.0293 145.746 76.7307 145.391 76.404C145.037 76.0773 144.687 75.8113 144.341 75.606L145.363 74.542C145.69 74.7473 146.035 75.0133 146.399 75.34C146.773 75.6573 147.09 75.9467 147.351 76.208V73.31H148.919V80.52C149.246 80.4453 149.54 80.38 149.801 80.324C150.063 80.2587 150.273 80.198 150.431 80.142L150.529 81.668C150.324 81.724 150.086 81.7847 149.815 81.85C149.545 81.906 149.246 81.9713 148.919 82.046V85.994H147.351V82.382C146.679 82.5127 146.021 82.6387 145.377 82.76C144.733 82.872 144.197 82.9607 143.767 83.026L143.501 81.822C143.38 81.962 143.259 82.1067 143.137 82.256C143.025 82.396 142.941 82.5173 142.885 82.62C142.68 82.4427 142.465 82.2373 142.241 82.004C142.017 81.7707 141.798 81.5233 141.583 81.262V85.994H140.057ZM145.951 80.324C145.69 80.0533 145.377 79.764 145.013 79.456C144.649 79.1387 144.29 78.8773 143.935 78.672L144.901 77.58C145.125 77.72 145.363 77.888 145.615 78.084C145.867 78.2707 146.11 78.4667 146.343 78.672C146.586 78.868 146.796 79.05 146.973 79.218C146.88 79.2927 146.768 79.4 146.637 79.54C146.507 79.6707 146.376 79.8107 146.245 79.96C146.124 80.1 146.026 80.2213 145.951 80.324ZM143.039 77.37C142.89 77.286 142.685 77.188 142.423 77.076C142.162 76.9547 141.952 76.8753 141.793 76.838C141.896 76.6513 142.013 76.4087 142.143 76.11C142.283 75.802 142.409 75.4847 142.521 75.158C142.633 74.822 142.713 74.5373 142.759 74.304L144.089 74.696C144.052 74.864 143.987 75.074 143.893 75.326C143.809 75.5687 143.716 75.8253 143.613 76.096C143.511 76.3573 143.408 76.6047 143.305 76.838C143.203 77.062 143.114 77.2393 143.039 77.37ZM138.475 77.342C138.429 77.118 138.349 76.852 138.237 76.544C138.135 76.2267 138.018 75.914 137.887 75.606C137.766 75.298 137.645 75.046 137.523 74.85L138.797 74.346C138.909 74.5327 139.031 74.7893 139.161 75.116C139.301 75.4333 139.427 75.7553 139.539 76.082C139.661 76.3993 139.745 76.6607 139.791 76.866C139.605 76.9033 139.371 76.9733 139.091 77.076C138.811 77.1787 138.606 77.2673 138.475 77.342ZM154.505 85.014C154.449 84.8927 154.356 84.734 154.225 84.538C154.104 84.342 153.969 84.146 153.819 83.95C153.679 83.754 153.544 83.6 153.413 83.488C155.196 82.9093 156.666 82.1067 157.823 81.08C158.981 80.044 159.816 78.728 160.329 77.132C159.891 77.1413 159.391 77.1553 158.831 77.174C158.281 77.1927 157.711 77.2113 157.123 77.23C156.535 77.2487 155.971 77.2673 155.429 77.286C154.897 77.3047 154.431 77.3233 154.029 77.342C153.628 77.3513 153.334 77.3607 153.147 77.37L153.035 75.494C153.306 75.5127 153.661 75.5267 154.099 75.536C154.547 75.5453 155.037 75.55 155.569 75.55C156.101 75.55 156.652 75.55 157.221 75.55C157.791 75.5407 158.337 75.5313 158.859 75.522C159.391 75.5033 159.872 75.4847 160.301 75.466C160.731 75.4473 161.071 75.424 161.323 75.396L162.457 75.998C162.149 77.4913 161.627 78.8307 160.889 80.016C160.161 81.192 159.256 82.2047 158.173 83.054C157.1 83.894 155.877 84.5473 154.505 85.014ZM163.423 75.956C163.041 75.956 162.709 75.8207 162.429 75.55C162.159 75.27 162.023 74.9387 162.023 74.556C162.023 74.1733 162.159 73.8467 162.429 73.576C162.709 73.3053 163.041 73.17 163.423 73.17C163.806 73.17 164.133 73.3053 164.403 73.576C164.674 73.8467 164.809 74.1733 164.809 74.556C164.809 74.9387 164.674 75.27 164.403 75.55C164.133 75.8207 163.806 75.956 163.423 75.956ZM163.423 75.354C163.638 75.354 163.82 75.2793 163.969 75.13C164.128 74.9713 164.207 74.78 164.207 74.556C164.207 74.3413 164.128 74.1593 163.969 74.01C163.82 73.8513 163.638 73.772 163.423 73.772C163.199 73.772 163.008 73.8513 162.849 74.01C162.7 74.1593 162.625 74.3413 162.625 74.556C162.625 74.78 162.7 74.9713 162.849 75.13C163.008 75.2793 163.199 75.354 163.423 75.354ZM168.575 84.174L167.665 83.474C167.675 83.362 167.684 83.152 167.693 82.844C167.703 82.536 167.707 82.1673 167.707 81.738C167.717 81.3087 167.721 80.8467 167.721 80.352C167.721 79.848 167.721 79.3533 167.721 78.868C167.721 78.3267 167.717 77.818 167.707 77.342C167.707 76.8567 167.703 76.4367 167.693 76.082C167.684 75.718 167.675 75.4567 167.665 75.298H169.457C169.439 75.466 169.425 75.7367 169.415 76.11C169.406 76.4833 169.397 76.9033 169.387 77.37C169.387 77.8367 169.387 78.308 169.387 78.784V81.976C170.031 81.7333 170.717 81.444 171.445 81.108C172.173 80.7627 172.887 80.394 173.587 80.002C174.297 79.6007 174.945 79.1993 175.533 78.798C176.121 78.3967 176.602 78.014 176.975 77.65C176.985 77.8087 177.008 78.0233 177.045 78.294C177.083 78.5553 177.125 78.812 177.171 79.064C177.227 79.316 177.274 79.5073 177.311 79.638C176.938 79.946 176.485 80.2727 175.953 80.618C175.431 80.954 174.857 81.2947 174.231 81.64C173.606 81.9853 172.962 82.3213 172.299 82.648C171.646 82.9653 170.997 83.2547 170.353 83.516C169.719 83.7773 169.126 83.9967 168.575 84.174ZM186.033 84.874C185.109 84.874 184.437 84.7433 184.017 84.482C183.597 84.2207 183.387 83.74 183.387 83.04V79.428C182.837 79.54 182.323 79.6427 181.847 79.736C181.371 79.8293 180.975 79.9087 180.657 79.974C180.349 80.03 180.158 80.0673 180.083 80.086L179.733 78.406C180.069 78.3593 180.564 78.2893 181.217 78.196C181.88 78.0933 182.603 77.9767 183.387 77.846V74.416H185.137V77.566C185.884 77.4353 186.598 77.3093 187.279 77.188C187.97 77.0667 188.567 76.9547 189.071 76.852C189.575 76.74 189.921 76.656 190.107 76.6L191.185 77.44C191.036 77.6827 190.831 77.986 190.569 78.35C190.308 78.7047 190.023 79.078 189.715 79.47C189.417 79.862 189.118 80.2353 188.819 80.59C188.53 80.9447 188.273 81.2433 188.049 81.486L186.747 80.38C186.99 80.1747 187.275 79.8853 187.601 79.512C187.937 79.1387 188.259 78.7607 188.567 78.378C188.129 78.4713 187.606 78.5787 186.999 78.7C186.402 78.8213 185.781 78.9473 185.137 79.078V82.41C185.137 82.69 185.212 82.886 185.361 82.998C185.511 83.11 185.758 83.166 186.103 83.166C186.635 83.166 187.191 83.1427 187.769 83.096C188.357 83.0493 188.903 82.9887 189.407 82.914C189.911 82.8393 190.317 82.76 190.625 82.676C190.579 82.816 190.532 83.0073 190.485 83.25C190.439 83.4833 190.401 83.7167 190.373 83.95C190.345 84.174 190.327 84.3513 190.317 84.482C190.056 84.5473 189.734 84.608 189.351 84.664C188.978 84.7107 188.581 84.7527 188.161 84.79C187.751 84.818 187.359 84.8413 186.985 84.86C186.612 84.8693 186.295 84.874 186.033 84.874ZM192.039 75.368C191.853 75.0787 191.61 74.7753 191.311 74.458C191.013 74.1313 190.742 73.87 190.499 73.674L191.241 73.03C191.381 73.142 191.554 73.3053 191.759 73.52C191.965 73.7253 192.165 73.94 192.361 74.164C192.557 74.3787 192.711 74.5607 192.823 74.71L192.039 75.368ZM190.793 76.446C190.616 76.1567 190.378 75.8487 190.079 75.522C189.781 75.1953 189.515 74.934 189.281 74.738L190.023 74.108C190.163 74.22 190.331 74.3833 190.527 74.598C190.733 74.8033 190.933 75.018 191.129 75.242C191.325 75.4567 191.475 75.6433 191.577 75.802L190.793 76.446ZM196.015 84.608L195.063 82.886C195.726 82.746 196.421 82.5173 197.149 82.2C197.887 81.8733 198.624 81.4953 199.361 81.066C200.099 80.6273 200.799 80.1607 201.461 79.666C202.124 79.162 202.721 78.6533 203.253 78.14C203.795 77.6267 204.233 77.1367 204.569 76.67C204.607 76.8287 204.667 77.0247 204.751 77.258C204.845 77.4913 204.943 77.72 205.045 77.944C205.148 78.1587 205.237 78.3267 205.311 78.448C204.854 79.036 204.28 79.6333 203.589 80.24C202.908 80.8373 202.152 81.416 201.321 81.976C200.491 82.5267 199.623 83.0307 198.717 83.488C197.812 83.9453 196.911 84.3187 196.015 84.608ZM197.513 78.434C197.392 78.3033 197.219 78.1493 196.995 77.972C196.781 77.7947 196.538 77.608 196.267 77.412C196.006 77.216 195.749 77.0387 195.497 76.88C195.245 76.712 195.026 76.586 194.839 76.502L195.959 75.088C196.146 75.1907 196.365 75.3213 196.617 75.48C196.869 75.6387 197.126 75.8113 197.387 75.998C197.658 76.1847 197.91 76.3713 198.143 76.558C198.377 76.7353 198.563 76.894 198.703 77.034L197.513 78.434ZM212.227 85.434V74.15H213.935V78.392L214.565 77.496C214.789 77.6547 215.083 77.8553 215.447 78.098C215.821 78.3313 216.217 78.574 216.637 78.826C217.057 79.0687 217.463 79.2927 217.855 79.498C218.247 79.7033 218.579 79.8573 218.849 79.96C218.737 80.0627 218.607 80.212 218.457 80.408C218.317 80.5947 218.187 80.7907 218.065 80.996C217.944 81.192 217.846 81.36 217.771 81.5C217.547 81.3787 217.267 81.2247 216.931 81.038C216.605 80.842 216.255 80.6273 215.881 80.394C215.517 80.1607 215.163 79.932 214.817 79.708C214.481 79.4747 214.187 79.2647 213.935 79.078V85.434H212.227Z" fill="white"/>
</svg>
