<svg width="178" height="41" viewBox="0 0 178 41" fill="none" xmlns="http://www.w3.org/2000/svg">
<path d="M170.039 0H7.02642C3.14584 0 0 3.14661 0 7.02816V33.0324C0 36.9139 3.14584 40.0605 7.02642 40.0605H170.039C173.92 40.0605 177.066 36.9139 177.066 33.0324V7.02816C177.066 3.14661 173.92 0 170.039 0Z" fill="white"/>
<path d="M170.039 1.0542H7.02641C3.72792 1.0542 1.05396 3.72882 1.05396 7.02814V33.0323C1.05396 36.3316 3.72792 39.0063 7.02641 39.0063H170.039C173.338 39.0063 176.012 36.3316 176.012 33.0323V7.02814C176.012 3.72882 173.338 1.0542 170.039 1.0542Z" stroke="#C5385F" stroke-width="1.90438"/>
<path d="M55.1494 26.69C54.0794 26.69 53.2294 26.4 52.5994 25.82C51.9794 25.23 51.6644 24.39 51.6544 23.3C51.6544 23.13 51.6594 22.925 51.6694 22.685C51.6894 22.435 51.7094 22.16 51.7294 21.86C51.0894 21.78 50.4844 21.69 49.9144 21.59C49.3444 21.48 48.8844 21.365 48.5344 21.245L48.7594 19.94C49.0694 20.07 49.5044 20.19 50.0644 20.3C50.6244 20.41 51.2194 20.5 51.8494 20.57C51.8894 20.19 51.9294 19.79 51.9694 19.37C52.0194 18.95 52.0644 18.535 52.1044 18.125C51.5544 18.045 51.0294 17.96 50.5294 17.87C50.0394 17.78 49.6644 17.7 49.4044 17.63L49.6294 16.31C49.8594 16.4 50.2144 16.495 50.6944 16.595C51.1744 16.685 51.6894 16.77 52.2394 16.85C52.3194 16.2 52.3844 15.605 52.4344 15.065C52.4944 14.525 52.5344 14.115 52.5544 13.835L54.0094 14.06C53.9494 14.35 53.8794 14.76 53.7994 15.29C53.7294 15.81 53.6544 16.385 53.5744 17.015C53.9444 17.055 54.2844 17.085 54.5944 17.105C54.9044 17.125 55.1544 17.13 55.3444 17.12L55.1494 18.425C54.9594 18.425 54.7144 18.415 54.4144 18.395C54.1144 18.365 53.7844 18.33 53.4244 18.29C53.3844 18.69 53.3394 19.095 53.2894 19.505C53.2494 19.915 53.2144 20.315 53.1844 20.705C53.6044 20.725 53.9944 20.74 54.3544 20.75C54.7244 20.75 55.0294 20.74 55.2694 20.72L55.1344 22.025C54.5544 22.055 53.8744 22.04 53.0944 21.98C53.0644 22.47 53.0494 22.89 53.0494 23.24C53.0494 23.93 53.2144 24.45 53.5444 24.8C53.8744 25.14 54.4094 25.31 55.1494 25.31C55.8594 25.31 56.4144 25.135 56.8144 24.785C57.2244 24.435 57.4294 23.935 57.4294 23.285C57.4294 22.755 57.2644 22.2 56.9344 21.62C56.6044 21.03 56.1144 20.525 55.4644 20.105C55.6744 20.065 55.8994 19.995 56.1394 19.895C56.3794 19.785 56.5544 19.68 56.6644 19.58C57.3844 20.1 57.9244 20.695 58.2844 21.365C58.6544 22.025 58.8394 22.68 58.8394 23.33C58.8394 24.01 58.6844 24.605 58.3744 25.115C58.0644 25.615 57.6344 26 57.0844 26.27C56.5344 26.55 55.8894 26.69 55.1494 26.69ZM68.0194 25.58C67.9594 25.4 67.8794 25.2 67.7794 24.98C67.6794 24.75 67.5744 24.555 67.4644 24.395C68.4344 24.305 69.2744 24.155 69.9844 23.945C70.6944 23.735 71.2394 23.455 71.6194 23.105C71.9994 22.745 72.1794 22.31 72.1594 21.8C72.1194 20.7 71.2994 20.185 69.6994 20.255C69.3694 20.265 68.9744 20.31 68.5144 20.39C68.0544 20.46 67.5744 20.555 67.0744 20.675C66.5744 20.785 66.1044 20.905 65.6644 21.035C65.2244 21.155 64.8594 21.27 64.5694 21.38C64.5694 21.37 64.5444 21.305 64.4944 21.185C64.4444 21.065 64.3894 20.93 64.3294 20.78C64.2694 20.62 64.2144 20.48 64.1644 20.36C64.1144 20.24 64.0844 20.175 64.0744 20.165C64.3644 20.105 64.7494 20.025 65.2294 19.925C65.7194 19.815 66.2394 19.705 66.7894 19.595C67.3394 19.485 67.8694 19.39 68.3794 19.31C68.8894 19.23 69.3144 19.185 69.6544 19.175C70.8844 19.125 71.7994 19.335 72.3994 19.805C73.0094 20.265 73.3344 20.915 73.3744 21.755C73.4044 22.515 73.1944 23.155 72.7444 23.675C72.3044 24.185 71.6744 24.595 70.8544 24.905C70.0444 25.205 69.0994 25.43 68.0194 25.58ZM88.1194 25.925C87.2194 26.085 86.3444 26.195 85.4944 26.255C84.6444 26.315 83.8494 26.31 83.1094 26.24C82.3694 26.17 81.7194 26.025 81.1594 25.805C80.5994 25.575 80.1594 25.255 79.8394 24.845C79.5294 24.435 79.3744 23.915 79.3744 23.285C79.3744 22.485 79.6844 21.79 80.3044 21.2C80.9344 20.61 81.7644 20.1 82.7944 19.67C82.5244 19.07 82.3294 18.29 82.2094 17.33C82.0894 16.36 82.0494 15.24 82.0894 13.97H83.5894C83.5294 14.56 83.5044 15.185 83.5144 15.845C83.5344 16.495 83.5894 17.115 83.6794 17.705C83.7694 18.285 83.8894 18.78 84.0394 19.19C84.5394 19.02 85.0594 18.86 85.5994 18.71C86.1494 18.55 86.7094 18.4 87.2794 18.26L87.5944 19.7C86.6944 19.82 85.8344 20 85.0144 20.24C84.1944 20.47 83.4694 20.745 82.8394 21.065C82.2094 21.375 81.7094 21.715 81.3394 22.085C80.9794 22.455 80.7994 22.83 80.7994 23.21C80.7994 23.68 80.9994 24.055 81.3994 24.335C81.8094 24.605 82.3644 24.785 83.0644 24.875C83.7744 24.965 84.5794 24.97 85.4794 24.89C86.3894 24.81 87.3444 24.65 88.3444 24.41C88.2744 24.6 88.2194 24.85 88.1794 25.16C88.1394 25.46 88.1194 25.715 88.1194 25.925ZM92.4844 27.185C92.4544 27.075 92.3994 26.935 92.3194 26.765C92.2494 26.605 92.1744 26.445 92.0944 26.285C92.0144 26.135 91.9394 26.02 91.8694 25.94C92.7894 25.87 93.6044 25.67 94.3144 25.34C95.0244 25.01 95.5944 24.58 96.0244 24.05C96.4544 23.51 96.7094 22.915 96.7894 22.265H94.5394V13.91H103.149V22.265H100.929V25.07C100.929 25.23 100.964 25.345 101.034 25.415C101.114 25.485 101.274 25.52 101.514 25.52H103.389C103.669 25.52 103.889 25.475 104.049 25.385C104.219 25.295 104.344 25.12 104.424 24.86C104.514 24.6 104.579 24.215 104.619 23.705C104.779 23.795 104.994 23.89 105.264 23.99C105.534 24.08 105.764 24.15 105.954 24.2C105.864 24.96 105.734 25.53 105.564 25.91C105.394 26.29 105.164 26.54 104.874 26.66C104.584 26.79 104.209 26.855 103.749 26.855H101.019C100.459 26.855 100.064 26.765 99.8344 26.585C99.6144 26.415 99.5044 26.125 99.5044 25.715V22.265H98.1994C98.0994 23.485 97.5794 24.54 96.6394 25.43C95.6994 26.31 94.3144 26.895 92.4844 27.185ZM95.9644 16.43H101.709V15.11H95.9644V16.43ZM95.9644 21.05H101.709V19.745H95.9644V21.05ZM95.9644 18.74H101.709V17.435H95.9644V18.74ZM114.279 26.255C113.169 26.255 112.349 26.05 111.819 25.64C111.299 25.23 111.039 24.725 111.039 24.125C111.039 23.745 111.134 23.42 111.324 23.15C111.514 22.88 111.764 22.675 112.074 22.535C112.384 22.395 112.709 22.325 113.049 22.325C113.709 22.325 114.249 22.555 114.669 23.015C115.099 23.465 115.354 24.04 115.434 24.74C115.914 24.58 116.319 24.31 116.649 23.93C116.979 23.54 117.144 23.045 117.144 22.445C117.144 21.985 117.034 21.58 116.814 21.23C116.604 20.88 116.309 20.605 115.929 20.405C115.549 20.205 115.109 20.105 114.609 20.105C113.299 20.105 112.209 20.48 111.339 21.23C111.159 21.39 110.919 21.595 110.619 21.845C110.319 22.085 110.039 22.3 109.779 22.49L108.849 21.485C109.319 21.205 109.824 20.845 110.364 20.405C110.904 19.965 111.439 19.48 111.969 18.95C112.509 18.42 113.019 17.875 113.499 17.315C113.979 16.755 114.399 16.21 114.759 15.68C114.339 15.78 113.859 15.88 113.319 15.98C112.779 16.07 112.249 16.15 111.729 16.22C111.219 16.28 110.784 16.32 110.424 16.34L110.184 15.02C110.454 15.03 110.789 15.025 111.189 15.005C111.599 14.975 112.029 14.935 112.479 14.885C112.939 14.835 113.384 14.78 113.814 14.72C114.254 14.65 114.644 14.575 114.984 14.495C115.334 14.415 115.589 14.34 115.749 14.27L116.784 14.975C116.554 15.425 116.254 15.905 115.884 16.415C115.524 16.915 115.124 17.42 114.684 17.93C114.244 18.44 113.789 18.93 113.319 19.4C113.549 19.29 113.804 19.2 114.084 19.13C114.364 19.06 114.634 19.025 114.894 19.025C115.624 19.025 116.264 19.17 116.814 19.46C117.364 19.75 117.794 20.15 118.104 20.66C118.424 21.17 118.584 21.765 118.584 22.445C118.584 23.175 118.399 23.83 118.029 24.41C117.669 24.98 117.164 25.43 116.514 25.76C115.874 26.09 115.129 26.255 114.279 26.255ZM114.024 24.98H114.204C114.174 24.54 114.054 24.18 113.844 23.9C113.634 23.62 113.369 23.48 113.049 23.48C112.839 23.48 112.664 23.535 112.524 23.645C112.394 23.745 112.329 23.895 112.329 24.095C112.329 24.345 112.459 24.55 112.719 24.71C112.979 24.87 113.414 24.96 114.024 24.98Z" fill="#C5385F"/>
<path d="M52.5994 25.82L52.49 25.935L52.4919 25.9368L52.5994 25.82ZM51.6544 23.3H51.4957L51.4957 23.3015L51.6544 23.3ZM51.6694 22.685L51.5111 22.6723L51.5108 22.6784L51.6694 22.685ZM51.7294 21.86L51.8877 21.8706L51.8977 21.7211L51.7491 21.7025L51.7294 21.86ZM49.9144 21.59L49.8843 21.7458L49.887 21.7463L49.9144 21.59ZM48.5344 21.245L48.378 21.218L48.355 21.3513L48.4829 21.3951L48.5344 21.245ZM48.7594 19.94L48.8208 19.7936L48.6369 19.7165L48.603 19.913L48.7594 19.94ZM50.0644 20.3L50.0338 20.4557V20.4557L50.0644 20.3ZM51.8494 20.57L51.8319 20.7277L51.9905 20.7454L52.0072 20.5866L51.8494 20.57ZM51.9694 19.37L51.8118 19.3512L51.8114 19.355L51.9694 19.37ZM52.1044 18.125L52.2623 18.1404L52.277 17.9897L52.1272 17.968L52.1044 18.125ZM50.5294 17.87L50.5007 18.0261L50.5013 18.0262L50.5294 17.87ZM49.4044 17.63L49.2479 17.6033L49.2237 17.7457L49.3631 17.7832L49.4044 17.63ZM49.6294 16.31L49.6872 16.1622L49.5057 16.0912L49.4729 16.2833L49.6294 16.31ZM50.6944 16.595L50.662 16.7504L50.6651 16.751L50.6944 16.595ZM52.2394 16.85L52.2165 17.007L52.3771 17.0304L52.3969 16.8694L52.2394 16.85ZM52.4344 15.065L52.2766 15.0475L52.2764 15.0504L52.4344 15.065ZM52.5544 13.835L52.5786 13.6782L52.4084 13.6518L52.3961 13.8237L52.5544 13.835ZM54.0094 14.06L54.1648 14.0922L54.1986 13.9287L54.0336 13.9032L54.0094 14.06ZM53.7994 15.29L53.6424 15.2663L53.6421 15.2688L53.7994 15.29ZM53.5744 17.015L53.417 16.995L53.3966 17.1554L53.5573 17.1728L53.5744 17.015ZM54.5944 17.105L54.6046 16.9466V16.9466L54.5944 17.105ZM55.3444 17.12L55.5013 17.1435L55.5301 16.9513L55.336 16.9615L55.3444 17.12ZM55.1494 18.425V18.5837H55.2861L55.3063 18.4485L55.1494 18.425ZM54.4144 18.395L54.3986 18.553L54.4038 18.5533L54.4144 18.395ZM53.4244 18.29L53.4419 18.1323L53.2824 18.1146L53.2665 18.2742L53.4244 18.29ZM53.2894 19.505L53.1318 19.4858L53.1314 19.4896L53.2894 19.505ZM53.1844 20.705L53.0262 20.6928L53.0136 20.8557L53.1768 20.8635L53.1844 20.705ZM54.3544 20.75L54.35 20.9087H54.3544V20.75ZM55.2694 20.72L55.4272 20.7363L55.4469 20.546L55.2562 20.5618L55.2694 20.72ZM55.1344 22.025L55.1426 22.1835L55.2783 22.1765L55.2922 22.0413L55.1344 22.025ZM53.0944 21.98L53.1066 21.8218L52.9458 21.8094L52.936 21.9703L53.0944 21.98ZM53.5444 24.8L53.4289 24.9089L53.4305 24.9105L53.5444 24.8ZM56.8144 24.785L56.7113 24.6643L56.7099 24.6656L56.8144 24.785ZM56.9344 21.62L56.7959 21.6975L56.7965 21.6985L56.9344 21.62ZM55.4644 20.105L55.4347 19.9491L55.0455 20.0232L55.3783 20.2383L55.4644 20.105ZM56.1394 19.895L56.2005 20.0416L56.2055 20.0393L56.1394 19.895ZM56.6644 19.58L56.7573 19.4513L56.6529 19.376L56.5576 19.4626L56.6644 19.58ZM58.2844 21.365L58.1446 21.4401L58.146 21.4426L58.2844 21.365ZM58.3744 25.115L58.5093 25.1986L58.51 25.1974L58.3744 25.115ZM57.0844 26.27L57.0144 26.1275L57.0124 26.1286L57.0844 26.27ZM55.1494 26.69V26.5313C54.1088 26.5313 53.3008 26.25 52.7069 25.7032L52.5994 25.82L52.4919 25.9368C53.158 26.55 54.0499 26.8487 55.1494 26.8487V26.69ZM52.5994 25.82L52.7088 25.705C52.1279 25.1522 51.8228 24.358 51.8131 23.2985L51.6544 23.3L51.4957 23.3015C51.506 24.422 51.8309 25.3078 52.49 25.935L52.5994 25.82ZM51.6544 23.3H51.8131C51.8131 23.1329 51.818 22.9302 51.828 22.6916L51.6694 22.685L51.5108 22.6784C51.5008 22.9198 51.4957 23.1271 51.4957 23.3H51.6544ZM51.6694 22.685L51.8276 22.6977C51.8476 22.4468 51.8677 22.1711 51.8877 21.8706L51.7294 21.86L51.571 21.8494C51.5511 22.1489 51.5311 22.4232 51.5112 22.6723L51.6694 22.685ZM51.7294 21.86L51.7491 21.7025C51.1114 21.6228 50.509 21.5332 49.9418 21.4337L49.9144 21.59L49.887 21.7463C50.4598 21.8468 51.0674 21.9372 51.7097 22.0175L51.7294 21.86ZM49.9144 21.59L49.9445 21.4342C49.3781 21.3249 48.9261 21.2115 48.5859 21.0949L48.5344 21.245L48.4829 21.3951C48.8427 21.5185 49.3106 21.6351 49.8843 21.7458L49.9144 21.59ZM48.5344 21.245L48.6908 21.272L48.9158 19.967L48.7594 19.94L48.603 19.913L48.378 21.218L48.5344 21.245ZM48.7594 19.94L48.698 20.0864C49.0224 20.2224 49.4695 20.3449 50.0338 20.4557L50.0644 20.3L50.095 20.1443C49.5393 20.0351 49.1163 19.9176 48.8208 19.7936L48.7594 19.94ZM50.0644 20.3L50.0338 20.4557C50.5986 20.5667 51.198 20.6573 51.8319 20.7277L51.8494 20.57L51.8669 20.4123C51.2408 20.3427 50.6502 20.2533 50.095 20.1443L50.0644 20.3ZM51.8494 20.57L52.0072 20.5866C52.0473 20.206 52.0873 19.8055 52.1274 19.385L51.9694 19.37L51.8114 19.355C51.7715 19.7745 51.7315 20.174 51.6916 20.5534L51.8494 20.57ZM51.9694 19.37L52.127 19.3888C52.1771 18.9677 52.2222 18.5516 52.2623 18.1404L52.1044 18.125L51.9464 18.1096C51.9066 18.5184 51.8617 18.9323 51.8118 19.3512L51.9694 19.37ZM52.1044 18.125L52.1272 17.968C51.5788 17.8882 51.0556 17.8035 50.5575 17.7138L50.5294 17.87L50.5013 18.0262C51.0032 18.1165 51.5299 18.2018 52.0815 18.282L52.1044 18.125ZM50.5294 17.87L50.5581 17.7139C50.0694 17.6242 49.6994 17.5451 49.4456 17.4768L49.4044 17.63L49.3631 17.7832C49.6294 17.8549 50.0094 17.9358 50.5007 18.0261L50.5294 17.87ZM49.4044 17.63L49.5608 17.6567L49.7858 16.3367L49.6294 16.31L49.4729 16.2833L49.2479 17.6033L49.4044 17.63ZM49.6294 16.31L49.5716 16.4578C49.8144 16.5528 50.18 16.65 50.662 16.7504L50.6944 16.595L50.7268 16.4396C50.2487 16.34 49.9044 16.2472 49.6872 16.1622L49.6294 16.31ZM50.6944 16.595L50.6651 16.751C51.1475 16.8414 51.6647 16.9268 52.2165 17.007L52.2394 16.85L52.2622 16.693C51.7141 16.6132 51.2012 16.5286 50.7236 16.439L50.6944 16.595ZM52.2394 16.85L52.3969 16.8694C52.4771 16.2181 52.5422 15.6215 52.5924 15.0796L52.4344 15.065L52.2764 15.0504C52.2265 15.5885 52.1617 16.1819 52.0819 16.8306L52.2394 16.85ZM52.4344 15.065L52.5921 15.0825C52.6522 14.542 52.6925 14.1295 52.7127 13.8463L52.5544 13.835L52.3961 13.8237C52.3763 14.1005 52.3366 14.508 52.2767 15.0475L52.4344 15.065ZM52.5544 13.835L52.5301 13.9918L53.9851 14.2168L54.0094 14.06L54.0336 13.9032L52.5786 13.6782L52.5544 13.835ZM54.0094 14.06L53.854 14.0278C53.7931 14.322 53.7226 14.7353 53.6425 15.2663L53.7994 15.29L53.9563 15.3137C54.0362 14.7846 54.1057 14.378 54.1648 14.0922L54.0094 14.06ZM53.7994 15.29L53.6421 15.2688C53.572 15.7893 53.497 16.3647 53.417 16.995L53.5744 17.015L53.7318 17.035C53.8118 16.4053 53.8867 15.8307 53.9567 15.3112L53.7994 15.29ZM53.5744 17.015L53.5573 17.1728C53.9292 17.213 54.2715 17.2432 54.5842 17.2634L54.5944 17.105L54.6046 16.9466C54.2973 16.9268 53.9596 16.897 53.5914 16.8572L53.5744 17.015ZM54.5944 17.105L54.5842 17.2634C54.897 17.2836 55.1539 17.2889 55.3527 17.2785L55.3444 17.12L55.336 16.9615C55.1549 16.9711 54.9118 16.9664 54.6046 16.9466L54.5944 17.105ZM55.3444 17.12L55.1874 17.0965L54.9924 18.4015L55.1494 18.425L55.3063 18.4485L55.5013 17.1435L55.3444 17.12ZM55.1494 18.425V18.2663C54.9643 18.2663 54.7232 18.2565 54.4249 18.2367L54.4144 18.395L54.4038 18.5533C54.7056 18.5735 54.9545 18.5837 55.1494 18.5837V18.425ZM54.4144 18.395L54.4302 18.2371C54.1309 18.2072 53.8014 18.1722 53.4419 18.1323L53.4244 18.29L53.4069 18.4477C53.7673 18.4878 54.0979 18.5228 54.3986 18.5529L54.4144 18.395ZM53.4244 18.29L53.2665 18.2742C53.2266 18.673 53.1817 19.0769 53.1319 19.4858L53.2894 19.505L53.4469 19.5242C53.4971 19.1131 53.5422 18.707 53.5823 18.3058L53.4244 18.29ZM53.2894 19.505L53.1314 19.4896C53.0913 19.9006 53.0562 20.3017 53.0262 20.6928L53.1844 20.705L53.3426 20.7172C53.3725 20.3283 53.4074 19.9294 53.4473 19.5204L53.2894 19.505ZM53.1844 20.705L53.1768 20.8635C53.5977 20.8836 53.9888 20.8986 54.35 20.9086L54.3544 20.75L54.3588 20.5914C54 20.5814 53.6111 20.5664 53.1919 20.5465L53.1844 20.705ZM54.3544 20.75V20.9087C54.7267 20.9087 55.0365 20.8987 55.2826 20.8781L55.2694 20.72L55.2562 20.5618C55.0223 20.5813 54.7221 20.5913 54.3544 20.5913V20.75ZM55.2694 20.72L55.1115 20.7037L54.9765 22.0087L55.1344 22.025L55.2922 22.0413L55.4272 20.7363L55.2694 20.72ZM55.1344 22.025L55.1262 21.8665C54.5548 21.8961 53.8819 21.8814 53.1066 21.8218L53.0944 21.98L53.0822 22.1382C53.8668 22.1986 54.5539 22.2139 55.1426 22.1835L55.1344 22.025ZM53.0944 21.98L52.936 21.9703C52.9059 22.4624 52.8907 22.8858 52.8907 23.24H53.0494H53.2081C53.2081 22.8942 53.2229 22.4776 53.2528 21.9897L53.0944 21.98ZM53.0494 23.24H52.8907C52.8907 23.9529 53.0611 24.5188 53.4289 24.9089L53.5444 24.8L53.6599 24.6911C53.3677 24.3812 53.2081 23.9071 53.2081 23.24H53.0494ZM53.5444 24.8L53.4305 24.9105C53.8036 25.2949 54.39 25.4687 55.1494 25.4687V25.31V25.1513C54.4288 25.1513 53.9452 24.9851 53.6583 24.6895L53.5444 24.8ZM55.1494 25.31V25.4687C55.8848 25.4687 56.4814 25.2872 56.9189 24.9044L56.8144 24.785L56.7099 24.6656C56.3473 24.9828 55.834 25.1513 55.1494 25.1513V25.31ZM56.8144 24.785L56.9174 24.9057C57.37 24.5194 57.5881 23.971 57.5881 23.285H57.4294H57.2707C57.2707 23.899 57.0788 24.3507 56.7114 24.6643L56.8144 24.785ZM57.4294 23.285H57.5881C57.5881 22.7212 57.4125 22.1393 57.0723 21.5415L56.9344 21.62L56.7965 21.6985C57.1163 22.2607 57.2707 22.7888 57.2707 23.285H57.4294ZM56.9344 21.62L57.0729 21.5425C56.7285 20.9268 56.2191 20.4037 55.5505 19.9717L55.4644 20.105L55.3783 20.2383C56.0097 20.6463 56.4803 21.1332 56.7959 21.6975L56.9344 21.62ZM55.4644 20.105L55.4941 20.2609C55.7168 20.2185 55.9524 20.1448 56.2004 20.0415L56.1394 19.895L56.0784 19.7485C55.8464 19.8452 55.6319 19.9115 55.4347 19.9491L55.4644 20.105ZM56.1394 19.895L56.2055 20.0393C56.4507 19.9269 56.6432 19.8138 56.7711 19.6974L56.6644 19.58L56.5576 19.4626C56.4656 19.5462 56.308 19.6431 56.0733 19.7507L56.1394 19.895ZM56.6644 19.58L56.5715 19.7087C57.2752 20.2169 57.7977 20.7946 58.1446 21.4401L58.2844 21.365L58.4242 21.2899C58.0511 20.5954 57.4935 19.9831 56.7573 19.4513L56.6644 19.58ZM58.2844 21.365L58.146 21.4426C58.5049 22.0828 58.6807 22.7113 58.6807 23.33H58.8394H58.9981C58.9981 22.6487 58.8039 21.9672 58.4228 21.2874L58.2844 21.365ZM58.8394 23.33H58.6807C58.6807 23.9851 58.5317 24.5507 58.2388 25.0326L58.3744 25.115L58.51 25.1974C58.8371 24.6593 58.9981 24.0349 58.9981 23.33H58.8394ZM58.3744 25.115L58.2395 25.0314C57.9459 25.505 57.5389 25.8701 57.0145 26.1275L57.0844 26.27L57.1543 26.4125C57.7299 26.1299 58.1829 25.725 58.5093 25.1986L58.3744 25.115ZM57.0844 26.27L57.0124 26.1286C56.4887 26.3952 55.8693 26.5313 55.1494 26.5313V26.69V26.8487C55.9095 26.8487 56.5801 26.7048 57.1564 26.4114L57.0844 26.27ZM68.0194 25.58L67.8688 25.6302L67.9106 25.7553L68.0412 25.7372L68.0194 25.58ZM67.7794 24.98L67.6338 25.0433L67.6349 25.0457L67.7794 24.98ZM67.4644 24.395L67.4497 24.237L67.1803 24.262L67.3336 24.4849L67.4644 24.395ZM69.9844 23.945L69.9394 23.7928V23.7928L69.9844 23.945ZM71.6194 23.105L71.7269 23.2217L71.7285 23.2202L71.6194 23.105ZM72.1594 21.8L72.0008 21.8058L72.0008 21.8062L72.1594 21.8ZM69.6994 20.255L69.7042 20.4136L69.7063 20.4135L69.6994 20.255ZM68.5144 20.39L68.5383 20.5469L68.5416 20.5464L68.5144 20.39ZM67.0744 20.675L67.1085 20.83L67.1114 20.8293L67.0744 20.675ZM65.6644 21.035L65.7062 21.1881L65.7094 21.1872L65.6644 21.035ZM64.5694 21.38H64.4107V21.6099L64.6257 21.5284L64.5694 21.38ZM64.4944 21.185L64.3479 21.246V21.246L64.4944 21.185ZM64.3294 20.78L64.1808 20.8357L64.182 20.8389L64.3294 20.78ZM64.1644 20.36L64.0179 20.421V20.421L64.1644 20.36ZM64.0744 20.165L64.0422 20.0096L63.7542 20.0692L63.9622 20.2772L64.0744 20.165ZM65.2294 19.925L65.2618 20.0804L65.2642 20.0798L65.2294 19.925ZM66.7894 19.595L66.8205 19.7506V19.7506L66.7894 19.595ZM68.3794 19.31L68.404 19.4668V19.4668L68.3794 19.31ZM69.6544 19.175L69.6591 19.3336L69.6608 19.3336L69.6544 19.175ZM72.3994 19.805L72.3015 19.93L72.3038 19.9317L72.3994 19.805ZM73.3744 21.755L73.533 21.7487L73.5329 21.7475L73.3744 21.755ZM72.7444 23.675L72.6244 23.5712L72.6242 23.5713L72.7444 23.675ZM70.8544 24.905L70.9095 25.0538L70.9105 25.0534L70.8544 24.905ZM68.0194 25.58L68.1699 25.5298C68.1078 25.3434 68.0256 25.1381 67.9239 24.9143L67.7794 24.98L67.6349 25.0457C67.7332 25.2619 67.811 25.4566 67.8688 25.6302L68.0194 25.58ZM67.7794 24.98L67.9249 24.9167C67.822 24.6799 67.7123 24.4755 67.5952 24.3051L67.4644 24.395L67.3336 24.4849C67.4365 24.6345 67.5368 24.8201 67.6339 25.0433L67.7794 24.98ZM67.4644 24.395L67.4791 24.553C68.4563 24.4623 69.307 24.3109 70.0294 24.0972L69.9844 23.945L69.9394 23.7928C69.2418 23.9991 68.4125 24.1477 67.4497 24.237L67.4644 24.395ZM69.9844 23.945L70.0294 24.0972C70.7533 23.8831 71.323 23.5937 71.7269 23.2217L71.6194 23.105L71.5119 22.9883C71.1557 23.3163 70.6355 23.5869 69.9394 23.7928L69.9844 23.945ZM71.6194 23.105L71.7285 23.2202C72.1408 22.8297 72.3398 22.3508 72.318 21.7938L72.1594 21.8L72.0008 21.8062C72.019 22.2692 71.858 22.6603 71.5102 22.9898L71.6194 23.105ZM72.1594 21.8L72.318 21.7942C72.2964 21.2001 72.0599 20.744 71.5988 20.4544C71.1489 20.1718 70.5056 20.0609 69.6925 20.0965L69.6994 20.255L69.7063 20.4135C70.4932 20.3791 71.0599 20.4907 71.43 20.7231C71.7888 20.9485 71.9824 21.2999 72.0008 21.8058L72.1594 21.8ZM69.6994 20.255L69.6946 20.0964C69.3547 20.1067 68.9518 20.1528 68.4872 20.2336L68.5144 20.39L68.5416 20.5464C68.997 20.4672 69.3841 20.4233 69.7042 20.4136L69.6994 20.255ZM68.5144 20.39L68.4905 20.2331C68.0257 20.3038 67.5413 20.3997 67.0374 20.5207L67.0744 20.675L67.1114 20.8293C67.6075 20.7103 68.0831 20.6162 68.5383 20.5469L68.5144 20.39ZM67.0744 20.675L67.0403 20.52C66.537 20.6307 66.0634 20.7516 65.6194 20.8828L65.6644 21.035L65.7094 21.1872C66.1454 21.0584 66.6117 20.9393 67.1085 20.83L67.0744 20.675ZM65.6644 21.035L65.6226 20.8819C65.1798 21.0027 64.8095 21.1192 64.5131 21.2316L64.5694 21.38L64.6257 21.5284C64.9093 21.4208 65.269 21.3073 65.7061 21.1881L65.6644 21.035ZM64.5694 21.38H64.7281C64.7281 21.356 64.7224 21.3358 64.7217 21.3333C64.7197 21.3257 64.7173 21.3182 64.7153 21.312C64.711 21.2993 64.7053 21.2839 64.6988 21.2668C64.6855 21.2322 64.6661 21.1844 64.6409 21.124L64.4944 21.185L64.3479 21.246C64.3727 21.3056 64.3908 21.3503 64.4025 21.3807C64.4084 21.3961 64.4121 21.4064 64.4141 21.4124C64.4152 21.4155 64.4152 21.4157 64.4147 21.4141C64.4145 21.4132 64.4138 21.4104 64.4131 21.4064C64.4125 21.4036 64.4107 21.3935 64.4107 21.38H64.5694ZM64.4944 21.185L64.6409 21.124C64.5912 21.0048 64.5365 20.8705 64.4767 20.7211L64.3294 20.78L64.182 20.8389C64.2423 20.9895 64.2975 21.1252 64.3479 21.246L64.4944 21.185ZM64.3294 20.78L64.478 20.7243C64.4175 20.563 64.3618 20.4212 64.3109 20.299L64.1644 20.36L64.0179 20.421C64.067 20.5388 64.1213 20.677 64.1808 20.8357L64.3294 20.78ZM64.1644 20.36L64.3109 20.299C64.2856 20.2383 64.2647 20.1899 64.2485 20.1547C64.2404 20.1373 64.2327 20.1214 64.2257 20.1081C64.2226 20.1025 64.2086 20.0748 64.1866 20.0528L64.0744 20.165L63.9622 20.2772C63.9553 20.2704 63.9508 20.2645 63.949 20.262C63.9468 20.259 63.9454 20.2569 63.9449 20.2561C63.9439 20.2546 63.9441 20.2547 63.9456 20.2575C63.9485 20.263 63.9533 20.2727 63.9603 20.2878C63.9741 20.3176 63.9932 20.3617 64.0179 20.421L64.1644 20.36ZM64.0744 20.165L64.1065 20.3204C64.3966 20.2604 64.7817 20.1804 65.2618 20.0804L65.2294 19.925L65.197 19.7696C64.7171 19.8696 64.3321 19.9496 64.0422 20.0096L64.0744 20.165ZM65.2294 19.925L65.2642 20.0798C65.7528 19.9701 66.2716 19.8604 66.8205 19.7506L66.7894 19.595L66.7583 19.4394C66.2072 19.5496 65.686 19.6599 65.1946 19.7702L65.2294 19.925ZM66.7894 19.595L66.8205 19.7506C67.3685 19.641 67.8963 19.5464 68.404 19.4668L68.3794 19.31L68.3548 19.1532C67.8424 19.2336 67.3103 19.329 66.7583 19.4394L66.7894 19.595ZM68.3794 19.31L68.404 19.4668C68.9104 19.3873 69.3282 19.3434 69.6591 19.3336L69.6544 19.175L69.6497 19.0164C69.3006 19.0266 68.8684 19.0727 68.3548 19.1532L68.3794 19.31ZM69.6544 19.175L69.6608 19.3336C70.8749 19.2842 71.7447 19.4938 72.3015 19.9299L72.3994 19.805L72.4973 19.6801C71.8541 19.1762 70.8939 18.9658 69.6479 19.0164L69.6544 19.175ZM72.3994 19.805L72.3038 19.9317C72.8721 20.3602 73.1779 20.9643 73.2159 21.7625L73.3744 21.755L73.5329 21.7475C73.4909 20.8657 73.1467 20.1698 72.4949 19.6783L72.3994 19.805ZM73.3744 21.755L73.2158 21.7613C73.2444 22.4856 73.0451 23.085 72.6244 23.5712L72.7444 23.675L72.8644 23.7788C73.3437 23.225 73.5644 22.5444 73.533 21.7487L73.3744 21.755ZM72.7444 23.675L72.6242 23.5713C72.2059 24.0562 71.6008 24.4532 70.7983 24.7566L70.8544 24.905L70.9105 25.0534C71.748 24.7368 72.4028 24.3138 72.8645 23.7787L72.7444 23.675ZM70.8544 24.905L70.7993 24.7562C70.0024 25.0513 69.069 25.274 67.9976 25.4228L68.0194 25.58L68.0412 25.7372C69.1298 25.586 70.0864 25.3587 70.9095 25.0538L70.8544 24.905ZM88.1194 25.925L88.1472 26.0812L88.2781 26.058V25.925H88.1194ZM85.4944 26.255L85.5056 26.4133V26.4133L85.4944 26.255ZM83.1094 26.24L83.1243 26.082V26.082L83.1094 26.24ZM81.1594 25.805L81.0991 25.9518L81.1014 25.9527L81.1594 25.805ZM79.8394 24.845L79.7128 24.9407L79.7143 24.9426L79.8394 24.845ZM80.3044 21.2L80.1959 21.0842L80.195 21.085L80.3044 21.2ZM82.7944 19.67L82.8555 19.8164L83.006 19.7536L82.9391 19.6049L82.7944 19.67ZM82.2094 17.33L82.0519 17.3495L82.0519 17.3497L82.2094 17.33ZM82.0894 13.97V13.8113H81.9356L81.9308 13.965L82.0894 13.97ZM83.5894 13.97L83.7473 13.9861L83.765 13.8113H83.5894V13.97ZM83.5144 15.845L83.3557 15.8474L83.3558 15.8499L83.5144 15.845ZM83.6794 17.705L83.5225 17.7289L83.5226 17.7293L83.6794 17.705ZM84.0394 19.19L83.8904 19.2445L83.9436 19.3902L84.0905 19.3403L84.0394 19.19ZM85.5994 18.71L85.6419 18.8629L85.6437 18.8624L85.5994 18.71ZM87.2794 18.26L87.4344 18.2261L87.3996 18.0671L87.2415 18.1059L87.2794 18.26ZM87.5944 19.7L87.6154 19.8573L87.7863 19.8345L87.7494 19.6661L87.5944 19.7ZM85.0144 20.24L85.0573 20.3928L85.059 20.3923L85.0144 20.24ZM82.8394 21.065L82.9095 21.2074L82.9113 21.2065L82.8394 21.065ZM81.3394 22.085L81.2272 21.9728L81.2256 21.9743L81.3394 22.085ZM81.3994 24.335L81.3083 24.4651L81.3121 24.4675L81.3994 24.335ZM83.0644 24.875L83.0442 25.0324L83.0444 25.0324L83.0644 24.875ZM85.4794 24.89L85.4655 24.7319L85.4653 24.7319L85.4794 24.89ZM88.3444 24.41L88.4933 24.4649L88.5959 24.1864L88.3074 24.2557L88.3444 24.41ZM88.1794 25.16L88.3367 25.181L88.3368 25.1803L88.1794 25.16ZM88.1194 25.925L88.0916 25.7688C87.1967 25.9278 86.3273 26.0371 85.4832 26.0967L85.4944 26.255L85.5056 26.4133C86.3615 26.3529 87.2421 26.2422 88.1472 26.0812L88.1194 25.925ZM85.4944 26.255L85.4832 26.0967C84.6407 26.1562 83.8545 26.1511 83.1243 26.082L83.1094 26.24L83.0944 26.398C83.8443 26.4689 84.6481 26.4738 85.5056 26.4133L85.4944 26.255ZM83.1094 26.24L83.1243 26.082C82.3958 26.0131 81.7608 25.8708 81.2174 25.6573L81.1594 25.805L81.1014 25.9527C81.678 26.1792 82.343 26.3269 83.0944 26.398L83.1094 26.24ZM81.1594 25.805L81.2197 25.6582C80.681 25.4369 80.2649 25.1323 79.9645 24.7474L79.8394 24.845L79.7143 24.9426C80.0539 25.3777 80.5178 25.7131 81.0991 25.9518L81.1594 25.805ZM79.8394 24.845L79.966 24.7493C79.6812 24.3726 79.5331 23.8884 79.5331 23.285H79.3744H79.2157C79.2157 23.9416 79.3776 24.4974 79.7128 24.9407L79.8394 24.845ZM79.3744 23.285H79.5331C79.5331 22.5317 79.8228 21.8773 80.4138 21.315L80.3044 21.2L80.195 21.085C79.546 21.7027 79.2157 22.4383 79.2157 23.285H79.3744ZM80.3044 21.2L80.4129 21.3158C81.0257 20.742 81.8381 20.2412 82.8555 19.8164L82.7944 19.67L82.7332 19.5236C81.6906 19.9588 80.8431 20.478 80.1959 21.0842L80.3044 21.2ZM82.7944 19.67L82.9391 19.6049C82.6779 19.0244 82.4857 18.2613 82.3669 17.3103L82.2094 17.33L82.0519 17.3497C82.173 18.3187 82.3709 19.1156 82.6497 19.7351L82.7944 19.67ZM82.2094 17.33L82.3669 17.3105C82.2481 16.3506 82.2082 15.2391 82.248 13.975L82.0894 13.97L81.9308 13.965C81.8906 15.2409 81.9306 16.3694 82.0519 17.3495L82.2094 17.33ZM82.0894 13.97V14.1287H83.5894V13.97V13.8113H82.0894V13.97ZM83.5894 13.97L83.4315 13.9539C83.3708 14.5507 83.3456 15.1819 83.3557 15.8474L83.5144 15.845L83.6731 15.8426C83.6632 15.1881 83.688 14.5693 83.7473 13.9861L83.5894 13.97ZM83.5144 15.845L83.3558 15.8499C83.3759 16.5057 83.4315 17.1321 83.5225 17.7289L83.6794 17.705L83.8363 17.6811C83.7473 17.0979 83.6928 16.4843 83.673 15.8401L83.5144 15.845ZM83.6794 17.705L83.5226 17.7293C83.6137 18.3164 83.7358 18.8221 83.8904 19.2445L84.0394 19.19L84.1884 19.1355C84.043 18.7379 83.9251 18.2536 83.8362 17.6807L83.6794 17.705ZM84.0394 19.19L84.0905 19.3403C84.5875 19.1713 85.1046 19.0122 85.6419 18.8629L85.5994 18.71L85.5569 18.5571C85.0142 18.7078 84.4913 18.8687 83.9883 19.0397L84.0394 19.19ZM85.5994 18.71L85.6437 18.8624C86.1915 18.703 86.7494 18.5536 87.3172 18.4141L87.2794 18.26L87.2415 18.1059C86.6694 18.2464 86.1073 18.397 85.5551 18.5576L85.5994 18.71ZM87.2794 18.26L87.1244 18.2939L87.4394 19.7339L87.5944 19.7L87.7494 19.6661L87.4344 18.2261L87.2794 18.26ZM87.5944 19.7L87.5734 19.5427C86.6659 19.6637 85.798 19.8453 84.9698 20.0877L85.0144 20.24L85.059 20.3923C85.8708 20.1547 86.7229 19.9763 87.6154 19.8573L87.5944 19.7ZM85.0144 20.24L84.9715 20.0872C84.1435 20.3195 83.4085 20.598 82.7675 20.9235L82.8394 21.065L82.9113 21.2065C83.5303 20.892 84.2453 20.6205 85.0573 20.3928L85.0144 20.24ZM82.8394 21.065L82.7693 20.9226C82.1287 21.2378 81.6129 21.5871 81.2272 21.9728L81.3394 22.085L81.4516 22.1972C81.8059 21.8429 82.2901 21.5122 82.9095 21.2074L82.8394 21.065ZM81.3394 22.085L81.2256 21.9743C80.8474 22.3631 80.6407 22.7757 80.6407 23.21H80.7994H80.9581C80.9581 22.8843 81.1114 22.5469 81.4531 22.1957L81.3394 22.085ZM80.7994 23.21H80.6407C80.6407 23.7341 80.8679 24.1567 81.3084 24.465L81.3994 24.335L81.4904 24.205C81.1309 23.9533 80.9581 23.6259 80.9581 23.21H80.7994ZM81.3994 24.335L81.3121 24.4675C81.7491 24.7553 82.3299 24.9406 83.0442 25.0324L83.0644 24.875L83.0846 24.7176C82.3988 24.6294 81.8697 24.4547 81.4867 24.2025L81.3994 24.335ZM83.0644 24.875L83.0444 25.0324C83.7682 25.1242 84.5849 25.1288 85.4934 25.0481L85.4794 24.89L85.4653 24.7319C84.5739 24.8112 83.7806 24.8058 83.0843 24.7176L83.0644 24.875ZM85.4794 24.89L85.4933 25.0481C86.412 24.9673 87.3747 24.8059 88.3814 24.5643L88.3444 24.41L88.3074 24.2557C87.314 24.4941 86.3668 24.6527 85.4655 24.7319L85.4794 24.89ZM88.3444 24.41L88.1955 24.3551C88.1198 24.5606 88.0628 24.8235 88.022 25.1397L88.1794 25.16L88.3368 25.1803C88.376 24.8765 88.429 24.6394 88.4933 24.4649L88.3444 24.41ZM88.1794 25.16L88.0221 25.139C87.9815 25.4432 87.9607 25.7057 87.9607 25.925H88.1194H88.2781C88.2781 25.7243 88.2973 25.4768 88.3367 25.181L88.1794 25.16ZM92.4844 27.185L92.3313 27.2268L92.3687 27.364L92.5092 27.3417L92.4844 27.185ZM92.3194 26.765L92.1739 26.8286L92.1758 26.8326L92.3194 26.765ZM92.0944 26.285L92.2364 26.214L92.2344 26.2103L92.0944 26.285ZM91.8694 25.94L91.8573 25.7818L91.5411 25.8058L91.75 26.0445L91.8694 25.94ZM94.3144 25.34L94.3813 25.4839L94.3144 25.34ZM96.0244 24.05L96.1476 24.15L96.1485 24.1489L96.0244 24.05ZM96.7894 22.265L96.9469 22.2844L96.9688 22.1063H96.7894V22.265ZM94.5394 22.265H94.3807V22.4237H94.5394V22.265ZM94.5394 13.91V13.7513H94.3807V13.91H94.5394ZM103.149 13.91H103.308V13.7513H103.149V13.91ZM103.149 22.265V22.4237H103.308V22.265H103.149ZM100.929 22.265V22.1063H100.771V22.265H100.929ZM101.034 25.415L100.922 25.5275L100.93 25.5344L101.034 25.415ZM104.049 25.385L103.975 25.2447L103.972 25.2467L104.049 25.385ZM104.424 24.86L104.274 24.8081L104.273 24.8133L104.424 24.86ZM104.619 23.705L104.697 23.5667L104.481 23.4449L104.461 23.6926L104.619 23.705ZM105.264 23.99L105.209 24.1389L105.214 24.1406L105.264 23.99ZM105.954 24.2L106.112 24.2187L106.128 24.0816L105.995 24.0465L105.954 24.2ZM105.564 25.91L105.709 25.9748L105.564 25.91ZM104.874 26.66L104.814 26.5133L104.809 26.5152L104.874 26.66ZM99.8344 26.585L99.9322 26.46L99.9314 26.4594L99.8344 26.585ZM99.5044 22.265H99.6631V22.1063H99.5044V22.265ZM98.1994 22.265V22.1063H98.0532L98.0412 22.252L98.1994 22.265ZM96.6394 25.43L96.7478 25.5459L96.7485 25.5452L96.6394 25.43ZM95.9644 16.43H95.8057V16.5887H95.9644V16.43ZM101.709 16.43V16.5887H101.868V16.43H101.709ZM101.709 15.11H101.868V14.9513H101.709V15.11ZM95.9644 15.11V14.9513H95.8057V15.11H95.9644ZM95.9644 21.05H95.8057V21.2087H95.9644V21.05ZM101.709 21.05V21.2087H101.868V21.05H101.709ZM101.709 19.745H101.868V19.5863H101.709V19.745ZM95.9644 19.745V19.5863H95.8057V19.745H95.9644ZM95.9644 18.74H95.8057V18.8987H95.9644V18.74ZM101.709 18.74V18.8987H101.868V18.74H101.709ZM101.709 17.435H101.868V17.2763H101.709V17.435ZM95.9644 17.435V17.2763H95.8057V17.435H95.9644ZM92.4844 27.185L92.6375 27.1432C92.604 27.0206 92.5447 26.8711 92.463 26.6974L92.3194 26.765L92.1758 26.8326C92.254 26.9988 92.3047 27.1294 92.3313 27.2268L92.4844 27.185ZM92.3194 26.765L92.4648 26.7014C92.3937 26.5388 92.3175 26.3764 92.2363 26.214L92.0944 26.285L91.9524 26.356C92.0313 26.5136 92.1051 26.6712 92.174 26.8286L92.3194 26.765ZM92.0944 26.285L92.2344 26.2103C92.1517 26.0552 92.0701 25.9284 91.9888 25.8355L91.8694 25.94L91.75 26.0445C91.8087 26.1116 91.8771 26.2148 91.9544 26.3597L92.0944 26.285ZM91.8694 25.94L91.8814 26.0982C92.8171 26.027 93.6512 25.8232 94.3813 25.4839L94.3144 25.34L94.2475 25.1961C93.5576 25.5168 92.7617 25.713 91.8573 25.7818L91.8694 25.94ZM94.3144 25.34L94.3813 25.4839C95.1099 25.1452 95.7003 24.7013 96.1476 24.15L96.0244 24.05L95.9011 23.95C95.4884 24.4587 94.9388 24.8748 94.2475 25.1961L94.3144 25.34ZM96.0244 24.05L96.1485 24.1489C96.5957 23.5872 96.8631 22.965 96.9469 22.2844L96.7894 22.265L96.6319 22.2456C96.5557 22.865 96.313 23.4328 95.9002 23.9511L96.0244 24.05ZM96.7894 22.265V22.1063H94.5394V22.265V22.4237H96.7894V22.265ZM94.5394 22.265H94.6981V13.91H94.5394H94.3807V22.265H94.5394ZM94.5394 13.91V14.0687H103.149V13.91V13.7513H94.5394V13.91ZM103.149 13.91H102.991V22.265H103.149H103.308V13.91H103.149ZM103.149 22.265V22.1063H100.929V22.265V22.4237H103.149V22.265ZM100.929 22.265H100.771V25.07H100.929H101.088V22.265H100.929ZM100.929 25.07H100.771C100.771 25.2472 100.809 25.4136 100.922 25.5272L101.034 25.415L101.147 25.3028C101.12 25.2764 101.088 25.2128 101.088 25.07H100.929ZM101.034 25.415L100.93 25.5344C100.998 25.5941 101.087 25.6284 101.18 25.6488C101.275 25.6696 101.388 25.6787 101.514 25.6787V25.52V25.3613C101.401 25.3613 101.313 25.3529 101.248 25.3387C101.182 25.3241 101.151 25.3059 101.139 25.2956L101.034 25.415ZM101.514 25.52V25.6787H103.389V25.52V25.3613H101.514V25.52ZM103.389 25.52V25.6787C103.684 25.6787 103.934 25.6319 104.127 25.5233L104.049 25.385L103.972 25.2467C103.845 25.3181 103.655 25.3613 103.389 25.3613V25.52ZM104.049 25.385L104.124 25.5253C104.344 25.4086 104.489 25.1901 104.576 24.9067L104.424 24.86L104.273 24.8133C104.2 25.0499 104.095 25.1814 103.975 25.2447L104.049 25.385ZM104.424 24.86L104.574 24.9119C104.671 24.6326 104.737 24.2315 104.778 23.7174L104.619 23.705L104.461 23.6926C104.421 24.1985 104.358 24.5674 104.274 24.8081L104.424 24.86ZM104.619 23.705L104.542 23.8433C104.712 23.939 104.935 24.0374 105.209 24.1388L105.264 23.99L105.32 23.8412C105.053 23.7426 104.847 23.651 104.697 23.5667L104.619 23.705ZM105.264 23.99L105.214 24.1406C105.486 24.2312 105.72 24.3023 105.914 24.3535L105.954 24.2L105.995 24.0465C105.809 23.9977 105.583 23.9288 105.315 23.8394L105.264 23.99ZM105.954 24.2L105.797 24.1813C105.707 24.9364 105.58 25.4873 105.42 25.8452L105.564 25.91L105.709 25.9748C105.889 25.5727 106.021 24.9836 106.112 24.2187L105.954 24.2ZM105.564 25.91L105.42 25.8452C105.261 26.2006 105.055 26.4134 104.814 26.5134L104.874 26.66L104.935 26.8066C105.273 26.6666 105.528 26.3794 105.709 25.9748L105.564 25.91ZM104.874 26.66L104.809 26.5152C104.547 26.6329 104.196 26.6963 103.749 26.6963V26.855V27.0137C104.223 27.0137 104.622 26.9471 104.939 26.8048L104.874 26.66ZM103.749 26.855V26.6963H101.019V26.855V27.0137H103.749V26.855ZM101.019 26.855V26.6963C100.467 26.6963 100.118 26.6056 99.9322 26.46L99.8344 26.585L99.7366 26.71C100.011 26.9244 100.452 27.0137 101.019 27.0137V26.855ZM99.8344 26.585L99.9314 26.4594C99.7661 26.3317 99.6631 26.1001 99.6631 25.715H99.5044H99.3457C99.3457 26.1499 99.4626 26.4983 99.7374 26.7106L99.8344 26.585ZM99.5044 25.715H99.6631V22.265H99.5044H99.3457V25.715H99.5044ZM99.5044 22.265V22.1063H98.1994V22.265V22.4237H99.5044V22.265ZM98.1994 22.265L98.0412 22.252C97.9446 23.4307 97.4437 24.45 96.5303 25.3148L96.6394 25.43L96.7485 25.5452C97.7151 24.63 98.2542 23.5393 98.3576 22.278L98.1994 22.265ZM96.6394 25.43L96.5309 25.3141C95.6222 26.1649 94.2714 26.7411 92.4595 27.0283L92.4844 27.185L92.5092 27.3417C94.3574 27.0489 95.7766 26.4551 96.7478 25.5459L96.6394 25.43ZM95.9644 16.43V16.5887H101.709V16.43V16.2713H95.9644V16.43ZM101.709 16.43H101.868V15.11H101.709H101.551V16.43H101.709ZM101.709 15.11V14.9513H95.9644V15.11V15.2687H101.709V15.11ZM95.9644 15.11H95.8057V16.43H95.9644H96.1231V15.11H95.9644ZM95.9644 21.05V21.2087H101.709V21.05V20.8913H95.9644V21.05ZM101.709 21.05H101.868V19.745H101.709H101.551V21.05H101.709ZM101.709 19.745V19.5863H95.9644V19.745V19.9037H101.709V19.745ZM95.9644 19.745H95.8057V21.05H95.9644H96.1231V19.745H95.9644ZM95.9644 18.74V18.8987H101.709V18.74V18.5813H95.9644V18.74ZM101.709 18.74H101.868V17.435H101.709H101.551V18.74H101.709ZM101.709 17.435V17.2763H95.9644V17.435V17.5937H101.709V17.435ZM95.9644 17.435H95.8057V18.74H95.9644H96.1231V17.435H95.9644ZM111.819 25.64L111.721 25.7646L111.722 25.7655L111.819 25.64ZM111.324 23.15L111.195 23.0587V23.0587L111.324 23.15ZM112.074 22.535L112.14 22.6796V22.6796L112.074 22.535ZM114.669 23.015L114.552 23.122L114.555 23.1246L114.669 23.015ZM115.434 24.74L115.277 24.758L115.299 24.9524L115.485 24.8906L115.434 24.74ZM116.649 23.93L116.769 24.0341L116.771 24.0325L116.649 23.93ZM116.814 21.23L116.678 21.3117L116.68 21.3145L116.814 21.23ZM115.929 20.405L116.003 20.2646V20.2646L115.929 20.405ZM111.339 21.23L111.236 21.1098L111.234 21.1114L111.339 21.23ZM110.619 21.845L110.719 21.9689L110.721 21.9669L110.619 21.845ZM109.779 22.49L109.663 22.5978L109.759 22.7015L109.873 22.6181L109.779 22.49ZM108.849 21.485L108.768 21.3487L108.6 21.449L108.733 21.5928L108.849 21.485ZM110.364 20.405L110.264 20.282V20.282L110.364 20.405ZM111.969 18.95L111.858 18.8367L111.857 18.8378L111.969 18.95ZM113.499 17.315L113.379 17.2117V17.2117L113.499 17.315ZM114.759 15.68L114.891 15.7692L115.12 15.4309L114.723 15.5256L114.759 15.68ZM113.319 15.98L113.345 16.1366L113.348 16.136L113.319 15.98ZM111.729 16.22L111.748 16.3776L111.751 16.3773L111.729 16.22ZM110.424 16.34L110.268 16.3684L110.293 16.5062L110.433 16.4985L110.424 16.34ZM110.184 15.02L110.19 14.8614L109.993 14.8541L110.028 15.0484L110.184 15.02ZM111.189 15.005L111.197 15.1635L111.201 15.1633L111.189 15.005ZM112.479 14.885L112.462 14.7272L112.462 14.7273L112.479 14.885ZM113.814 14.72L113.836 14.8772L113.839 14.8767L113.814 14.72ZM114.984 14.495L114.949 14.3403L114.948 14.3405L114.984 14.495ZM115.749 14.27L115.839 14.1388L115.766 14.0894L115.686 14.1246L115.749 14.27ZM116.784 14.975L116.926 15.0472L116.989 14.9226L116.874 14.8438L116.784 14.975ZM115.884 16.415L115.756 16.3218L115.756 16.3223L115.884 16.415ZM114.684 17.93L114.564 17.8263V17.8263L114.684 17.93ZM113.319 19.4L113.207 19.2878L113.388 19.5432L113.319 19.4ZM114.084 19.13L114.046 18.976V18.976L114.084 19.13ZM118.104 20.66L117.969 20.7424L117.97 20.7443L118.104 20.66ZM118.029 24.41L117.896 24.3246L117.895 24.3253L118.029 24.41ZM116.514 25.76L116.443 25.6185L116.442 25.6189L116.514 25.76ZM114.024 24.98L114.019 25.1387H114.024V24.98ZM114.204 24.98V25.1387H114.374L114.363 24.9692L114.204 24.98ZM113.844 23.9L113.717 23.9952V23.9952L113.844 23.9ZM112.524 23.645L112.621 23.7708L112.622 23.7698L112.524 23.645ZM112.719 24.71L112.636 24.8452V24.8452L112.719 24.71ZM114.279 26.255V26.0963C113.183 26.0963 112.406 25.8929 111.916 25.5145L111.819 25.64L111.722 25.7655C112.293 26.2071 113.155 26.4137 114.279 26.4137V26.255ZM111.819 25.64L111.918 25.5154C111.431 25.1319 111.198 24.6709 111.198 24.125H111.039H110.881C110.881 24.7791 111.167 25.3281 111.721 25.7646L111.819 25.64ZM111.039 24.125H111.198C111.198 23.7726 111.286 23.4807 111.454 23.2413L111.324 23.15L111.195 23.0587C110.983 23.3593 110.881 23.7174 110.881 24.125H111.039ZM111.324 23.15L111.454 23.2413C111.627 22.9953 111.855 22.8083 112.14 22.6796L112.074 22.535L112.009 22.3904C111.674 22.5417 111.401 22.7647 111.195 23.0587L111.324 23.15ZM112.074 22.535L112.14 22.6796C112.429 22.5489 112.732 22.4837 113.049 22.4837V22.325V22.1663C112.687 22.1663 112.34 22.2411 112.009 22.3904L112.074 22.535ZM113.049 22.325V22.4837C113.668 22.4837 114.164 22.6971 114.552 23.122L114.669 23.015L114.787 22.908C114.335 22.4129 113.751 22.1663 113.049 22.1663V22.325ZM114.669 23.015L114.555 23.1246C114.958 23.5463 115.2 24.0877 115.277 24.758L115.434 24.74L115.592 24.722C115.509 23.9923 115.241 23.3837 114.784 22.9054L114.669 23.015ZM115.434 24.74L115.485 24.8906C115.991 24.7216 116.42 24.4356 116.769 24.0341L116.649 23.93L116.53 23.8259C116.218 24.1844 115.837 24.4384 115.384 24.5894L115.434 24.74ZM116.649 23.93L116.771 24.0325C117.129 23.609 117.303 23.0757 117.303 22.445H117.144H116.986C116.986 23.0143 116.83 23.471 116.528 23.8275L116.649 23.93ZM117.144 22.445H117.303C117.303 21.9586 117.186 21.5236 116.949 21.1455L116.814 21.23L116.68 21.3145C116.882 21.6364 116.986 22.0114 116.986 22.445H117.144ZM116.814 21.23L116.95 21.1483C116.725 20.7721 116.408 20.4774 116.003 20.2646L115.929 20.405L115.855 20.5454C116.211 20.7326 116.484 20.9879 116.678 21.3116L116.814 21.23ZM115.929 20.405L116.003 20.2646C115.597 20.0507 115.131 19.9463 114.609 19.9463V20.105V20.2637C115.088 20.2637 115.502 20.3593 115.855 20.5454L115.929 20.405ZM114.609 20.105V19.9463C113.267 19.9463 112.139 20.3315 111.236 21.1098L111.339 21.23L111.443 21.3502C112.28 20.6285 113.332 20.2637 114.609 20.2637V20.105ZM111.339 21.23L111.234 21.1114C111.056 21.2698 110.817 21.4736 110.518 21.7231L110.619 21.845L110.721 21.9669C111.022 21.7164 111.263 21.5102 111.445 21.3486L111.339 21.23ZM110.619 21.845L110.52 21.7211C110.222 21.9599 109.944 22.1735 109.686 22.3619L109.779 22.49L109.873 22.6181C110.135 22.4265 110.417 22.2101 110.719 21.9689L110.619 21.845ZM109.779 22.49L109.896 22.3822L108.966 21.3772L108.849 21.485L108.733 21.5928L109.663 22.5978L109.779 22.49ZM108.849 21.485L108.931 21.6213C109.409 21.3365 109.92 20.9717 110.465 20.528L110.364 20.405L110.264 20.282C109.729 20.7183 109.23 21.0735 108.768 21.3487L108.849 21.485ZM110.364 20.405L110.465 20.528C111.009 20.0844 111.548 19.5957 112.082 19.0622L111.969 18.95L111.857 18.8378C111.331 19.3643 110.8 19.8456 110.264 20.282L110.364 20.405ZM111.969 18.95L112.081 19.0633C112.624 18.5302 113.137 17.9818 113.62 17.4183L113.499 17.315L113.379 17.2117C112.902 17.7682 112.395 18.3098 111.858 18.8367L111.969 18.95ZM113.499 17.315L113.62 17.4183C114.103 16.8544 114.527 16.3047 114.891 15.7692L114.759 15.68L114.628 15.5908C114.272 16.1153 113.856 16.6556 113.379 17.2117L113.499 17.315ZM114.759 15.68L114.723 15.5256C114.306 15.6249 113.829 15.7243 113.29 15.824L113.319 15.98L113.348 16.136C113.89 16.0357 114.373 15.9351 114.796 15.8344L114.759 15.68ZM113.319 15.98L113.293 15.8235C112.755 15.9132 112.227 15.993 111.708 16.0627L111.729 16.22L111.751 16.3773C112.272 16.307 112.804 16.2268 113.345 16.1365L113.319 15.98ZM111.729 16.22L111.711 16.0624C111.203 16.1222 110.771 16.1618 110.416 16.1815L110.424 16.34L110.433 16.4985C110.797 16.4782 111.236 16.4378 111.748 16.3776L111.729 16.22ZM110.424 16.34L110.581 16.3116L110.341 14.9916L110.184 15.02L110.028 15.0484L110.268 16.3684L110.424 16.34ZM110.184 15.02L110.179 15.1786C110.455 15.1888 110.795 15.1836 111.197 15.1635L111.189 15.005L111.181 14.8465C110.784 14.8664 110.454 14.8712 110.19 14.8614L110.184 15.02ZM111.189 15.005L111.201 15.1633C111.613 15.1331 112.045 15.0929 112.497 15.0427L112.479 14.885L112.462 14.7273C112.014 14.7771 111.586 14.8169 111.178 14.8467L111.189 15.005ZM112.479 14.885L112.497 15.0428C112.958 14.9926 113.405 14.9374 113.836 14.8772L113.814 14.72L113.792 14.5628C113.364 14.6226 112.921 14.6774 112.462 14.7272L112.479 14.885ZM113.814 14.72L113.839 14.8767C114.282 14.8063 114.676 14.7306 115.021 14.6495L114.984 14.495L114.948 14.3405C114.613 14.4194 114.227 14.4937 113.789 14.5633L113.814 14.72ZM114.984 14.495L115.02 14.6497C115.372 14.5693 115.639 14.4917 115.813 14.4154L115.749 14.27L115.686 14.1246C115.54 14.1883 115.297 14.2607 114.949 14.3403L114.984 14.495ZM115.749 14.27L115.66 14.4012L116.695 15.1062L116.784 14.975L116.874 14.8438L115.839 14.1388L115.749 14.27ZM116.784 14.975L116.643 14.9028C116.418 15.3439 116.122 15.8169 115.756 16.3218L115.884 16.415L116.013 16.5082C116.387 15.9931 116.691 15.5061 116.926 15.0472L116.784 14.975ZM115.884 16.415L115.756 16.3223C115.399 16.8182 115.001 17.3195 114.564 17.8263L114.684 17.93L114.805 18.0337C115.247 17.5205 115.65 17.0118 116.013 16.5077L115.884 16.415ZM114.684 17.93L114.564 17.8263C114.127 18.3334 113.674 18.8206 113.207 19.2878L113.319 19.4L113.432 19.5122C113.904 19.0394 114.362 18.5466 114.805 18.0337L114.684 17.93ZM113.319 19.4L113.388 19.5432C113.607 19.4383 113.852 19.3517 114.123 19.284L114.084 19.13L114.046 18.976C113.757 19.0483 113.492 19.1417 113.251 19.2568L113.319 19.4ZM114.084 19.13L114.123 19.284C114.392 19.2168 114.649 19.1837 114.894 19.1837V19.025V18.8663C114.62 18.8663 114.337 18.9032 114.046 18.976L114.084 19.13ZM114.894 19.025V19.1837C115.603 19.1837 116.217 19.3243 116.74 19.6004L116.814 19.46L116.888 19.3196C116.312 19.0157 115.646 18.8663 114.894 18.8663V19.025ZM116.814 19.46L116.74 19.6004C117.266 19.8776 117.674 20.258 117.969 20.7424L118.104 20.66L118.24 20.5776C117.914 20.042 117.463 19.6224 116.888 19.3196L116.814 19.46ZM118.104 20.66L117.97 20.7443C118.272 21.2259 118.426 21.7909 118.426 22.445H118.584H118.743C118.743 21.7391 118.577 21.1141 118.239 20.5757L118.104 20.66ZM118.584 22.445H118.426C118.426 23.1467 118.248 23.7717 117.896 24.3246L118.029 24.41L118.163 24.4953C118.55 23.8883 118.743 23.2033 118.743 22.445H118.584ZM118.029 24.41L117.895 24.3253C117.552 24.8691 117.069 25.3004 116.443 25.6185L116.514 25.76L116.586 25.9015C117.26 25.5596 117.787 25.0909 118.164 24.4947L118.029 24.41ZM116.514 25.76L116.442 25.6189C115.828 25.9354 115.109 26.0963 114.279 26.0963V26.255V26.4137C115.15 26.4137 115.921 26.2446 116.587 25.9011L116.514 25.76ZM114.024 24.98V25.1387H114.204V24.98V24.8213H114.024V24.98ZM114.204 24.98L114.363 24.9692C114.331 24.5065 114.204 24.115 113.971 23.8048L113.844 23.9L113.717 23.9952C113.905 24.245 114.018 24.5735 114.046 24.9908L114.204 24.98ZM113.844 23.9L113.971 23.8048C113.735 23.4892 113.425 23.3213 113.049 23.3213V23.48V23.6387C113.314 23.6387 113.534 23.7508 113.717 23.9952L113.844 23.9ZM113.049 23.48V23.3213C112.81 23.3213 112.599 23.3845 112.426 23.5202L112.524 23.645L112.622 23.7698C112.73 23.6855 112.868 23.6387 113.049 23.6387V23.48ZM112.524 23.645L112.428 23.5192C112.25 23.6559 112.171 23.8578 112.171 24.095H112.329H112.488C112.488 23.9322 112.539 23.8341 112.621 23.7708L112.524 23.645ZM112.329 24.095H112.171C112.171 24.4129 112.341 24.6637 112.636 24.8452L112.719 24.71L112.803 24.5748C112.577 24.4363 112.488 24.2771 112.488 24.095H112.329ZM112.719 24.71L112.636 24.8452C112.933 25.028 113.404 25.1184 114.019 25.1386L114.024 24.98L114.03 24.8214C113.425 24.8016 113.025 24.712 112.803 24.5748L112.719 24.71Z" fill="#C5385F"/>
<path d="M152.122 24.5986L146.852 16.8677H157.392L152.122 24.5986Z" fill="#C5385F"/>
</svg>
