<svg width="270" height="42" viewBox="0 0 270 42" fill="none" xmlns="http://www.w3.org/2000/svg">
<path d="M130.51 33.8046H16.5427C12.1553 33.8046 7.94759 32.0346 4.84524 28.884C1.74288 25.7334 0 21.4602 0 17.0046L0 16.8C0 12.3444 1.74288 8.07122 4.84524 4.92061C7.94759 1.76999 12.1553 0 16.5427 0L253.457 0C257.845 0 262.052 1.76999 265.155 4.92061C268.257 8.07122 270 12.3444 270 16.8V17.0046C270 21.4602 268.257 25.7334 265.155 28.884C262.052 32.0346 257.845 33.8046 253.457 33.8046H139.49L135 42L130.51 33.8046Z" fill="white"/>
</svg>
