<svg width="72" height="35" viewBox="0 0 72 35" fill="none" xmlns="http://www.w3.org/2000/svg">
<g clip-path="url(#clip0_85_144)">
<ellipse cx="62" cy="16.5" rx="5.5" ry="5" fill="white"/>
<path d="M17.0979 23.4367C17.5376 23.217 18.0808 23.3204 18.3654 22.7519H18.443C19.025 24.8708 20.0079 26.7829 21.2883 28.2946L21.2236 28.3463C20.7968 28.4496 20.2795 28.6434 19.8656 28.8243V28.7984C15.6364 30.1421 11.3943 28.2817 8.75589 28.553C8.19975 28.6176 7.35908 28.8501 6.44082 29.0827L6.40202 28.9018C7.51428 27.3385 5.40615 23.1654 3.36268 23.1654L3.31094 23.0491C4.74655 22.3902 6.57015 22.1835 8.25149 22.3256C11.071 22.5711 15.4554 24.2636 16.9168 23.6176L17.1108 23.4238L17.0979 23.4367Z" fill="white"/>
<path d="M61.7956 15.6977C62.3517 15.6977 62.8044 15.3618 62.8044 14.9354C62.8044 14.509 62.3517 14.1731 61.7956 14.1731C61.2395 14.1731 60.7868 14.509 60.7868 14.9354C60.7868 15.3618 61.2395 15.6977 61.7956 15.6977Z" fill="white"/>
<path d="M45.4478 31.77L45.3056 31.8863C44.4261 31.8863 43.5078 31.9767 42.6025 31.9767L42.0205 31.8217C41.4385 32.8811 39.9382 33.4625 37.5326 32.6873C36.6143 32.3902 28.3499 33.9018 26.7462 32.1447C26.5781 31.9638 26.3453 31.6925 26.0737 31.3566L25.9831 31.4212C24.1725 30.9432 22.5558 29.832 21.2495 28.2817C19.9691 26.77 18.9862 24.8579 18.4042 22.7261C16.8392 17.0413 18.1067 9.83205 24.2371 4.84497L24.5346 5.23256C24.5346 8.20414 26.979 13.4884 31.8807 14.2894C40.4426 15.6718 43.9734 6.02068 47.6336 6.12404L47.6724 6.0336C48.8881 6.52455 50.1685 6.91215 51.3196 6.91215L51.4877 6.83463C51.63 7.13179 51.7852 7.44187 51.9533 7.77778C51.811 8.21706 51.6817 8.68218 51.5524 9.17313L52.212 9.35401C58.2001 11.1628 60.7739 7.13179 60.7739 4.40569V3.54006C62.3517 3.48838 63.9425 3.72094 65.2617 4.14729L65.6497 4.10853C70.4351 1.71835 73.1123 0.968997 69.9307 6.89923L69.6849 6.97675C70.8619 10.491 72.5044 16.3954 68.3399 19.1731L68.4821 19.3799C70.4868 21.2791 73.0864 31.0078 68.3011 32.7003C68.0683 32.7907 64.0201 33.7985 63.3993 31.9897L63.3217 32.0155C62.5587 32.9845 58.8856 32.3514 58.8856 32.3514H58.8597C58.5881 34.5349 56.3894 34.4186 54.0356 34.2119C51.048 33.9664 47.4396 34.0439 45.4349 31.7571L45.4478 31.77Z" fill="white"/>
<path d="M61.7956 14.1731C62.3517 14.1731 62.8044 14.509 62.8044 14.9354C62.8044 15.3618 62.3517 15.6977 61.7956 15.6977C61.2395 15.6977 60.7868 15.3618 60.7868 14.9354C60.7868 14.509 61.2395 14.1731 61.7956 14.1731Z" fill="#DFAD9F"/>
<path d="M55.7816 4.90957C57.1655 4.00518 58.9632 3.60466 60.7739 3.55298V4.41862C60.7739 7.14471 58.2001 11.1757 52.212 9.36694L51.5524 9.18606C51.6688 8.6951 51.811 8.22999 51.9533 7.79071C51.7852 7.45479 51.63 7.14471 51.4877 6.84756C50.5436 4.85789 50.1814 3.72094 50.272 3.15247C50.4789 1.98968 52.6258 3.28167 55.691 4.81913L55.7686 4.92249L55.7816 4.90957Z" fill="#9C9C9C"/>
<path d="M44.2192 4.43153C45.1633 4.88373 46.392 5.52972 47.6982 6.05944L47.6594 6.14988C43.9993 6.05944 40.4685 15.6977 31.9066 14.3152C27.0049 13.5142 24.5475 8.22998 24.5605 5.2584L24.263 4.87081C25.5175 3.85013 26.979 2.9199 28.6603 2.11887C36.5626 -1.66666 41.2445 2.99742 44.2192 4.43153Z" fill="#9C9C9C"/>
<path d="M3.33681 23.1783C5.36735 23.1783 7.48842 27.3514 6.37615 28.9147L6.41495 29.0956C4.11281 29.677 1.24161 30.2067 0.763075 27.8036C0.297474 25.4134 1.47441 23.8889 3.28508 23.062L3.33681 23.1783Z" fill="#9C9C9C"/>
<path d="M39.589 33.7209C38.9165 33.7209 38.1534 33.5917 37.3515 33.3333C37.1317 33.2817 36.0323 33.3721 35.0753 33.4496C30.9883 33.7855 27.5093 33.9406 26.2677 32.5969L26.1771 32.5065C26.009 32.3256 25.7891 32.0801 25.5563 31.783C24.7933 30.8269 24.2501 29.845 23.9138 28.8631C23.7974 28.5142 23.9914 28.1395 24.3406 28.0233C24.6898 27.907 25.0649 28.1008 25.1813 28.4496C25.4529 29.2765 25.9314 30.1163 26.6039 30.969C26.8238 31.2403 27.0178 31.46 27.1601 31.6279L27.2377 31.7184C28.1171 32.6873 32.7343 32.3127 34.9459 32.1318C36.6014 32.0026 37.3386 31.9509 37.7395 32.0672C39.5502 32.6486 40.9212 32.4419 41.4385 31.5246C41.8782 30.6977 41.5549 29.2636 40.0675 28.2171C38.1275 26.8476 36.7825 26.5504 34.2863 26.9509C33.9242 27.0026 33.575 26.7571 33.5233 26.3954C33.4586 26.0336 33.7173 25.6848 34.0794 25.6331C36.9118 25.1809 38.619 25.5556 40.8435 27.1318C42.7189 28.4625 43.469 30.5814 42.6154 32.1705C42.0464 33.2041 40.9729 33.7339 39.5761 33.7339L39.589 33.7209Z" fill="#03004C"/>
<path d="M3.34974 30.2455C2.58668 30.2455 1.87534 30.1034 1.29334 29.7416C0.672539 29.3411 0.271605 28.7339 0.116404 27.9199C-0.36213 25.4651 0.659605 23.5271 3.01348 22.4419C4.46201 21.7829 6.38908 21.4987 8.30322 21.6667C9.46722 21.77 10.8511 22.093 12.1962 22.416C13.8775 22.8165 15.9727 23.3075 16.6452 23.0103C16.9815 22.8553 17.3695 23.0103 17.5247 23.3463C17.6799 23.6822 17.5247 24.0698 17.1884 24.2248C16.102 24.7028 14.1491 24.2377 11.8987 23.708C10.6054 23.3979 9.26029 23.0879 8.19975 22.9845C6.51842 22.8295 4.83708 23.0749 3.59548 23.6434C1.81067 24.4574 1.09934 25.801 1.46147 27.6486C1.55201 28.1008 1.73307 28.3979 2.04347 28.6047C3.03934 29.2377 5.23801 28.6951 6.29855 28.4367L6.81588 28.3075C7.56602 28.1137 8.21269 27.9457 8.71709 27.8941C9.77762 27.7778 11.058 27.9845 12.4031 28.2041C14.6406 28.5659 17.1755 28.9664 19.6846 28.1654C20.0338 28.0491 20.4088 28.2429 20.5252 28.5917C20.6416 28.9406 20.4476 29.3152 20.0984 29.4315C17.2919 30.323 14.4724 29.8708 12.2091 29.509C10.9028 29.3023 9.76469 29.1214 8.87229 29.2119C8.47135 29.2506 7.83762 29.4186 7.16508 29.5866L6.64775 29.7158C5.58721 29.9742 4.44908 30.2326 3.41441 30.2326L3.34974 30.2455Z" fill="#03004C"/>
<path d="M6.37615 29.5866C6.24682 29.5866 6.10455 29.5478 5.98815 29.4574C5.69068 29.2507 5.61308 28.8243 5.83295 28.5271C6.18215 28.0362 6.02695 26.8863 5.45788 25.7752C4.86295 24.6382 3.99641 23.8372 3.33681 23.8372C2.97468 23.8372 2.66428 23.5401 2.66428 23.1654C2.66428 22.7907 2.96174 22.4935 3.33681 22.4935C4.75948 22.4935 5.97522 23.8631 6.63482 25.155C7.29442 26.4212 7.70829 28.1654 6.91935 29.2765C6.79002 29.4574 6.58308 29.5607 6.37615 29.5607V29.5866Z" fill="#03004C"/>
<path d="M33.5491 15.1034C32.993 15.1034 32.411 15.0517 31.8031 14.9612C26.6945 14.1344 23.8879 8.68217 23.9008 5.24548C23.9008 4.88372 24.1983 4.58656 24.5734 4.58656C24.9355 4.58656 25.233 4.88372 25.233 5.2584C25.233 7.86822 27.4834 12.9199 32.023 13.6563C36.9894 14.4574 40.1969 11.2403 42.7836 8.65633C44.5037 6.92506 46.004 5.42636 47.6724 5.47804C48.0345 5.47804 48.332 5.78811 48.319 6.16279C48.319 6.52455 47.9957 6.82171 47.6336 6.80879C47.6336 6.80879 47.6077 6.80879 47.5948 6.80879C46.4954 6.80879 45.2021 8.10078 43.7148 9.59948C41.3479 11.9638 38.2051 15.1163 33.5362 15.1163L33.5491 15.1034Z" fill="#03004C"/>
<path d="M55.8462 21.9768C55.8462 21.9768 55.7169 21.9768 55.6522 21.9509C50.6212 20.4264 49.0304 16.0724 50.9186 9.03101C51.0221 8.60466 51.1514 8.13954 51.3325 7.60983C51.4101 7.35143 51.4877 7.09303 51.5782 6.84755C51.6946 6.49871 52.0697 6.30492 52.4189 6.42119C52.7681 6.53747 52.9621 6.91215 52.8457 7.26099C52.7681 7.50647 52.6905 7.75194 52.6129 8.01034C52.4448 8.52714 52.3284 8.96642 52.2249 9.37985C50.5048 15.7881 51.7205 19.3799 56.0532 20.6977C56.4024 20.801 56.6093 21.1757 56.4929 21.5246C56.4024 21.8088 56.1437 22.0026 55.8592 22.0026L55.8462 21.9768Z" fill="#03004C"/>
<path d="M66.1412 20.8656C65.8567 20.8656 65.5851 20.6718 65.5075 20.3876C65.404 20.0388 65.6109 19.6641 65.9601 19.5607C66.7491 19.3282 67.4216 19.031 67.9907 18.6563C71.5473 16.292 70.4351 11.3049 69.0771 7.22222C69.0771 7.22222 69.0641 7.17054 69.0512 7.15762C68.9089 6.8217 69.0771 6.4341 69.4263 6.3049C69.7625 6.16279 70.1635 6.34366 70.2928 6.67958C70.2928 6.6925 70.3187 6.7571 70.3316 6.78294C71.224 9.45736 73.5908 16.5245 68.7279 19.7674C68.0553 20.2196 67.2405 20.5814 66.3352 20.8527C66.2705 20.8656 66.2059 20.8785 66.1541 20.8785L66.1412 20.8656Z" fill="#03004C"/>
<path d="M61.7956 16.2274C60.9291 16.2274 60.2436 15.6589 60.2436 14.9354C60.2436 14.2119 60.9291 13.6434 61.7956 13.6434C62.6621 13.6434 63.3347 14.2248 63.3347 14.9354C63.3347 15.646 62.6492 16.2274 61.7956 16.2274ZM61.7956 14.7028C61.4852 14.7028 61.3171 14.8708 61.3171 14.9354C61.3171 15 61.4852 15.168 61.7956 15.168C62.106 15.168 62.2741 15 62.2741 14.9354C62.2741 14.8708 62.106 14.7028 61.7956 14.7028Z" fill="#03004C"/>
<path d="M55.2513 5.96899C55.0573 5.96899 54.8633 5.89147 54.734 5.72351C54.5012 5.43927 54.54 5.01292 54.8245 4.78036C55.0185 4.62532 55.2125 4.4832 55.4194 4.34108C56.8033 3.43669 58.6528 2.93281 60.7609 2.88114C62.3647 2.82946 64.0331 3.06201 65.4816 3.51421C66.5163 3.85013 67.3828 4.27648 67.9907 4.78036C68.2752 5.01292 68.314 5.43927 68.0812 5.72351C67.8484 6.00775 67.4216 6.04651 67.1371 5.81395C66.6715 5.42635 65.9601 5.07752 65.0807 4.79328C63.7744 4.37984 62.2612 4.17312 60.8127 4.21188C58.9502 4.26356 57.3465 4.68992 56.1696 5.45219C56.0014 5.55555 55.8462 5.68475 55.691 5.80103C55.5617 5.90439 55.4194 5.95607 55.2772 5.95607L55.2513 5.96899Z" fill="#03004C"/>
<path d="M51.9662 8.46253C51.6946 8.46253 51.4618 8.30749 51.3584 8.07493C51.1902 7.73901 51.035 7.42893 50.8928 7.13178C49.871 4.97415 49.496 3.78552 49.6253 3.03617C49.69 2.63565 49.9098 2.32557 50.2461 2.17054C51.1256 1.73126 52.4318 2.40309 54.8116 3.61756C55.1866 3.81136 55.5876 4.01808 56.0014 4.2248C56.3248 4.39276 56.467 4.79327 56.2989 5.11627C56.1308 5.43927 55.7298 5.58139 55.4065 5.41343C54.9926 5.20671 54.5917 4.99999 54.2037 4.80619C52.988 4.18604 51.4877 3.42377 50.9316 3.37209C50.9316 3.708 51.1256 4.53488 52.0956 6.57622C52.2378 6.87338 52.393 7.18346 52.5612 7.51937C52.6129 7.60981 52.6388 7.71317 52.6388 7.81653C52.6388 8.17829 52.3413 8.48837 51.9662 8.48837V8.46253Z" fill="#03004C"/>
<path d="M69.9436 7.58398C69.8401 7.58398 69.7237 7.55814 69.6332 7.50646C69.3099 7.3385 69.1805 6.92506 69.3616 6.60207C70.9653 3.60465 70.642 3.06201 70.6291 3.04909C70.4221 2.90698 69.5427 2.93282 65.9601 4.71576C65.6368 4.88372 65.2359 4.7416 65.0677 4.4186C64.8996 4.09561 65.0419 3.69509 65.3652 3.52713C68.6761 1.87338 70.6549 1.16279 71.5861 2.11886C72.3621 2.90698 72.0517 4.39276 70.5256 7.23514C70.4092 7.45478 70.1764 7.58398 69.9436 7.58398Z" fill="#03004C"/>
<path d="M64.5892 18.6176C64.0977 18.6176 63.6192 18.5401 63.1795 18.3721C62.0931 17.9457 61.4593 17.0284 61.4593 15.8656C61.4593 15.5685 61.6921 15.3359 61.9896 15.3359C62.2871 15.3359 62.5199 15.5685 62.5199 15.8656C62.5199 16.6021 62.8691 17.1189 63.5545 17.3902C64.5116 17.7649 65.792 17.5065 66.2188 17.0413C66.3481 16.8992 66.374 16.77 66.2835 16.5892C66.1541 16.3308 66.2576 16.0078 66.5163 15.8786C66.7749 15.7494 67.0983 15.8527 67.2276 16.1111C67.5121 16.6796 67.4345 17.2868 67.0077 17.7519C66.4904 18.3204 65.5463 18.6305 64.5892 18.6305V18.6176Z" fill="#03004C"/>
<path d="M59.196 18.7339C58.2389 18.7339 57.2818 18.4109 56.7645 17.8553C56.3377 17.3773 56.2472 16.7829 56.5317 16.2016C56.661 15.9432 56.9844 15.8269 57.243 15.9561C57.5017 16.0853 57.6181 16.4083 57.4888 16.6667C57.3982 16.8475 57.4112 16.9767 57.5534 17.1189C57.9802 17.584 59.2606 17.8424 60.2177 17.4677C60.9032 17.1964 61.2524 16.6925 61.2524 15.9432C61.2524 15.646 61.4852 15.4134 61.7826 15.4134C62.0801 15.4134 62.3129 15.646 62.3129 15.9432C62.3129 17.1189 61.6921 18.0362 60.5928 18.4625C60.153 18.6305 59.6616 18.708 59.183 18.708L59.196 18.7339Z" fill="#03004C"/>
<path d="M55.0314 10.491C54.152 10.491 53.1561 10.3488 52.0309 10.0129C51.6817 9.90956 51.4748 9.53489 51.5912 9.18605C51.6946 8.83721 52.0697 8.63049 52.4189 8.74677C54.7598 9.45737 56.7516 9.26357 58.1872 8.20414C59.6099 7.14471 60.1272 5.5168 60.1272 4.44445C60.1272 4.08269 60.4246 3.77261 60.7997 3.77261C61.1748 3.77261 61.4723 4.06977 61.4723 4.44445C61.4723 6.26615 60.5022 8.16538 59.002 9.27649C58.1613 9.89664 56.8809 10.5039 55.0573 10.5039L55.0314 10.491Z" fill="#03004C"/>
<path d="M65.1195 12.8811C64.8608 12.8811 64.6151 12.7261 64.5116 12.4806C64.3693 12.1447 64.5116 11.7571 64.8608 11.6021C65.2617 11.4341 65.7015 11.4341 66.0377 11.4599C66.3999 11.4858 66.6844 11.8088 66.6456 12.1705C66.6197 12.5323 66.2964 12.8165 65.9343 12.7778C65.6627 12.7519 65.4816 12.7778 65.3781 12.8165C65.2876 12.8553 65.1971 12.8682 65.1195 12.8682V12.8811Z" fill="#03004C"/>
<path d="M58.6399 13.1912C58.5623 13.1912 58.4976 13.1912 58.42 13.1525C58.3424 13.1266 58.1872 13.1008 57.8509 13.1525C57.4888 13.2041 57.1525 12.9457 57.1008 12.584C57.0491 12.2222 57.3077 11.8863 57.6699 11.8346C57.9673 11.7959 58.4329 11.7571 58.8468 11.8992C59.196 12.0155 59.3771 12.3902 59.2607 12.739C59.1701 13.0103 58.9115 13.1912 58.6269 13.1912H58.6399Z" fill="#03004C"/>
<path d="M54.3848 29.2636C53.4794 29.2636 51.7593 29.1344 50.3625 28.23C50.0521 28.0233 49.9616 27.6227 50.1685 27.3127C50.3754 27.0026 50.7764 26.9121 51.0868 27.1189C52.6388 28.1266 54.8504 27.9328 54.8762 27.9199C55.2384 27.8811 55.5617 28.1525 55.6005 28.5142C55.6393 28.876 55.3677 29.199 55.0056 29.2377C54.9797 29.2377 54.7469 29.2636 54.3848 29.2636Z" fill="#03004C"/>
<path d="M26.009 32.1059C26.009 32.1059 25.8926 32.1059 25.8409 32.0801C23.9526 31.5891 22.2066 30.4264 20.771 28.7209C19.4259 27.1318 18.4042 25.1292 17.7963 22.907C16.309 17.5194 17.1238 9.8062 23.8491 4.32816C25.1813 3.25581 26.6945 2.29974 28.3758 1.48579C35.2175 -1.79587 39.8089 0.994831 42.8482 2.84238C43.482 3.22997 44.0252 3.55297 44.5166 3.78553C44.7365 3.88889 44.9822 4.01809 45.2409 4.13437C46.0557 4.53488 46.9869 5 47.9569 5.3876C49.3278 5.94315 50.4401 6.21447 51.3454 6.21447C51.7076 6.21447 52.018 6.51163 52.018 6.8863C52.018 7.26098 51.7205 7.55814 51.3454 7.55814C50.259 7.55814 48.9786 7.26098 47.4525 6.64083C46.4437 6.22739 45.4866 5.76227 44.646 5.34884C44.4002 5.21964 44.1545 5.10336 43.9346 5C43.3914 4.7416 42.7836 4.37984 42.1628 3.99225C39.201 2.19638 35.1529 -0.271319 28.9578 2.68734C27.367 3.44961 25.9314 4.34108 24.6898 5.36176C18.4559 10.4393 17.7058 17.5711 19.0767 22.5452C19.6328 24.5736 20.564 26.4083 21.7798 27.8424C23.0343 29.3282 24.5605 30.3488 26.1771 30.7752C26.5393 30.8656 26.7462 31.2274 26.6557 31.5891C26.5781 31.8863 26.3065 32.0801 26.009 32.0801V32.1059Z" fill="#03004C"/>
<path d="M55.8204 35C55.1996 35 54.5658 34.9483 53.9838 34.8966C53.5958 34.8579 53.2078 34.832 52.794 34.8062C50.0133 34.6124 46.8576 34.4057 44.9305 32.2093C44.6072 31.8346 44.3226 31.4212 44.0898 30.9561C43.9217 30.6202 44.064 30.2326 44.3873 30.0646C44.7106 29.8966 45.1116 30.0388 45.2797 30.3618C45.4478 30.7106 45.6677 31.0336 45.9264 31.3178C47.4913 33.1008 50.2202 33.2946 52.8716 33.4625C53.2854 33.4884 53.6864 33.5142 54.0744 33.553C56.8292 33.7855 58.0061 33.6693 58.1872 32.2739C58.1872 32.2481 58.1872 32.2222 58.2001 32.1964C58.2001 32.093 58.2131 31.9767 58.2131 31.8605C58.2131 30.7494 57.8509 29.9742 57.1266 29.5607C56.2084 29.031 54.8374 29.1731 54.0873 29.5995C53.764 29.7804 53.363 29.677 53.182 29.354C53.0009 29.031 53.1044 28.6305 53.4277 28.4496C54.5012 27.8295 56.4024 27.6098 57.7992 28.4109C58.6011 28.876 59.5581 29.845 59.5581 31.8734C59.5581 32.0801 59.5581 32.2868 59.5193 32.4677C59.5193 32.4935 59.5193 32.5194 59.5064 32.5581C59.196 34.5995 57.5276 35.0129 55.8204 35.0129V35Z" fill="#03004C"/>
<path d="M61.1877 33.2558C60.2048 33.2558 59.2477 33.1137 58.795 33.0362C58.4329 32.9716 58.1872 32.6227 58.2519 32.261C58.3165 31.8992 58.6657 31.6537 59.0279 31.7183C60.7092 32.0155 62.5457 31.9767 62.8173 31.6279C63.0501 31.3437 63.464 31.292 63.7485 31.5116C64.0331 31.7442 64.0848 32.1576 63.8649 32.4419C63.3735 33.062 62.2741 33.2429 61.1877 33.2429V33.2558Z" fill="#03004C"/>
<path d="M65.7532 33.7468C65.0807 33.7468 64.4081 33.6563 63.8649 33.3979C63.3347 33.1395 62.9596 32.739 62.7915 32.2351C62.5845 31.6408 62.6621 30.9044 62.9984 30.0517C63.852 27.9328 65.6239 27.7132 66.4387 27.8941C66.8008 27.9716 67.0207 28.3333 66.9431 28.6822C66.8655 29.0439 66.5033 29.2636 66.1541 29.186C66.0377 29.1602 64.8608 28.9793 64.24 30.5297C63.9684 31.2145 63.9943 31.5891 64.0589 31.7829C64.3952 32.7778 67.2793 32.3385 68.12 32.0801C69.1935 31.6925 69.8919 30.7752 70.2023 29.3282C70.9524 25.8269 69.2064 20.969 68.0553 19.8708C67.7837 19.6124 67.7837 19.199 68.0295 18.9276C68.2881 18.6563 68.702 18.6563 68.9736 18.9018C70.5515 20.4005 72.3233 25.801 71.5085 29.5995C71.1076 31.4987 70.0859 32.7907 68.5597 33.3333C68.5468 33.3333 67.1759 33.7339 65.7791 33.7339L65.7532 33.7468Z" fill="#03004C"/>
<path d="M42.6025 32.6615C42.2403 32.6615 41.9299 32.3643 41.9299 31.9897C41.9299 31.615 42.2274 31.3178 42.6025 31.3178C43.0293 31.3178 43.4949 31.292 43.9346 31.2662C44.3873 31.2403 44.8529 31.2145 45.3056 31.2145C45.6677 31.2145 45.9781 31.5116 45.9781 31.8863C45.9781 32.261 45.6806 32.5581 45.3056 32.5581C44.8788 32.5581 44.439 32.584 43.9993 32.6098C43.5466 32.6357 43.0681 32.6615 42.6025 32.6615Z" fill="#03004C"/>
</g>
<defs>
<clipPath id="clip0_85_144">
<rect width="72" height="35" fill="white"/>
</clipPath>
</defs>
</svg>
