<svg width="70" height="90" viewBox="0 0 70 90" fill="none" xmlns="http://www.w3.org/2000/svg">
<g clip-path="url(#clip0_85_175)">
<path d="M61.337 16.9312C60.6793 17.2477 59.9458 17.1084 59.7055 16.6146C59.4526 16.1207 59.794 15.4495 60.4517 15.1203C61.1093 14.8037 61.8428 14.943 62.0831 15.4369C62.336 15.9434 61.9946 16.6019 61.337 16.9312Z" fill="#8C7D6B"/>
<path d="M61.3369 16.9312C61.9946 16.6146 62.336 15.9434 62.0831 15.4369C61.8428 14.943 61.1093 14.8037 60.4517 15.1203C59.794 15.4495 59.4526 16.108 59.7055 16.6146C59.9458 17.1085 60.6793 17.2478 61.3369 16.9312ZM63.7904 18.1849C63.0948 18.2482 62.3866 18.2735 61.9693 18.4888C61.1219 18.932 59.3135 20.8696 57.6947 21.566H58.2891C58.2891 21.566 59.2502 22.6298 60.047 22.959C60.907 23.3263 63.8284 21.9333 64.0054 20.9582C64.1698 20.1351 63.8537 18.7674 63.8537 18.7674L63.7904 18.1722V18.1849ZM66.206 12.8029C67.1292 12.7522 68.3686 13.3094 68.5203 13.9172C68.5836 14.1325 67.7868 14.8037 67.8374 14.8923C67.9006 15.019 68.9883 15.3482 69.2159 15.6648C69.785 16.4373 69.1147 16.5006 68.71 17.1338C68.4065 17.6024 69.355 17.9443 69.355 18.4381C69.355 19.122 68.4697 19.236 68.28 19.6412C68.0271 20.1984 70.0885 22.0346 66.8889 22.2625L66.4715 22.6678C67.7489 24.5926 65.8139 24.2254 65.2575 24.7319C64.8022 25.1498 64.701 25.7704 64.1951 26.2136C64.0434 26.3402 63.5628 26.4542 62.981 26.5175L63.0443 27.062C66.0036 37.1929 63.9295 52.6045 61.6784 52.5665C59.4273 52.5285 62.0578 55.8337 61.9566 56.3276C61.8049 57.1 61.8428 56.4289 61.6784 57.2267C61.6025 57.5939 60.7931 57.328 60.692 57.9358C60.5023 59.1009 62.7281 61.7855 62.5004 62.9253C62.1337 64.7615 66.4842 64.4956 65.8013 67.6868C65.1183 70.8653 64.0434 69.485 61.1725 69.1178C59.5917 68.9151 60.5908 67.1929 58.9341 66.2178C57.29 65.2427 54.4318 59.4681 54.1156 57.9358C54.0145 57.4546 53.9892 57.2013 54.0018 57.0747C54.0524 57.1127 54.0903 57.138 54.1156 57.138C54.2168 57.138 54.0271 56.7961 54.0018 57.0747C53.7615 56.8848 53.243 56.3402 53.243 56.3402L54.1156 55.5677C54.1156 55.5677 53.2936 55.4664 53.243 55.3651C53.1165 55.1245 53.2051 54.1874 54.3433 53.2883C54.8997 52.8451 54.71 52.7058 54.3433 52.5791C54.3433 52.5791 51.7633 54.6433 51.0298 55.3651C50.2963 56.0869 48.6269 61.4816 47.1472 63.4571C45.0479 66.2685 44.5167 67.5728 41.4182 69.1178L41.0136 69.2191C40.4824 71.5872 38.9395 72.0304 38.2818 74.2845C37.6242 76.5386 34.6016 75.0063 33.5899 76.8932C32.869 78.2482 34.4499 83.3516 37.4092 83.0477C40.495 82.7311 42.5059 84.9346 41.5068 86.4035C40.2168 88.2904 36.6251 87.3406 36.2331 87.3786C33.9693 87.5686 28.6703 80.0211 26.9503 77.9063C26.4571 77.2984 25.2683 76.298 24.5727 75.4116L24.0036 75.9434C23.3966 78.1975 21.4743 76.8299 20.5384 78.7294C19.8681 80.0844 21.3351 85.1878 24.0795 84.8839C26.9377 84.5673 28.8094 86.7708 27.8862 88.2524C26.6847 90.1393 23.3333 89.1895 22.9792 89.2275C20.8799 89.4175 16.9214 83.3896 15.3153 81.2875C14.7082 80.4896 13.6585 79.8691 13.3803 78.8814C12.6089 76.222 18.1102 69.8522 17.1111 67.3829C15.5429 63.4571 16.0108 59.2402 17.5411 55.5804L17.579 55.1752C17.4652 55.1752 17.3388 55.1498 17.1996 55.1119C16.327 54.8712 16.8455 52.959 16.5673 52.8704C15.5303 52.5411 15.1509 54.1494 14.3162 54.4407C14.0759 54.5293 10.6107 52.2625 10.5348 52.0853C9.29539 49.2613 13.6585 48.8307 14.6703 48.8307C15.1256 48.8307 18.0217 50.2744 18.262 50.0718C18.5149 49.8691 17.6043 49.0587 17.9079 49.0587C18.8184 49.0587 19.5772 49.5652 20.2602 50.249L21.4869 50.1731C22.6378 48.7421 23.8392 48.894 25.6098 47.3744C27.8862 45.4242 30.0867 46.336 30.8076 45.5382C30.8202 45.5255 29.6441 45.9561 29.6567 45.8168C29.7073 45.2089 35.9928 42.3976 36.8275 41.2959C37.5483 40.3335 36.5113 40.84 36.5619 40.7134C36.8022 40.1688 38.0289 39.4723 38.4715 38.9405C39.8753 37.2689 41.0388 34.6855 42.1518 32.7353C42.5691 32.0135 44.1247 31.2537 44.2891 30.5445C44.4155 30.0127 43.3406 30.3672 43.4544 30.0253C43.8591 28.8856 46.5781 28.645 46.7299 27.0494H46.6287C46.8184 26.4922 48.5763 21.4394 48.0578 19.8311V19.6918C45.1111 19.4892 46.2493 17.8809 43.897 19.122C43.4797 19.3373 40.5836 18.1469 41.2665 15.6522C42.0379 12.8535 42.3921 7.66145 47.5646 8.11733L47.8302 8.19332C49.1201 5.76191 52.7624 4.33093 55.0135 4.36892V4.31826C56.3541 -0.696512 61.3496 0.721808 64.2457 0.949753C66.8257 1.15237 66.9648 4.28027 66.6107 4.60953C64.6378 6.40775 66.5474 5.87588 65.7127 8.76318C65.308 10.1688 64.7516 8.16799 63.0063 6.90163L62.8293 7.30687C62.8293 8.20598 63.7398 9.16841 63.7398 10.1942L64.0054 10.5614C64.0054 10.5614 65.4345 11.3972 66.1933 12.8282L66.206 12.8029ZM60.6414 11.9037C61.0967 11.7265 61.3496 11.2452 61.1852 10.8273C61.0208 10.4094 60.5276 10.2068 60.0596 10.3841C59.5917 10.5614 59.3514 11.0426 59.5158 11.4605C59.6802 11.8784 60.1734 12.081 60.6414 11.9037ZM53.673 15.4622C54.0903 15.2089 54.2421 14.6897 54.0018 14.3098C53.7615 13.9299 53.243 13.8286 52.8257 14.0692C52.4083 14.3225 52.2565 14.8417 52.4968 15.2216C52.7371 15.6015 53.2556 15.7028 53.673 15.4495V15.4622Z" fill="#D3BEA3"/>
<path d="M61.1852 10.8274C61.3496 11.2453 61.0967 11.7265 60.6414 11.9038C60.1861 12.0811 59.6802 11.8784 59.5158 11.4605C59.3514 11.0426 59.6043 10.5614 60.0596 10.3841C60.5149 10.2069 61.0208 10.4095 61.1852 10.8274Z" fill="#03004C"/>
<path d="M54.0145 14.3098C54.2547 14.6897 54.103 15.2089 53.6856 15.4622C53.2683 15.7155 52.7371 15.6142 52.5095 15.2343C52.2692 14.8544 52.421 14.3352 52.8383 14.0819C53.2557 13.8286 53.7868 13.9299 54.0145 14.3225V14.3098Z" fill="#03004C"/>
<path d="M63.8537 18.78C63.8537 18.78 64.1698 20.1477 64.0054 20.9708C63.8157 21.9459 60.907 23.3389 60.047 22.9717C59.2502 22.6424 58.2891 21.5787 58.2891 21.5787H57.6947C59.3008 20.8695 61.122 18.9447 61.9693 18.5014C62.374 18.2862 63.0949 18.2735 63.7904 18.1975L63.8537 18.7927V18.78Z" fill="#E8AD97"/>
<path d="M66.8889 22.8451C66.5854 22.8451 66.3324 22.6171 66.3198 22.3132C66.2945 21.9966 66.5348 21.718 66.8509 21.7053C67.9006 21.6294 68.0903 21.3761 68.103 21.3508C68.1789 21.2241 68.0145 20.8189 67.9133 20.5783C67.7489 20.1984 67.5845 19.7931 67.7615 19.4132C67.9006 19.0966 68.1789 18.9194 68.4318 18.7674C68.6594 18.6281 68.7606 18.5521 68.7859 18.4761C68.748 18.4128 68.6468 18.3242 68.5836 18.2609C68.3559 18.0329 67.8248 17.4884 68.2294 16.8299C68.3939 16.5766 68.5709 16.412 68.71 16.2727C68.748 16.2347 68.7986 16.184 68.8365 16.146C68.8238 16.1207 68.7986 16.0701 68.748 16.0067C68.6721 15.9308 68.2674 15.7535 68.065 15.6648C67.6477 15.4749 67.4327 15.3862 67.3189 15.1329C67.1292 14.7657 67.3948 14.4744 67.6603 14.1832C67.7109 14.1199 67.8121 14.0186 67.8753 13.9299C67.6098 13.6766 66.8889 13.3347 66.2313 13.3727C66.0416 13.3727 65.9404 13.4107 65.9024 13.436C65.6242 13.5753 65.2701 13.4614 65.131 13.1828C64.9919 12.9042 65.1057 12.5496 65.3839 12.4103C65.5989 12.2963 65.8645 12.2457 66.168 12.2203C67.2936 12.157 68.8238 12.8155 69.0641 13.7653C69.1527 14.0945 68.9756 14.3858 68.7227 14.6897C69.1527 14.8923 69.4815 15.0696 69.6585 15.3102C70.3415 16.26 69.785 16.7919 69.4815 17.0831C69.4056 17.1591 69.3297 17.2351 69.2538 17.3111C69.2918 17.3491 69.3297 17.3997 69.3677 17.4251C69.5953 17.653 69.8988 17.9696 69.8988 18.4255C69.8988 19.1473 69.3424 19.5019 69.0135 19.7172C68.963 19.7552 68.8871 19.7931 68.8365 19.8311C68.8618 19.9198 68.9124 20.0211 68.9503 20.1097C69.1527 20.5783 69.4562 21.2874 69.0641 21.9333C68.7353 22.4652 68.0524 22.7564 66.9142 22.8324C66.9015 22.8324 66.8889 22.8324 66.8762 22.8324L66.8889 22.8451Z" fill="#03004C"/>
<path d="M56.6323 22.4018C56.2656 22.4018 55.9368 22.3132 55.6459 22.1486C55.3677 21.9839 55.2791 21.642 55.4309 21.3634C55.5953 21.0848 55.9368 20.9962 56.215 21.1482C56.5059 21.3128 56.9232 21.2875 57.467 21.0342C58.3776 20.6289 59.4146 19.7678 60.2493 19.0713C60.8564 18.5648 61.3243 18.1722 61.7037 17.9696C62.1337 17.7417 62.7154 17.691 63.3225 17.6403C63.4616 17.6403 63.5881 17.615 63.7272 17.6024C65.0551 17.4757 65.2701 17.1845 65.2322 16.6019C65.2069 16.2853 65.4472 16.0067 65.7633 15.9941C66.0795 15.9688 66.3577 16.2094 66.3704 16.5259C66.5095 18.4888 64.5745 18.6788 63.841 18.7547C63.7019 18.7674 63.5628 18.7801 63.4237 18.7927C62.9557 18.8307 62.4625 18.8687 62.2349 18.9953C61.9566 19.1346 61.4761 19.5399 60.9702 19.9704C60.0849 20.7176 58.9846 21.642 57.9223 22.0979C57.4544 22.3005 57.0244 22.4145 56.6197 22.4145L56.6323 22.4018Z" fill="#03004C"/>
<path d="M60.6287 17.5517C60.047 17.5517 59.5285 17.2858 59.3008 16.8046C59.1491 16.5006 59.1364 16.146 59.2502 15.7915C59.402 15.3356 59.7688 14.9303 60.262 14.6897C61.1473 14.2592 62.1463 14.4871 62.5005 15.2216C62.6522 15.5255 62.6649 15.8928 62.551 16.2347C62.3993 16.6906 62.0325 17.0832 61.5393 17.3238C61.2358 17.4757 60.9323 17.539 60.6287 17.539V17.5517ZM61.1599 15.4116C61.0081 15.4116 60.8311 15.4496 60.654 15.5382C60.3884 15.6648 60.1861 15.8801 60.1102 16.1081C60.0849 16.184 60.0596 16.3107 60.1102 16.412C60.224 16.6399 60.6667 16.7412 61.122 16.5133C61.3875 16.3867 61.5899 16.1714 61.6658 15.9561C61.6911 15.8801 61.7164 15.7535 61.6658 15.6395C61.6025 15.5002 61.4002 15.4116 61.1599 15.4116Z" fill="#03004C"/>
<path d="M60.4137 23.5922C60.1987 23.5922 60.009 23.5669 59.832 23.4909C58.9467 23.111 57.9855 22.0726 57.8717 21.946C57.6567 21.7054 57.682 21.3508 57.9097 21.1355C58.15 20.9202 58.5041 20.9455 58.7191 21.1735C58.9594 21.4394 59.7182 22.1992 60.2746 22.4272C60.4643 22.5032 61.2864 22.3512 62.2728 21.8193C63.0949 21.3761 63.4237 20.9709 63.449 20.8569C63.5628 20.287 63.3857 19.2486 63.2972 18.9067C63.2213 18.6028 63.4237 18.2862 63.7272 18.2229C64.0434 18.1469 64.3469 18.3495 64.4101 18.6534C64.4481 18.8054 64.7389 20.1731 64.5619 21.0848C64.4101 21.87 63.3731 22.5411 62.766 22.8577C62.5005 22.997 61.3243 23.6049 60.3884 23.6049L60.4137 23.5922Z" fill="#03004C"/>
<path d="M47.729 8.97847C47.6531 8.97847 47.5646 8.96581 47.4887 8.92782C47.1978 8.78852 47.084 8.4466 47.2105 8.168C47.2484 8.07936 47.2864 7.99071 47.337 7.91473C48.804 5.15407 52.7498 3.73575 55.0388 3.78641C55.355 3.78641 55.6712 3.8244 55.9494 3.88771C56.2529 3.9637 56.4553 4.26762 56.3794 4.58421C56.3035 4.88814 56 5.07809 55.6965 5.01477C55.4941 4.96412 55.2665 4.93879 55.0262 4.93879C53.0407 4.88814 49.5501 6.21781 48.3613 8.4466C48.3234 8.50992 48.2981 8.5859 48.2602 8.66188C48.159 8.8645 47.9566 8.99113 47.7416 8.99113L47.729 8.97847Z" fill="#03004C"/>
<path d="M48.2602 20.249C48.1843 20.249 48.121 20.249 48.0705 20.249C46.5402 20.1477 45.9332 19.6918 45.5285 19.4006C45.2123 19.1726 45.1364 19.1093 44.1626 19.6159C43.5808 19.9198 42.4679 19.3753 41.8609 18.8814C40.7606 17.9949 40.3559 16.7792 40.71 15.4749C40.8112 15.1076 40.9124 14.6897 41.0136 14.2465C41.6712 11.3972 42.6576 7.09159 47.6152 7.50949C47.9314 7.53482 48.159 7.81342 48.1337 8.13001C48.1084 8.44659 47.8428 8.67454 47.514 8.64921C43.8464 8.33262 42.9232 10.992 42.1265 14.4871C42.0253 14.943 41.9241 15.3736 41.8103 15.7661C41.6332 16.4246 41.7471 17.0198 42.1518 17.539C42.6576 18.1975 43.4544 18.5015 43.7073 18.5395C45.0099 17.8683 45.5032 17.9316 46.2114 18.4508C46.5149 18.6788 46.8943 18.9574 47.9061 19.0587C47.8555 18.9827 47.8175 18.9067 47.7669 18.8307C47.1346 17.7923 45.9458 15.8421 46.7931 13.3981C46.8943 13.0941 47.2231 12.9422 47.5267 13.0435C47.8302 13.1448 47.9819 13.474 47.8808 13.778C47.2231 15.7155 48.1463 17.2351 48.7534 18.2355C49.1328 18.856 49.4363 19.3499 49.1454 19.8185C48.9304 20.1731 48.5257 20.2237 48.2475 20.2237L48.2602 20.249Z" fill="#03004C"/>
<path d="M65.3713 9.80158C64.916 9.80158 64.5872 9.38368 64.1698 8.87714C63.7904 8.40859 63.3225 7.8134 62.6649 7.34485C61.944 6.81298 61.1599 6.5597 60.2746 6.53438C59.9584 6.53438 59.7055 6.26844 59.7055 5.95185C59.7055 5.63526 59.9711 5.40732 60.2873 5.38199C61.4002 5.39466 62.4246 5.74924 63.3351 6.40774C64.1066 6.96494 64.6631 7.64877 65.0551 8.15531C65.1057 8.21863 65.1563 8.28195 65.2195 8.35793C65.4725 7.38284 65.3333 6.92695 65.2195 6.5597C64.9666 5.72391 65.0678 5.23003 66.1554 4.22961C66.206 3.97634 66.1933 3.12788 65.738 2.41872C65.3839 1.86152 64.8654 1.55759 64.1951 1.50694C63.7904 1.48161 63.3478 1.41829 62.8925 1.36764C59.3261 0.937079 56.5185 0.886425 55.57 4.45755C55.4941 4.76148 55.178 4.95143 54.8618 4.86279C54.5583 4.77414 54.3686 4.47022 54.4571 4.15363C55.7471 -0.658531 60.1229 -0.126661 63.0316 0.227919C63.4743 0.278574 63.9043 0.329228 64.2837 0.367218C65.6242 0.468527 66.6233 1.26633 67.0912 2.59601C67.3442 3.33049 67.4833 4.57152 67.0027 5.01475C66.1807 5.7619 66.2186 5.86321 66.3324 6.23045C66.4716 6.71167 66.6992 7.43349 66.2692 8.90247C66.206 9.11775 66.0416 9.67494 65.523 9.78892C65.4725 9.78892 65.4219 9.80158 65.3713 9.80158Z" fill="#03004C"/>
<path d="M61.9693 19.0586C61.7417 19.0586 61.5267 18.9193 61.4381 18.6914L60.8817 17.2351C60.7678 16.9438 60.9196 16.6019 61.2105 16.4879C61.5014 16.374 61.8428 16.5259 61.9567 16.8172L62.5131 18.2735C62.6269 18.5648 62.4752 18.9067 62.1843 19.0207C62.1211 19.046 62.0452 19.0586 61.9819 19.0586H61.9693Z" fill="#03004C"/>
<path d="M58.5547 28.569C57.9097 28.569 57.4164 28.0751 57.037 27.7079C56.9612 27.6319 56.8473 27.5179 56.7588 27.4546C56.7082 27.4926 56.6323 27.5432 56.5818 27.5812C56.2656 27.8092 55.7344 28.2017 55.0262 27.8978C54.6089 27.7205 54.4192 27.328 54.2674 27.0114C54.2295 26.9481 54.1915 26.8467 54.1536 26.7834C54.0397 26.8088 53.9386 26.8594 53.8374 26.9101C53.3189 27.138 52.7118 27.3026 52.0921 26.3782C51.9024 26.0996 51.8392 25.6817 51.7886 25.1498C51.3966 25.2765 51.0298 25.3524 50.7389 25.1245C50.1192 24.6686 50.0054 23.6935 49.9928 23.3009C49.9675 22.9464 49.9675 21.7307 50.6631 21.0848C50.8907 20.8695 51.2575 20.8822 51.4725 21.1101C51.6874 21.3381 51.6748 21.7053 51.4472 21.9206C51.2701 22.0852 51.1057 22.5918 51.1436 23.2376C51.1689 23.6302 51.2575 23.9341 51.346 24.0861C51.4598 24.0481 51.5989 24.0101 51.6874 23.9721C52.0542 23.8455 52.421 23.7062 52.7118 24.0354C52.8762 24.2127 52.9015 24.4407 52.9395 24.9092C52.9648 25.1372 53.0027 25.6184 53.0659 25.7577C53.1292 25.859 53.1798 25.9096 53.2177 25.935C53.2683 25.9223 53.3315 25.8843 53.3948 25.859C53.5718 25.783 53.8121 25.6817 54.103 25.631C54.8238 25.5044 55.1527 26.1629 55.3171 26.5048C55.3677 26.6188 55.4562 26.7961 55.5194 26.8467C55.5827 26.8721 55.6459 26.8467 55.9368 26.6441C56.1644 26.4795 56.4426 26.2769 56.8094 26.2642C57.2267 26.2642 57.5303 26.5555 57.8591 26.8847C58.0741 27.1 58.4282 27.4546 58.6052 27.4166C58.6305 27.4166 58.9214 27.328 59.3135 26.4035C59.4399 26.1123 59.7687 25.973 60.0596 26.0996C60.3505 26.2262 60.4896 26.5555 60.3631 26.8467C59.9205 27.8852 59.4399 28.417 58.8202 28.5437C58.7317 28.5563 58.6432 28.569 58.5673 28.569H58.5547Z" fill="#03004C"/>
<path d="M66.206 13.3854C66.0416 13.3854 65.9024 13.3221 65.8013 13.2208C65.7633 13.1828 65.7254 13.1321 65.7001 13.0815C65.0172 11.8151 63.7398 11.0426 63.7272 11.0426C63.449 10.878 63.3604 10.5361 63.5248 10.2575C63.6893 9.97888 64.0307 9.89024 64.3089 10.0549C64.3722 10.0929 65.8645 10.9793 66.6992 12.5243C66.7498 12.6129 66.7877 12.7142 66.7877 12.8282C66.7877 13.1448 66.5348 13.398 66.2186 13.398L66.206 13.3854Z" fill="#03004C"/>
<path d="M47.1852 27.214L46.0723 26.9354C46.0723 26.9354 46.0723 26.8847 46.1229 26.7961C47.0208 24.238 47.8555 20.9961 47.5266 19.9957C47.4255 19.6918 47.5899 19.3752 47.8934 19.2739C48.1969 19.1726 48.5131 19.3372 48.6143 19.6411C49.1707 21.3381 47.6531 25.8716 47.1852 27.214Z" fill="#03004C"/>
<path d="M54.0145 57.6446C53.888 57.6446 53.7615 57.6066 53.6477 57.5179C53.3948 57.3153 52.9015 56.7961 52.8383 56.7328C52.7245 56.6188 52.6739 56.4669 52.6739 56.3149C52.6739 56.1629 52.7498 56.011 52.8636 55.9097L52.9268 55.859C52.8383 55.7957 52.7877 55.7324 52.7371 55.6437C52.4842 55.1372 52.6613 54.0101 53.7995 53.0097C53.3821 52.8577 52.8383 52.5918 52.6865 51.9713C52.5727 51.5154 52.5854 50.9962 52.6233 49.9578C52.6486 49.2486 52.6739 48.2609 52.6739 46.8805C52.6739 46.5639 52.9268 46.3107 53.243 46.3107C53.5592 46.3107 53.8121 46.5639 53.8121 46.8805C53.8121 48.2862 53.7868 49.2739 53.7615 49.9958C53.7362 50.8949 53.7236 51.3888 53.7995 51.6927C53.8248 51.8067 54.1536 51.9206 54.3559 51.9839C54.4192 52.0093 54.4824 52.0346 54.5456 52.0473C54.7353 52.1106 55.178 52.2752 55.2538 52.7438C55.3297 53.2376 54.8871 53.5922 54.6974 53.7442C54.0903 54.2254 53.8627 54.6813 53.7995 54.9472C53.9259 54.9726 54.065 54.9852 54.1789 55.0105C54.4065 55.0359 54.5836 55.2005 54.6594 55.4158C54.7227 55.6311 54.6594 55.8717 54.495 56.011L54.0777 56.3782C54.1915 56.4922 54.3053 56.5935 54.3686 56.6441C54.6089 56.8468 54.6468 57.214 54.4444 57.4546C54.3306 57.5939 54.1662 57.6699 54.0018 57.6699L54.0145 57.6446Z" fill="#03004C"/>
<path d="M54.1156 57.7205C53.9006 57.7205 53.7615 57.6192 53.6603 57.5306C53.5086 57.4166 53.4201 57.2267 53.4327 57.024C53.4706 56.5808 53.7868 56.3655 54.0903 56.3909C54.4824 56.4162 54.7227 56.7834 54.7227 57.1253C54.7227 57.4419 54.4318 57.7205 54.1156 57.7205ZM53.5718 57.0874C53.5718 57.3913 53.85 57.5179 54.0271 57.5306C54.3306 57.5559 54.5709 57.29 54.5836 57.1127L54.1283 57.0747V57.138L53.5845 57.0874H53.5718ZM54.1156 56.5681V56.9227L54.3433 56.6188C54.3433 56.6188 54.2168 56.5681 54.1156 56.5681Z" fill="#03004C"/>
<path d="M64.3089 70.3081C63.8789 70.3081 63.3984 70.1815 62.8672 70.0422C62.3613 69.9155 61.7796 69.7636 61.1093 69.6749C59.9205 69.523 59.6929 68.6745 59.5285 68.054C59.3893 67.5221 59.2629 67.0536 58.6558 66.699C56.822 65.6099 53.9133 59.7087 53.5592 58.0371C53.42 57.3913 53.42 57.138 53.4453 56.9987C53.4833 56.6821 53.7615 56.4542 54.0777 56.4922C54.3939 56.5301 54.6215 56.8087 54.5836 57.1253C54.5836 57.138 54.5836 57.2773 54.6847 57.8092C55.0135 59.3668 57.8464 64.8881 59.2376 65.7112C60.2493 66.3064 60.4643 67.1422 60.6287 67.7501C60.7931 68.3706 60.8564 68.4846 61.2484 68.5352C61.9946 68.6365 62.6396 68.8011 63.1454 68.9278C63.8157 69.1051 64.3469 69.2317 64.5998 69.0797C64.8401 68.9278 65.0551 68.4212 65.2448 67.5475C65.523 66.2431 64.8148 65.7366 63.6007 65.0527C62.7534 64.5842 61.7163 63.989 61.944 62.7986C62.0199 62.4187 61.4887 61.4056 61.0967 60.6711C60.5402 59.6074 60.009 58.5943 60.1355 57.8218C60.262 57.1 60.8943 56.948 61.1725 56.8847C61.2231 56.6694 61.2737 56.5301 61.3622 56.4162C61.3622 56.3782 61.3749 56.3402 61.3875 56.2895C61.3369 56.1502 61.1725 55.8463 61.0587 55.6184C60.5402 54.6306 59.8826 53.3896 60.3884 52.5664C60.5528 52.2878 60.9322 51.9713 61.7037 51.9713C63.1328 51.528 65.4977 37.4208 62.5131 27.2013C62.4246 26.8974 62.6016 26.5808 62.9051 26.4922C63.2087 26.4035 63.5248 26.5808 63.6134 26.8847C66.2313 35.8505 65.0172 49.5778 62.8166 52.4651C62.4752 52.9084 62.1084 53.1236 61.6784 53.1236C61.4255 53.1236 61.3496 53.1743 61.3496 53.1743C61.2105 53.4529 61.8555 54.6813 62.0705 55.0738C62.4119 55.7197 62.6016 56.0743 62.5257 56.4162C62.4625 56.7454 62.4119 56.9227 62.2981 57.0747C62.2855 57.1253 62.2728 57.2013 62.2475 57.3153C62.1463 57.8345 61.6531 57.9485 61.4128 57.9991C61.3622 57.9991 61.299 58.0244 61.2484 58.0371C61.2231 58.455 61.729 59.4174 62.0957 60.1266C62.6649 61.2157 63.2087 62.2414 63.0569 63.0139C62.9937 63.3305 63.2719 63.5584 64.1445 64.0396C65.2195 64.6348 66.8257 65.5466 66.3451 67.7754C66.0795 69.0164 65.738 69.7003 65.1816 70.0422C64.9033 70.2195 64.5998 70.2828 64.2836 70.2828L64.3089 70.3081Z" fill="#03004C"/>
<path d="M21.5122 50.7302C21.3857 50.7302 21.2593 50.6922 21.1581 50.6036C20.9051 50.401 20.8672 50.0464 21.0696 49.7931C21.7651 48.932 22.486 48.5774 23.2448 48.1975C23.8645 47.8936 24.5095 47.577 25.2683 46.9185C26.748 45.6521 28.1771 45.4875 29.252 45.3862C29.5429 44.9683 30.4029 44.4744 32.5655 43.2967C33.8555 42.6002 35.5628 41.6631 36.1951 41.1312C36.1825 41.1186 36.1572 41.0932 36.1445 41.0679C36.0181 40.9033 35.9801 40.6627 36.056 40.4727C36.2584 40.0042 36.7642 39.6116 37.308 39.1811C37.6116 38.9531 37.9151 38.7125 38.0542 38.5352C39.0154 37.3828 39.8753 35.7619 40.71 34.2043C41.0388 33.5711 41.355 32.9759 41.6712 32.4187C41.9115 31.9881 42.3921 31.6209 42.8473 31.2537C43.037 31.1017 43.3026 30.8991 43.4923 30.7091C43.3153 30.6711 43.1382 30.5951 42.9991 30.4052C42.8853 30.2279 42.86 30.0126 42.9232 29.81C43.1762 29.0882 43.935 28.6956 44.6685 28.303C45.5411 27.8472 46.1229 27.5052 46.1734 26.9607C46.1987 26.6441 46.477 26.4162 46.7931 26.4415C47.1093 26.4668 47.3369 26.7454 47.3117 27.062C47.1978 28.2651 46.0849 28.8476 45.1996 29.3161C44.9467 29.4428 44.6811 29.5821 44.4661 29.7214C44.5673 29.772 44.6685 29.848 44.7444 29.962C44.8835 30.1519 44.9214 30.3799 44.8708 30.6331C44.7317 31.2157 44.1626 31.6716 43.5556 32.1528C43.2014 32.4314 42.7968 32.748 42.6703 32.9886C42.3668 33.5331 42.0506 34.1156 41.7218 34.7361C40.8618 36.3571 39.9765 38.0287 38.9395 39.2697C38.7118 39.5356 38.3704 39.8016 38.0163 40.0802C37.8898 40.1815 37.738 40.2954 37.5863 40.4221C37.8645 40.878 37.4851 41.3718 37.308 41.6125C36.8401 42.233 35.3478 43.0688 33.1093 44.2845C32.5528 44.5884 31.9079 44.943 31.3514 45.2596C31.4526 45.4622 31.4146 45.7155 31.2629 45.8927C30.8329 46.374 30.1879 46.4373 29.4417 46.5133C28.4679 46.6019 27.2538 46.7285 26.0145 47.7923C25.1418 48.5394 24.3957 48.9067 23.7507 49.2233C23.0551 49.5652 22.4986 49.8438 21.9675 50.5149C21.8537 50.6542 21.6893 50.7302 21.5248 50.7302H21.5122Z" fill="#03004C"/>
<path d="M20.6269 56.9101C20.3993 56.9101 20.1843 56.7708 20.0958 56.5555C19.6025 55.3398 19.3875 55.3905 18.7425 55.5677C18.4137 55.6564 18.0217 55.7704 17.5537 55.7324C17.402 55.7324 17.2376 55.6944 17.0605 55.6564C16.0741 55.3905 16.0994 54.2001 16.0994 53.4909C15.9855 53.5796 15.8464 53.7442 15.6441 54.0101C15.3532 54.3774 15.0244 54.8079 14.5312 54.9852C14.2529 55.0865 14.1012 55.1372 12.0777 53.8455C10.168 52.6298 10.0921 52.4652 10.0289 52.3132C9.54833 51.2241 9.81391 50.4517 10.1048 49.9958C11.2304 48.2862 14.6576 48.2609 14.6829 48.2609C14.9612 48.2609 15.3911 48.4255 16.4535 48.8687C16.6938 48.97 16.9973 49.0967 17.2882 49.2106C17.2629 49.084 17.2882 48.9574 17.3514 48.8181C17.4652 48.6154 17.6676 48.4888 17.9205 48.4888C18.869 48.4888 19.7796 48.932 20.6775 49.8438C21.1834 50.3504 21.6387 50.9455 22.0687 51.5154C22.2457 51.7433 22.4101 51.9713 22.5872 52.1739C22.7895 52.4272 22.7516 52.7818 22.4986 52.9844C22.2457 53.187 21.8916 53.149 21.6892 52.8957C21.5122 52.6805 21.3351 52.4525 21.1581 52.2119C20.7407 51.6674 20.3107 51.1102 19.8555 50.6543C19.514 50.3124 19.1978 50.0591 18.8817 49.8945C18.907 50.1097 18.8564 50.325 18.6414 50.515C18.2493 50.8442 17.7308 50.6543 16.0108 49.9325C15.505 49.7172 14.822 49.4386 14.645 49.4132C13.7977 49.4132 11.6477 49.7172 11.0533 50.629C10.9774 50.7429 10.7624 51.0848 11.028 51.7687C11.4959 52.1486 13.5953 53.5036 14.2656 53.8328C14.4173 53.7189 14.5818 53.5036 14.7335 53.3136C15.1382 52.7944 15.7453 52.0219 16.7444 52.3385C17.2502 52.5032 17.2502 53.0224 17.2376 53.5416C17.2376 53.7948 17.2376 54.466 17.364 54.58C17.4399 54.6053 17.5285 54.618 17.6043 54.618C17.8952 54.6433 18.1608 54.5673 18.439 54.4913C19.4128 54.2254 20.3613 54.1494 21.1581 56.1629C21.2719 56.4542 21.1328 56.7961 20.8419 56.9101C20.766 56.9354 20.7028 56.9481 20.6269 56.9481V56.9101Z" fill="#03004C"/>
<path d="M41.4182 69.6876C41.2033 69.6876 41.0009 69.5736 40.8997 69.371C40.7606 69.0924 40.8744 68.7378 41.1527 68.5985C43.5935 67.3702 44.3523 66.3317 45.7055 64.4322C45.9964 64.027 46.3126 63.5837 46.6793 63.1025C47.4508 62.0641 48.336 59.9113 49.0569 58.1764C49.8031 56.3782 50.2331 55.3398 50.6251 54.9472C51.3713 54.2127 53.8753 52.1992 53.9892 52.1232C54.2421 51.9206 54.5962 51.9713 54.7986 52.2119C55.0009 52.4651 54.9503 52.8197 54.71 53.0223C54.6847 53.0477 52.1427 55.0738 51.4345 55.7703C51.1942 56.0109 50.5998 57.4546 50.1192 58.6196C49.3478 60.5065 48.4625 62.6466 47.6025 63.799C47.2484 64.2802 46.9323 64.7108 46.6414 65.116C45.2249 67.0916 44.365 68.2819 41.6712 69.6369C41.5827 69.6749 41.5068 69.7003 41.4182 69.7003V69.6876Z" fill="#03004C"/>
<path d="M25.0786 90C24.3577 90 23.7127 89.8987 23.308 89.8353C23.1689 89.81 23.0551 89.7974 22.9919 89.7974C21.0949 89.9746 18.5023 86.6188 15.7706 82.8704C15.4164 82.3892 15.1129 81.9586 14.86 81.6293C14.6703 81.3761 14.4173 81.1355 14.1644 80.8822C13.6459 80.3757 13.0515 79.8185 12.8239 79.0207C12.3812 77.4884 13.5447 75.2469 14.7715 72.8788C15.8085 70.8653 16.9846 68.5859 16.5799 67.5854C15.1003 63.8877 15.2647 59.5441 17.0226 55.3398C17.1491 55.0485 17.4779 54.9092 17.7687 55.0358C18.0596 55.1625 18.1987 55.4917 18.0723 55.783C16.4282 59.696 16.2764 63.7357 17.6423 67.1549C18.2367 68.6492 17.0479 70.9666 15.7832 73.4107C14.7588 75.3862 13.608 77.6277 13.9241 78.7167C14.0632 79.2106 14.4932 79.6285 14.9485 80.0717C15.2267 80.3503 15.5176 80.6289 15.7706 80.9455C16.0235 81.2748 16.3397 81.718 16.6938 82.2119C18.1229 84.1874 21.449 88.7969 22.916 88.6703C23.0425 88.6703 23.1942 88.6703 23.4724 88.7209C24.4083 88.8602 26.5962 89.2022 27.3803 87.9611C27.6838 87.4799 27.4562 86.9734 27.3044 86.7201C26.8365 85.973 25.673 85.3018 24.1174 85.4791C22.9919 85.6057 21.9548 85.0358 21.1201 83.8328C19.9946 82.2119 19.4381 79.6158 19.9946 78.4888C20.551 77.3617 21.411 77.1464 22.0939 76.9565C22.7769 76.7792 23.1816 76.6779 23.4092 75.8041C23.4977 75.5002 23.8139 75.3229 24.1174 75.3989C24.421 75.4875 24.598 75.7914 24.5221 76.108C24.1174 77.6277 23.1183 77.8809 22.3848 78.0709C21.7778 78.2229 21.3478 78.3368 21.019 78.9953C20.7154 79.6158 21.0569 81.7307 22.056 83.1616C22.4607 83.7442 23.1183 84.4153 23.991 84.3267C25.7995 84.1241 27.4688 84.8206 28.2656 86.0996C28.7715 86.9101 28.7967 87.8345 28.3415 88.5563C27.5953 89.7214 26.2294 90 25.0533 90H25.0786Z" fill="#03004C"/>
<path d="M38.5095 88.1638C37.7507 88.1638 37.0551 88.0625 36.5872 87.9991C36.4228 87.9738 36.3089 87.9612 36.2457 87.9485C34.2602 88.1258 31.0479 84.1747 27.6585 79.7678C27.1906 79.16 26.7859 78.6281 26.495 78.2735C26.3053 78.0329 25.9639 77.7037 25.5971 77.3491C25.0912 76.8552 24.5221 76.298 24.1048 75.7661C23.8013 75.3862 23.6116 75.057 23.523 74.753C23.0425 73.1954 23.6748 71.9797 24.3451 70.6754C24.7751 69.8396 25.2177 68.9911 25.4833 67.9147C25.3695 67.7754 25.0786 67.5095 24.813 67.2689C24.0163 66.5597 22.8148 65.4833 21.6766 63.7484C21.4995 63.4825 21.5754 63.1279 21.841 62.9506C22.1066 62.7733 22.4607 62.8493 22.6378 63.1152C23.7001 64.7108 24.8257 65.7366 25.5845 66.4078C26.318 67.0663 26.7733 67.4715 26.6468 68.0287C26.3686 69.3077 25.8374 70.3081 25.3821 71.1946C24.7498 72.4103 24.2945 73.2967 24.636 74.3985C24.6739 74.5124 24.7624 74.7151 25.028 75.0443C25.3948 75.5129 25.9386 76.0447 26.4191 76.5133C26.8238 76.9059 27.1653 77.2478 27.393 77.5264C27.6965 77.8936 28.1012 78.4255 28.5818 79.046C30.3902 81.4014 34.6522 86.9227 36.1951 86.7834C36.3216 86.7834 36.4734 86.7834 36.7769 86.8341C37.7127 86.9734 40.1789 87.328 41.0388 86.0616C41.3171 85.6437 41.178 85.2258 41.0136 84.9472C40.5583 84.1747 39.2556 83.4276 37.4851 83.6049C36.2204 83.7315 35.0316 83.0603 34.121 81.7053C33.0081 80.0464 32.5402 77.6657 33.0967 76.6019C33.7164 75.4495 34.9052 75.2849 35.8537 75.1583C36.9033 75.019 37.5104 74.8924 37.7507 74.1072C38.0921 72.9295 38.6486 72.2077 39.1924 71.5112C39.7236 70.8273 40.2295 70.1815 40.4697 69.0798C40.5456 68.7758 40.8491 68.5732 41.1527 68.6492C41.4562 68.7252 41.6585 69.0291 41.5827 69.333C41.2791 70.688 40.6721 71.4732 40.0903 72.2203C39.5971 72.8535 39.1292 73.4614 38.8509 74.4365C38.3957 75.9814 37.0804 76.1587 36.0181 76.3107C35.0569 76.4373 34.4372 76.5513 34.121 77.1591C33.8302 77.7037 34.121 79.6412 35.0822 81.0848C35.5501 81.7813 36.3216 82.5791 37.3713 82.4778C39.6603 82.2372 41.3424 83.263 42.0126 84.3774C42.4806 85.1752 42.4806 86.0363 42.0126 86.7328C41.2285 87.8978 39.8121 88.1638 38.5601 88.1638H38.5095Z" fill="#03004C"/>
<path d="M61.7796 27.176C61.1599 27.176 60.5655 27.1 60.2999 26.8341C60.0723 26.6061 60.0723 26.2515 60.2999 26.0236C60.5023 25.821 60.8184 25.7957 61.0461 25.9729C61.2611 26.0363 62.0452 26.0616 62.9178 25.9603C63.5248 25.897 63.8031 25.7957 63.8537 25.7703C64.0054 25.631 64.1192 25.4284 64.2584 25.1751C64.4101 24.8965 64.5872 24.5799 64.8781 24.314C65.131 24.0861 65.4724 23.9848 65.8013 23.8961C65.9657 23.8455 66.2692 23.7695 66.3324 23.6935C66.3324 23.6935 66.3324 23.5035 65.991 22.997C65.8139 22.7311 65.8898 22.3765 66.1554 22.1992C66.421 22.0219 66.7751 22.0979 66.9521 22.3638C67.2556 22.8197 67.6351 23.5035 67.4074 24.1241C67.1924 24.7192 66.5601 24.8839 66.1048 25.0105C65.953 25.0485 65.7001 25.1245 65.6369 25.1751C65.4851 25.3144 65.3839 25.5044 65.2575 25.7323C65.093 26.0363 64.9033 26.3655 64.5745 26.6694C64.4734 26.7581 64.2204 26.986 63.0443 27.1127C62.6902 27.1507 62.2222 27.2013 61.7669 27.2013L61.7796 27.176Z" fill="#03004C"/>
<path d="M3.89521 48.0076C3.57904 48.0076 3.32611 47.7543 3.32611 47.4377C3.32611 45.9434 4.29991 44.5124 5.86811 43.7273C6.14634 43.588 6.50045 43.702 6.63957 43.9806C6.77868 44.2592 6.66486 44.6138 6.38663 44.753C5.23577 45.3356 4.47696 46.3866 4.47696 47.4377C4.47696 47.7543 4.22403 48.0076 3.90786 48.0076H3.89521Z" fill="#03004C"/>
<path d="M0.569106 47.5897C0.252936 47.5897 0 47.3364 0 47.0198C0 45.4749 0.796748 43.6513 2.33966 43.1448C2.64318 43.0434 2.95935 43.2081 3.06052 43.512C3.1617 43.8159 2.99729 44.1325 2.69377 44.2338C1.71996 44.5504 1.15086 45.9054 1.15086 47.0198C1.15086 47.3364 0.897922 47.5897 0.581752 47.5897H0.569106Z" fill="#03004C"/>
</g>
<defs>
<clipPath id="clip0_85_175">
<rect width="70" height="90" fill="white"/>
</clipPath>
</defs>
</svg>
