<svg width="67" height="73" viewBox="0 0 67 73" fill="none" xmlns="http://www.w3.org/2000/svg">
<g clip-path="url(#clip0_85_1032)">
<path d="M43.6057 28.1628C43.9717 26.6789 44.0354 25.6098 44.0354 25.6098L45.1972 24.9875C45.4359 25.4822 45.7542 25.9609 46.1361 26.3917C45.977 27.2853 45.2767 28.2905 44.0991 28.2267L43.6216 28.1469L43.6057 28.1628Z" fill="white"/>
<path d="M21.1185 20.5197C22.7577 20.424 25.6223 18.5571 28.5347 16.1317L29.0917 16.403C35.3302 17.4082 39.6271 11.2332 39.6271 11.2332C41.3618 13.116 44.3059 16.6583 44.2423 20.4399C44.2264 21.5888 44.3855 23.3918 45.1653 24.9875L44.0036 25.6098C44.0036 25.6098 43.9399 26.6788 43.5739 28.1628C43.1123 30.0616 42.1893 32.6465 40.3114 34.6251C38.6404 36.3962 36.2373 37.7046 32.752 37.6408C29.8397 37.5929 27.6912 36.7313 26.0998 35.5027C23.2033 33.2688 22.1371 29.8382 21.7392 27.7639L21.4527 27.5883C17.1081 27.5883 16.2805 18.94 21.1026 20.4718V20.5197H21.1185ZM27.0387 21.6367C27.0865 22.1632 27.5957 22.5462 28.1686 22.4983C28.7416 22.4504 29.1713 21.9717 29.1235 21.4452C29.0758 20.9186 28.5665 20.5357 27.9936 20.5835C27.4207 20.6314 26.991 21.1101 27.0387 21.6367ZM38.6404 21.6367C38.6881 21.1101 38.2584 20.6474 37.6855 20.5835C37.1126 20.5357 36.6033 20.9186 36.5556 21.4452C36.5078 21.9717 36.9375 22.4345 37.5105 22.4983C38.0834 22.5462 38.5926 22.1632 38.6404 21.6367ZM36.1418 29.4712L36.0781 29.3754C36.0781 29.3754 34.5822 29.1999 32.9748 29.1999C31.3675 29.1999 29.585 29.4712 29.585 29.4712L29.5214 29.5669C29.6328 31.5455 31.0651 32.5827 32.9589 32.5188C34.6458 32.471 35.9031 31.2902 36.1418 29.4552V29.4712Z" fill="white"/>
<path d="M32.9748 29.2C34.5822 29.2 36.0781 29.3755 36.0781 29.3755L36.1418 29.4712C35.9031 31.3062 34.6299 32.4869 32.9589 32.5348C31.0651 32.5827 29.6328 31.5615 29.5214 29.5829L29.585 29.4872C29.585 29.4872 31.3675 29.2 32.9748 29.2159V29.2Z" fill="white"/>
<path d="M40.4387 37.3058V40.2896C40.4387 40.2896 40.3751 40.2577 40.3432 40.2418C39.4998 44.3106 28.7575 46.4966 26.0361 40.3694H26.0043V35.6623L26.1157 35.5187C27.7071 36.7473 29.8715 37.609 32.7679 37.6569C36.2532 37.7207 38.6563 36.4123 40.3273 34.6411L40.4387 34.7369V37.3058Z" fill="white"/>
<path d="M46.1202 26.4076C45.7382 25.9768 45.42 25.4981 45.1812 25.0035C44.4014 23.4078 44.2423 21.6048 44.2582 20.4559C44.3059 16.6743 41.3777 13.132 39.643 11.2491C39.643 11.2491 35.3461 17.4242 29.1076 16.419L28.5506 16.1477C25.6382 18.5731 22.7736 20.44 21.1344 20.5357V20.4878C16.3124 18.956 17.1399 27.6043 21.4846 27.6043L21.771 27.7799C22.1689 29.8701 23.2352 33.3007 26.1316 35.5187L26.0202 35.6623V37.6568H25.8133C25.8133 37.4813 19.2884 37.2419 14.1639 32.12C14.0366 31.9923 14.8005 31.6253 15.5962 27.4288C16.3124 23.5833 15.1665 21.5729 15.8827 17.2168C17.124 9.82903 20.0363 5.47297 27.4048 1.8828C31.3038 -0.0159971 37.2877 -0.0479095 40.1204 3.70182L40.2955 3.92521C40.4546 4.24433 40.8843 4.57941 41.1549 4.83471L41.3618 4.93045C48.0458 3.68586 50.3853 19.1475 50.3853 25.8013C50.3853 29.0085 51.7698 32.3433 51.7698 32.3433C51.7698 32.3433 44.1786 38.1674 40.7093 37.2898H40.4387V34.7208L40.3273 34.6251C42.2052 32.6306 43.1283 30.0456 43.5898 28.1628L44.0672 28.2426C45.2449 28.3064 45.9451 27.3012 46.1043 26.4076H46.1202Z" fill="#FBDEE5"/>
<path d="M27.0387 21.6366C26.991 21.1101 27.4207 20.6473 27.9936 20.5835C28.5665 20.5356 29.0758 20.9186 29.1235 21.4451C29.1713 21.9717 28.7416 22.4344 28.1686 22.4983C27.5957 22.5621 27.0865 22.1632 27.0387 21.6366Z" fill="#03004C"/>
<path d="M37.6855 20.5995C38.2584 20.6474 38.6881 21.1261 38.6404 21.6526C38.5926 22.1792 38.0834 22.5621 37.5104 22.5143C36.9375 22.4664 36.5078 21.9877 36.5556 21.4611C36.6033 20.9346 37.1126 20.5516 37.6855 20.5995Z" fill="#03004C"/>
<path d="M32.8953 44.7733C30.0147 44.7733 26.8477 43.6883 25.4632 40.6087C25.32 40.3055 25.4632 39.9385 25.7815 39.7949C26.0998 39.6513 26.4499 39.7949 26.5931 40.0981C27.914 43.05 31.2879 43.7681 34.0252 43.4808C36.9534 43.1617 39.4043 41.7097 39.7385 40.0981C39.8021 39.763 40.1363 39.5556 40.4706 39.6194C40.8048 39.6832 41.0116 40.0183 40.948 40.3375C40.5024 42.5075 37.7173 44.3106 34.1684 44.6935C33.7546 44.7414 33.3409 44.7573 32.9112 44.7573L32.8953 44.7733Z" fill="#03004C"/>
<path d="M33.0226 38.2632C32.943 38.2632 32.8475 38.2632 32.7679 38.2632C29.9988 38.2153 27.6276 37.4494 25.7497 35.9974C22.6304 33.6039 21.5323 29.8861 21.1663 27.8756C20.9594 26.7587 20.9276 26.0087 20.9276 25.9768C20.9276 25.6417 21.1822 25.3545 21.5164 25.3386C21.8506 25.3386 22.1371 25.5939 22.153 25.9289C22.153 25.9289 22.1848 26.6151 22.3758 27.6363C22.7259 29.4712 23.7126 32.854 26.5135 35.0081C28.1846 36.3005 30.3012 36.9707 32.7998 37.0186C35.6962 37.0664 38.0834 36.125 39.8976 34.1943C41.6801 32.2955 42.5872 29.7744 43.0169 28.0033C43.3511 26.5991 43.4307 25.562 43.4307 25.562C43.4466 25.2269 43.733 24.9716 44.0831 24.9875C44.4173 25.0035 44.672 25.3067 44.6561 25.6417C44.6561 25.6896 44.5765 26.7746 44.2105 28.2905C43.7489 30.2052 42.7622 32.9338 40.7888 35.04C38.7836 37.1622 36.1736 38.2472 33.0226 38.2472V38.2632Z" fill="#03004C"/>
<path d="M21.4686 28.1948C19.8931 28.1948 18.5086 27.1896 17.7447 25.5141C16.933 23.6951 17.0603 21.6368 18.0629 20.5198C18.4926 20.0411 19.4953 19.3072 21.2936 19.8816C21.6119 19.9773 21.8029 20.3284 21.6915 20.6475C21.58 20.9666 21.2458 21.1581 20.9116 21.0464C20.0363 20.7751 19.3838 20.8709 18.9701 21.3336C18.3017 22.0835 18.2539 23.6632 18.8587 25.0035C19.1133 25.5939 19.8931 26.9502 21.4527 26.9502C21.5164 26.9502 21.5482 26.9502 21.58 26.9502C21.9143 26.9502 22.2007 27.2215 22.2007 27.5566C22.2007 27.8916 21.9302 28.1629 21.58 28.1788C21.5164 28.1788 21.4846 28.1788 21.4527 28.1788L21.4686 28.1948Z" fill="#03004C"/>
<path d="M44.1786 28.8649C44.1786 28.8649 44.0991 28.8649 44.0513 28.8649C43.7171 28.849 43.4466 28.5618 43.4625 28.2267C43.4784 27.8916 43.7649 27.6203 44.115 27.6363C44.9584 27.6682 45.42 26.8704 45.5154 26.3119C45.5791 25.9768 45.8974 25.7535 46.2316 25.8173C46.5658 25.8811 46.7886 26.2002 46.7249 26.5194C46.5181 27.7001 45.595 28.8649 44.1945 28.8649H44.1786Z" fill="#03004C"/>
<path d="M32.7998 26.5194C32.4656 26.5194 32.1473 26.4556 31.8608 26.312C31.6221 26.2003 31.5107 25.8971 31.638 25.6577C31.7494 25.4184 32.0518 25.3067 32.2905 25.4344C32.6088 25.5939 33.1181 25.562 33.5159 25.3705C33.7546 25.2588 34.057 25.3546 34.1684 25.5939C34.2798 25.8333 34.1843 26.1364 33.9456 26.2481C33.5796 26.4237 33.1817 26.5194 32.7998 26.5194Z" fill="#03004C"/>
<path d="M32.6725 35.2314C32.3383 35.2314 32.02 35.1676 31.7494 35.04C31.5107 34.9283 31.3993 34.6251 31.5107 34.3857C31.6221 34.1464 31.9245 34.0347 32.1632 34.1464C32.4815 34.306 32.9907 34.2741 33.4045 34.0826C33.6432 33.9709 33.9456 34.0826 34.057 34.3219C34.1684 34.5613 34.057 34.8644 33.8183 34.9761C33.4523 35.1516 33.0544 35.2314 32.6725 35.2314Z" fill="#03004C"/>
<path d="M40.4387 41.1353C40.1045 41.1353 39.8181 40.8641 39.8181 40.529V34.7528C39.8181 34.4177 40.0886 34.1465 40.4387 34.1465C40.7888 34.1465 41.0594 34.4177 41.0594 34.7528V40.529C41.0594 40.8641 40.7888 41.1353 40.4387 41.1353Z" fill="#03004C"/>
<path d="M26.0043 41.2151C25.6701 41.2151 25.3836 40.9439 25.3836 40.6088V35.6464C25.3836 35.3113 25.6542 35.04 26.0043 35.04C26.3544 35.04 26.6249 35.3113 26.6249 35.6464V40.6088C26.6249 40.9439 26.3544 41.2151 26.0043 41.2151Z" fill="#03004C"/>
<path d="M38.6404 17.903C38.5449 17.903 38.4494 17.8711 38.3698 17.8232C38.3698 17.8232 37.5423 17.2966 36.9534 17.5998C36.7147 17.7275 36.4124 17.6317 36.285 17.3924C36.1577 17.153 36.2532 16.8499 36.4919 16.7222C37.6059 16.1318 38.8632 16.9456 38.9109 16.9935C39.1337 17.1371 39.1974 17.4562 39.0382 17.6796C38.9428 17.8232 38.7836 17.903 38.6245 17.903H38.6404Z" fill="#03004C"/>
<path d="M32.8157 33.1572C30.5717 33.1572 29.0439 31.785 28.9166 29.6149C28.9007 29.2798 29.1553 28.9926 29.4896 28.9607C29.8238 28.9607 30.1261 29.2 30.142 29.5351C30.2375 31.0669 31.272 31.9605 32.943 31.9126C34.3435 31.8807 35.3302 30.9074 35.5371 29.3756C35.5848 29.0405 35.8872 28.8011 36.2214 28.849C36.5556 28.8969 36.7943 29.2 36.7466 29.5351C36.4601 31.6573 34.9801 33.0774 32.9748 33.1253C32.9271 33.1253 32.8634 33.1253 32.8157 33.1253V33.1572Z" fill="#03004C"/>
<path d="M29.5691 30.0935C29.2668 30.0935 29.0121 29.8701 28.9644 29.5829C28.9166 29.2478 29.1394 28.9287 29.4736 28.8808C29.5532 28.8808 31.3356 28.5936 32.9748 28.5936C34.5981 28.5936 36.0941 28.7691 36.1577 28.7851C36.4919 28.817 36.7306 29.1361 36.6988 29.4712C36.667 29.8063 36.3487 30.0456 36.0145 30.0137C36.0145 30.0137 34.5344 29.8382 32.9748 29.8382C31.4311 29.8382 29.6964 30.1095 29.6805 30.1095C29.6487 30.1095 29.6169 30.1095 29.585 30.1095L29.5691 30.0935Z" fill="#03004C"/>
<path d="M47.6162 28.1948C47.5207 28.1948 47.4252 28.1788 47.3297 28.1309C46.6931 27.7958 46.1361 27.3491 45.6587 26.8066C45.2608 26.3598 44.9107 25.8332 44.6242 25.2588C43.7171 23.4238 43.6216 21.4452 43.6375 20.424C43.6694 17.8232 42.2211 14.951 39.1815 11.6481C38.9587 11.3928 38.9746 11.0098 39.2133 10.7865C39.4679 10.5631 39.8499 10.579 40.0886 10.8184C43.3511 14.3607 44.9107 17.52 44.8789 20.44C44.8789 21.174 44.9266 23.0568 45.7382 24.7163C45.977 25.195 46.2475 25.6098 46.5817 25.9928C46.9637 26.4236 47.4093 26.7746 47.9026 27.0299C48.205 27.1895 48.3164 27.5565 48.1572 27.8597C48.0458 28.0671 47.839 28.1948 47.6162 28.1948Z" fill="#03004C"/>
<path d="M30.4922 17.121C30.0147 17.121 29.5055 17.0891 28.9962 16.9934C28.662 16.9455 28.4392 16.6264 28.4869 16.2913C28.5347 15.9562 28.853 15.7329 29.1872 15.7807C34.9641 16.7221 39.086 10.93 39.1178 10.8662C39.3088 10.5949 39.6907 10.5151 39.9772 10.7066C40.2477 10.8981 40.3273 11.281 40.1363 11.5683C39.9613 11.8076 36.2055 17.1051 30.4922 17.1051V17.121Z" fill="#03004C"/>
<path d="M20.9435 21.1421C20.6093 21.1421 20.291 21.0623 20.0204 20.9187C19.7181 20.7591 19.6067 20.3921 19.7658 20.089C19.9249 19.7858 20.291 19.6741 20.5934 19.8337C20.7048 19.8975 20.8639 19.9134 21.0708 19.8975C22.4235 19.8177 25.0653 18.2221 28.1527 15.6531C29.8874 14.2011 31.7176 12.4778 33.2772 10.8184C33.5159 10.579 33.8979 10.5631 34.1525 10.7865C34.4071 11.0258 34.4071 11.4087 34.1843 11.6481C32.5929 13.3554 30.7309 15.1106 28.9485 16.5945C26.5613 18.5891 23.267 20.9985 21.1663 21.1261C21.0867 21.1261 21.023 21.1261 20.9435 21.1261V21.1421Z" fill="#03004C"/>
<path d="M41.505 38.0079C41.1708 38.0079 40.8525 37.9759 40.566 37.8962C40.2318 37.8164 40.0409 37.4813 40.1204 37.1462C40.2 36.8111 40.5342 36.6197 40.8684 36.6994C43.3352 37.3377 48.7302 33.8433 51.0378 32.1359C50.6558 31.0988 49.7805 28.45 49.7805 25.8172C49.7805 19.7858 48.0618 9.43015 44.3696 6.36654C43.4784 5.61659 42.5235 5.36129 41.4891 5.55277C41.1549 5.61659 40.8366 5.39321 40.7729 5.05812C40.7093 4.72304 40.9321 4.40392 41.2663 4.34009C42.6667 4.08479 43.9876 4.43583 45.1653 5.42512C49.5895 9.11102 51.0219 20.7591 51.0219 25.8172C51.0219 28.8649 52.3428 32.0881 52.3587 32.12C52.4701 32.3753 52.3905 32.6785 52.1677 32.838C52.0881 32.9018 50.2102 34.3379 47.8708 35.6782C45.2131 37.21 43.0805 37.9919 41.505 37.9919V38.0079Z" fill="#03004C"/>
<path d="M25.7815 38.2632C25.6701 38.2632 25.5746 38.2313 25.4791 38.1834C25.3995 38.1834 25.2881 38.1515 25.1608 38.1196C23.4102 37.8164 18.0948 36.9228 13.7024 32.5349C13.3363 32.1679 13.5751 31.7371 13.6705 31.5775C13.8456 31.2584 14.4026 30.285 14.9596 27.3012C15.3097 25.4822 15.1983 24.078 15.1029 22.5941C14.9915 21.0144 14.8801 19.3709 15.2461 17.1051C16.5511 9.25464 19.8772 4.83475 27.1024 1.32437C31.4152 -0.765905 37.6378 -0.590386 40.5979 3.33486C40.8048 3.60612 40.7411 3.98907 40.4706 4.1965C40.2 4.40393 39.8181 4.34011 39.6112 4.06885C37.59 1.38819 32.5451 0.0319092 27.6276 2.42535C20.7207 5.77617 17.6969 9.81311 16.4397 17.3126C16.0896 19.4348 16.201 20.9985 16.2964 22.5143C16.4078 24.0142 16.5192 25.562 16.1373 27.5405C15.628 30.2531 15.1188 31.4339 14.8323 31.9764C18.8905 35.8378 23.7126 36.6516 25.3359 36.9228C25.9088 37.0186 26.3703 37.0984 26.3703 37.6409C26.3703 37.976 26.0839 38.2632 25.7496 38.2632H25.7815Z" fill="#03004C"/>
<path d="M28.7893 60.602C28.4074 60.1871 28.0254 59.7723 27.6435 59.3574C27.2297 58.8947 26.4658 56.8682 27.7708 56.8682L28.0732 56.597C27.9777 56.4853 27.8663 56.3736 27.7708 56.2619C27.4207 55.847 25.7974 53.4376 27.2456 53.5493C27.3411 53.5493 27.4525 53.5653 27.5639 53.5972C29.219 54.0121 33.1021 57.5703 34.5344 58.8308C35.0119 59.2617 36.3805 60.6977 37.1444 60.1233C38.3221 59.2457 32.7043 53.5972 32.0677 52.7515C31.7494 52.3207 30.158 51.2037 30.8264 50.5336C31.7812 49.5922 33.2135 51.0921 33.9297 51.6665C35.6325 53.0228 38.0197 54.8737 39.7226 56.8204L40.3114 56.7725V53.1345H40.4705C42.1416 54.7939 45.3881 57.5863 45.977 59.9318C46.3748 61.5115 46.7409 64.9581 46.2953 67.7664V67.8142L48.5074 72.3937V72.4735L38.4653 72.4096C38.4653 72.4096 37.6696 71.1651 37.3831 70.9576C36.7784 70.4789 35.919 70.0322 35.5211 69.6811C33.5955 68.0695 31.447 66.3782 29.8874 64.4155C29.3622 63.7613 27.3093 61.687 28.5983 60.8413L28.8211 60.6339L28.7893 60.602Z" fill="white"/>
<path d="M2.25986 40.9598L2.40309 40.6248C3.03966 41.1034 3.81948 41.4864 4.34465 41.7257C4.55154 41.8215 5.26769 42.0927 5.85653 42.2044L5.8247 42.364C7.97316 45.2999 4.23325 45.1244 2.1962 43.9437C0.907124 43.1937 0.286458 42.0289 2.27577 40.9758L2.25986 40.9598Z" fill="white"/>
<path d="M5.84062 42.1885C5.2677 42.0768 4.53563 41.8055 4.32874 41.7098C3.80356 41.4704 3.02375 41.0875 2.38717 40.6088C1.89382 40.2418 1.48005 39.795 1.33682 39.3482C0.89121 37.8484 2.37126 36.8112 3.72399 36.8112L4.51971 36.5719C4.79026 36.9548 3.77173 34.5933 2.97601 32.3754C2.18028 30.1574 -0.35012 26.4237 0.938954 25.3227C2.06888 24.3653 3.64442 27.3013 4.281 28.9288C4.96532 30.684 8.14822 36.0134 8.84846 35.9017C9.54869 35.79 9.54869 29.583 9.54869 27.6204C9.54869 26.9981 8.99169 22.8494 10.9333 22.5144C12.4451 22.2591 12.1428 26.2481 12.3974 28.6735C12.7316 31.7531 12.6838 34.2901 12.843 35.2315C13.1454 36.9867 15.1665 37.2101 15.9622 38.6143C16.4397 39.4759 16.5192 41.1832 16.2646 43.2894C16.0736 44.917 15.6758 46.7679 15.1028 48.6188L15.6917 49.4326C14.2276 50.3421 9.43729 53.2143 6.98646 53.3898V52.9111C6.98646 52.1931 7.12969 51.475 7.12969 50.741L7.22518 50.5815C5.80879 49.5284 0.89121 46.1616 2.06888 44.0075L2.11663 43.9117C4.15368 45.1085 7.89359 45.268 5.74513 42.3321L5.77696 42.1725L5.84062 42.1885Z" fill="white"/>
<path d="M40.9957 41.4544V40.7205H41.2344C45.8974 42.8107 56.9102 43.9755 59.9021 49.0656C60.8729 50.725 65.0107 64.99 66.3952 72.3937V72.5852L48.5074 72.4735V72.3937L46.2952 67.8142V67.7664C46.7249 64.9581 46.3589 61.5115 45.977 59.9318C45.3881 57.5863 42.1416 54.7939 40.4705 53.1344H40.3273L40.3751 42.8586C40.3751 42.731 40.3273 42.6193 40.2477 42.5235C40.3591 42.4278 40.7729 41.9172 41.0116 41.4544H40.9957Z" fill="#E7DD9A"/>
<path d="M27.2774 53.1185L27.3888 43.7043V42.8427C27.3888 42.5714 27.6276 42.348 27.914 42.348H39.8499C39.9931 42.348 40.1204 42.4118 40.2159 42.4916C40.1841 42.5235 40.2159 42.5395 40.2159 42.4916C40.2955 42.5874 40.3432 42.6991 40.3432 42.8267L40.2955 53.1026V56.7406L39.6907 56.7885C37.9879 54.8577 35.6007 53.0068 33.8979 51.6346C33.1976 51.0761 31.7494 49.5603 30.7945 50.5017C30.1261 51.1718 31.7176 52.2888 32.0359 52.7196C32.6724 53.5653 38.2903 59.1979 37.1126 60.0914C36.3487 60.6658 34.98 59.2298 34.5026 58.7989C33.0703 57.5384 29.1872 53.9802 27.5321 53.5653C27.4207 53.5334 27.3093 53.5174 27.2138 53.5174L27.2456 53.0866L27.2774 53.1185ZM28.7893 45.1563C28.7893 45.5552 29.1076 45.8744 29.5055 45.8744C29.9033 45.8744 30.2216 45.5552 30.2216 45.1563C30.2216 44.7574 29.9033 44.4383 29.5055 44.4383C29.1076 44.4383 28.7893 44.7574 28.7893 45.1563Z" fill="#898D91"/>
<path d="M29.5055 44.4384C29.9033 44.4384 30.2216 44.7575 30.2216 45.1564C30.2216 45.5553 29.9033 45.8744 29.5055 45.8744C29.1076 45.8744 28.7893 45.5553 28.7893 45.1564C28.7893 44.7575 29.1076 44.4384 29.5055 44.4384Z" fill="#03004C"/>
<path d="M27.7708 56.8683C26.4658 56.8683 27.2297 58.8948 27.6435 59.3575C28.0254 59.7724 28.4074 60.1872 28.7893 60.6021L28.5665 60.8095C27.2774 61.6711 29.3304 63.7455 29.8556 64.3837C31.4311 66.3463 33.5637 68.0537 35.4893 69.6493C35.9031 69.9844 36.7466 70.4471 37.3513 70.9258C37.6378 71.1492 38.4335 72.3778 38.4335 72.3778L18.5881 72.2661V71.8513L16.9489 50.9645H16.9648C16.9648 50.5656 16.7739 49.4646 16.3283 49.305L15.9781 49.2412C15.9781 49.2412 15.819 49.3369 15.6917 49.4167L15.1029 48.6029C15.6758 46.752 16.0736 44.9011 16.2646 43.2736L16.6306 43.3214C17.315 43.3214 17.9675 42.747 18.6359 42.6034L19.0974 42.6353C21.023 42.013 22.8214 41.4386 24.2059 40.7046L24.2696 40.7684L25.4314 40.8003C25.4314 42.4438 27.0705 43.6884 27.0705 43.6884H27.3252L27.2138 53.1186L27.182 53.5494C25.7337 53.4218 27.357 55.8311 27.7071 56.262C27.8026 56.3737 27.8981 56.4854 28.0095 56.5971L27.7071 56.8683H27.7708Z" fill="#E7DD9A"/>
<path d="M5.31544 56.4215H5.25178C5.42684 55.5917 5.3791 53.6451 6.23848 53.31C6.46128 53.3898 6.73183 53.4057 7.0342 53.3898C9.48503 53.2302 14.2594 50.3421 15.7394 49.4326C15.8508 49.3528 15.9463 49.3049 16.0259 49.2571L16.376 49.3209C16.8216 49.4805 17.0126 50.5815 17.0126 50.9804H16.9967L18.6359 71.8671V72.282L2.46674 72.1863V71.8831C3.10332 68.1014 4.18551 61.0009 5.33135 56.4374L5.31544 56.4215Z" fill="#E7DD9A"/>
<path d="M40.3114 57.3788C39.9772 57.3788 39.6907 57.1076 39.7067 56.7565L39.7703 42.9543H28.0413L27.914 53.1185C27.914 53.4536 27.6276 53.7248 27.2933 53.7248C26.9591 53.7248 26.6886 53.4376 26.6886 53.1025L26.8159 42.8267C26.8159 42.2204 27.3252 41.7257 27.9458 41.7257H39.8817C40.1841 41.7257 40.4705 41.8374 40.6774 42.0448C40.6774 42.0448 40.6933 42.0608 40.7093 42.0767C40.9002 42.2842 41.0116 42.5554 41.0116 42.8267L40.948 56.7565C40.948 57.0916 40.6774 57.3629 40.3273 57.3629L40.3114 57.3788Z" fill="#03004C"/>
<path d="M46.2793 68.3726C46.2793 68.3726 46.2157 68.3726 46.1839 68.3726C45.8497 68.3248 45.6109 68.0056 45.6746 67.6706C46.0884 64.9739 45.7382 61.6072 45.3563 60.0754C44.8948 58.2563 42.5872 56.0384 40.9002 54.4109C40.582 54.1077 40.2796 53.8205 40.0249 53.5652C39.7862 53.3259 39.7862 52.9429 40.0249 52.7036C40.2637 52.4642 40.6615 52.4642 40.9002 52.7036C41.1549 52.9589 41.4413 53.2461 41.7596 53.5333C43.558 55.2566 46.0247 57.6181 46.5658 59.7882C46.9478 61.304 47.3615 64.8463 46.9 67.862C46.8523 68.1652 46.5976 68.3886 46.2953 68.3886L46.2793 68.3726Z" fill="#03004C"/>
<path d="M35.0119 63.9209C34.8527 63.9209 34.6936 63.857 34.5822 63.7453C33.2613 62.421 32.0836 61.304 30.9855 60.3466C30.1261 59.5967 29.2986 58.8627 28.5824 58.033C28.3915 57.8255 28.2005 57.6181 27.9777 57.3947C27.8504 57.2671 27.739 57.1554 27.6116 57.0277C27.5002 56.9001 27.3888 56.7884 27.2774 56.6607C27.2615 56.6448 25.5746 54.5545 26.1475 53.4854C26.2589 53.2621 26.5613 52.8951 27.2615 52.9589C27.3888 52.9589 27.5321 52.9908 27.7071 53.0227C29.1872 53.3897 31.8926 55.6714 34.5981 58.0968L34.9323 58.4C34.9323 58.4 35.0596 58.5117 35.1392 58.5915C36.1259 59.5169 36.5238 59.6605 36.6829 59.6765C36.5874 59.0063 35.1869 57.1713 32.5292 54.2354C32.0677 53.7248 31.7176 53.3418 31.5744 53.1504C31.5266 53.0865 31.3675 52.9429 31.2561 52.8312C30.715 52.3206 30.0625 51.6824 30.0466 50.9643C30.0466 50.6612 30.158 50.374 30.3808 50.1506C31.6062 48.9219 33.2295 50.3101 33.9934 50.9803C34.1048 51.076 34.2002 51.1558 34.2957 51.2356L34.6458 51.5228C36.285 52.8312 38.529 54.6183 40.1523 56.4693C40.9162 57.3469 41.4732 58.1287 41.8551 58.8946C42.0143 59.1978 41.8869 59.5648 41.5846 59.7243C41.2822 59.8839 40.9162 59.7563 40.757 59.4531C40.4228 58.7989 39.9135 58.0649 39.2292 57.283C37.6696 55.5278 35.5689 53.8365 33.866 52.4962L33.5159 52.2089C33.4204 52.1292 33.309 52.0334 33.1817 51.9217C32.4656 51.2994 31.6539 50.6771 31.2561 51.0122C31.3356 51.2516 31.8608 51.7622 32.0677 51.9696C32.2587 52.1611 32.4178 52.3047 32.5292 52.4483C32.6406 52.5919 32.9907 52.9908 33.4045 53.4535C36.3169 56.6767 37.9879 58.767 37.8765 59.9477C37.8447 60.2509 37.7014 60.5062 37.4786 60.6817C36.3964 61.5114 35.0119 60.219 34.2798 59.5329C34.2162 59.469 34.1525 59.4052 34.0888 59.3574L33.7546 59.0542C32.386 57.8415 28.7734 54.6024 27.3888 54.2673C27.3252 54.2673 27.2934 54.2513 27.2615 54.2354C27.3729 54.6662 27.8822 55.5438 28.2005 55.9267C28.296 56.0384 28.3915 56.1342 28.4869 56.2459C28.5824 56.3576 28.7097 56.4693 28.8211 56.581C29.0439 56.8043 29.2668 57.0277 29.4896 57.283C30.142 58.0489 30.9378 58.751 31.7653 59.485C32.8793 60.4583 34.0729 61.5912 35.4257 62.9316C35.6644 63.1709 35.6644 63.5539 35.4257 63.7932C35.2983 63.9208 35.1551 63.9687 34.996 63.9687L35.0119 63.9209Z" fill="#03004C"/>
<path d="M33.4523 66.0111C33.2931 66.0111 33.134 65.9473 33.0226 65.8356C31.7335 64.5431 30.0306 62.8358 28.3437 61.0327C27.9618 60.6179 27.5639 60.203 27.182 59.7722C26.7523 59.2935 26.1475 57.8893 26.5613 56.9798C26.7682 56.5171 27.2138 56.2458 27.7708 56.2458C28.105 56.2458 28.3915 56.5171 28.3915 56.8681C28.3915 57.2192 28.1209 57.4745 27.7708 57.4745C27.6912 57.4745 27.6753 57.4745 27.6753 57.4745C27.548 57.6819 27.8504 58.6552 28.105 58.9425C28.4869 59.3573 28.8689 59.7722 29.2349 60.1871C30.9059 61.9742 32.5929 63.6815 33.882 64.958C34.1207 65.1973 34.1207 65.5803 33.882 65.8196C33.7546 65.9473 33.6114 65.9951 33.4523 65.9951V66.0111Z" fill="#03004C"/>
<path d="M38.4494 73C38.2425 73 38.0516 72.9043 37.9402 72.7128C37.6059 72.1863 37.1444 71.532 37.0012 71.4203C36.7147 71.197 36.3646 70.9736 36.0304 70.7661C35.6803 70.5428 35.3461 70.3353 35.1233 70.1438L34.5345 69.6652C32.7202 68.1653 30.8423 66.6016 29.3941 64.7825C29.3304 64.7028 29.2508 64.623 29.1713 64.5113C28.5188 63.7454 27.4207 62.4689 27.5639 61.3519C27.6276 60.9211 27.8663 60.5541 28.2482 60.2988C28.5347 60.1073 28.9166 60.1871 29.0917 60.4743C29.2827 60.7616 29.2031 61.1445 28.9166 61.32C28.8052 61.3998 28.7893 61.4636 28.7734 61.5115C28.6938 62.0859 29.7124 63.2507 30.0943 63.6975C30.1898 63.8092 30.2853 63.9209 30.3489 64.0007C31.7335 65.724 33.5478 67.2398 35.3143 68.6918L35.9031 69.1865C36.0782 69.3301 36.3646 69.5216 36.6829 69.713C37.033 69.9364 37.415 70.1758 37.7492 70.4311C38.0675 70.6704 38.6563 71.548 38.9746 72.0267C39.1656 72.3139 39.0701 72.6969 38.7836 72.8724C38.6881 72.9362 38.5608 72.9681 38.4494 72.9681V73Z" fill="#03004C"/>
<path d="M48.4915 73C48.2686 73 48.0458 72.8723 47.9344 72.6489L45.7223 68.0695C45.5791 67.7663 45.7064 67.3993 46.0088 67.2557C46.3112 67.1121 46.6772 67.2398 46.8363 67.5429L49.0485 72.1224C49.1917 72.4255 49.0644 72.7925 48.762 72.9361C48.6824 72.984 48.5869 73 48.4915 73Z" fill="#03004C"/>
<path d="M40.2 43.1458C40.0727 43.1458 39.9295 43.0979 39.834 43.0181C39.6112 42.8426 39.5475 42.4916 39.6748 42.2363C39.6748 42.2363 39.6907 42.2044 39.7067 42.1884C39.7067 42.1884 39.7703 42.0927 39.8021 42.0608C39.834 42.0288 39.8817 41.9969 39.9135 41.965C40.0568 41.7895 40.2955 41.4704 40.4387 41.1832C40.5342 41.0076 40.5501 40.9279 40.5501 40.9119C40.6138 40.5768 40.9321 40.3534 41.2663 40.4173C41.6005 40.4811 41.8233 40.8002 41.7596 41.1353C41.7278 41.3108 41.6482 41.5023 41.5368 41.7416C41.2663 42.2682 40.8048 42.8426 40.6456 42.9862C40.5183 43.0979 40.3592 43.1617 40.2 43.1617V43.1458Z" fill="#03004C"/>
<path d="M66.3953 73C66.1088 73 65.8542 72.7926 65.7905 72.5054C64.4378 65.2134 60.3 50.9484 59.377 49.3847C57.4195 46.0499 51.4515 44.4223 46.6613 43.0979C44.4969 42.5076 42.4439 41.9331 40.9798 41.2789C40.6774 41.1353 40.5342 40.7843 40.6774 40.4652C40.8207 40.162 41.1867 40.0184 41.4891 40.162C42.8577 40.7683 44.863 41.3268 46.9955 41.9172C52.2632 43.3692 58.2311 45.0127 60.4432 48.7624C61.5095 50.5814 65.6791 65.1974 67 72.282C67.0637 72.6171 66.8409 72.9362 66.5067 73C66.4748 73 66.4271 73 66.3953 73Z" fill="#03004C"/>
<path d="M2.45083 72.4734C2.45083 72.4734 2.38717 72.4734 2.35535 72.4734C2.02114 72.4096 1.79834 72.1064 1.84608 71.7713C1.95748 71.1012 2.0848 70.3033 2.22803 69.4577C2.88052 65.4845 3.77174 60.0435 4.7266 56.2937V56.2139C4.7266 56.2139 4.79026 56.0544 4.80618 55.9906C4.88575 55.6555 5.21995 55.464 5.55416 55.5438C5.88836 55.6236 6.09525 55.9586 6.01568 56.2778C5.99976 56.3735 5.96794 56.4533 5.95202 56.549V56.6129C4.99715 60.3147 4.10594 65.7239 3.45345 69.6651C3.31022 70.5267 3.1829 71.3086 3.0715 71.9947C3.02375 72.2979 2.75321 72.5053 2.46675 72.5053L2.45083 72.4734Z" fill="#03004C"/>
<path d="M19.1451 43.2574C18.8905 43.2574 18.6518 43.0978 18.5563 42.8266C18.4449 42.5075 18.62 42.1564 18.9542 42.0447L19.2884 41.933C21.039 41.3586 22.71 40.8161 23.9672 40.1459C24.2696 39.9864 24.6356 40.0981 24.7948 40.4012C24.9539 40.7044 24.8425 41.0714 24.5401 41.231C23.1874 41.949 21.4846 42.5075 19.6703 43.0978L19.3361 43.2095C19.3361 43.2095 19.2088 43.2415 19.1451 43.2415V43.2574Z" fill="#03004C"/>
<path d="M6.79549 54.0119C6.50903 54.0119 6.2544 53.98 6.03159 53.9002C5.85653 53.8524 5.66556 53.7407 5.4905 53.5971C5.23587 53.3737 5.20404 52.9907 5.42684 52.7354C5.64965 52.4801 6.03159 52.4482 6.28623 52.6716C6.31805 52.7035 6.3658 52.7195 6.39763 52.7354C6.52494 52.7833 6.68409 52.8152 6.97055 52.7833C9.27815 52.6237 14.0048 49.7835 15.4052 48.9219C15.453 48.89 15.5166 48.8581 15.5644 48.8262L15.6758 48.7623C15.7872 48.6985 15.8349 48.6666 15.8349 48.6506C16.1214 48.4592 16.5033 48.5389 16.6943 48.8262C16.8853 49.1134 16.8057 49.4963 16.5192 49.6718C16.5192 49.6718 16.4556 49.7197 16.3442 49.7835C16.3283 49.7835 16.2805 49.8314 16.2169 49.8633L16.0736 49.959C14.1957 51.1239 9.58052 53.8364 7.08195 54.0119C6.98646 54.0119 6.89098 54.0119 6.79549 54.0119Z" fill="#03004C"/>
<path d="M18.62 72.4734C18.3017 72.4734 18.0311 72.2341 18.0152 71.915L16.376 50.9165C16.3442 50.5814 16.5988 50.2783 16.933 50.2463C17.2672 50.2144 17.5696 50.4697 17.6014 50.8048V50.9165L19.2565 71.8033C19.2884 72.1384 19.0337 72.4415 18.6995 72.4575C18.6836 72.4575 18.6677 72.4575 18.6518 72.4575L18.62 72.4734Z" fill="#03004C"/>
<path d="M27.1342 44.3106C27.0069 44.3106 26.8796 44.2627 26.7682 44.183C26.6886 44.1191 24.8744 42.7309 24.8744 40.8162C24.8744 40.4811 25.1449 40.2098 25.495 40.2098C25.8451 40.2098 26.1157 40.4811 26.1157 40.8162C26.1157 42.1246 27.5002 43.1937 27.5162 43.2096C27.7867 43.4171 27.8344 43.8 27.6276 44.0713C27.5002 44.2308 27.3252 44.3106 27.1342 44.3106Z" fill="#03004C"/>
<path d="M10.4081 43.9754C9.03943 43.9754 5.88836 42.4277 5.36319 40.9916C5.12447 40.3214 5.3791 39.6832 6.06342 39.3002C6.97055 38.7737 8.41877 39.2205 9.94656 39.6832C10.9173 39.9864 12.0314 40.3374 12.6043 40.2257C12.9385 40.1778 13.2568 40.4012 13.3204 40.7204C13.3841 41.0554 13.1454 41.3746 12.8112 41.4224C11.9518 41.566 10.79 41.215 9.58053 40.832C8.54608 40.5129 7.12969 40.0661 6.68409 40.3374C6.54086 40.4172 6.50903 40.481 6.50903 40.497C6.50903 40.5289 6.54086 40.6884 6.82732 40.9757C7.82993 41.9969 10.0102 42.7947 10.424 42.7308C10.7582 42.683 11.0765 42.9064 11.1401 43.2255C11.2038 43.5606 10.9651 43.8797 10.6309 43.9276C10.5672 43.9276 10.4877 43.9435 10.4081 43.9435V43.9754Z" fill="#03004C"/>
<path d="M10.3444 46.8796C10.1216 46.8796 9.91473 46.7679 9.80333 46.5605C9.29406 45.6031 8.81663 44.7095 9.02352 43.4171C9.07126 43.082 9.38955 42.8586 9.72376 42.9065C10.058 42.9543 10.2967 43.2735 10.233 43.6086C10.0898 44.4861 10.424 45.1244 10.8855 45.986C11.0447 46.2892 10.9333 46.6562 10.6309 46.8158C10.5354 46.8636 10.4399 46.8955 10.3444 46.8955V46.8796Z" fill="#03004C"/>
<path d="M15.1506 49.2411C15.1506 49.2411 15.0233 49.2411 14.9755 49.2092C14.6572 49.1134 14.4663 48.7624 14.5618 48.4433C15.1029 46.6561 15.5007 44.8531 15.6917 43.2255C15.9304 41.231 15.8349 39.6194 15.453 38.9333C15.1824 38.4546 14.705 38.1195 14.1798 37.7685C13.3841 37.226 12.477 36.6196 12.2701 35.3431C12.1905 34.8964 12.1587 34.1943 12.1268 33.2369C12.0791 32.0083 12.0154 30.4765 11.8245 28.7532C11.7608 28.1469 11.729 27.4607 11.6972 26.7746C11.6494 25.4662 11.5539 23.4876 11.1242 23.1366C11.1242 23.1366 11.1242 23.1366 11.0606 23.1366C10.2967 23.2642 9.9943 24.6365 10.1534 27.2054C10.1534 27.3969 10.1694 27.5405 10.1694 27.6363C10.1853 36.3165 9.56461 36.4282 8.95986 36.5239C7.36841 36.7952 3.75582 29.2478 3.72399 29.1681C3.03967 27.4288 2.02114 25.913 1.46413 25.7694C1.43231 25.7694 1.40048 25.7694 1.35273 25.8013C0.779812 26.28 1.90974 28.6096 2.57815 29.9818C2.9601 30.7796 3.32613 31.5136 3.56485 32.1678C3.89905 33.1093 4.29691 34.0826 4.59929 34.8645C5.31544 36.6675 5.3791 36.859 4.86984 37.1462C4.69478 37.2419 4.31283 37.3058 4.04228 36.9228C3.9468 36.7952 3.91497 36.6675 3.93088 36.5239C3.83539 36.2686 3.64442 35.7899 3.46936 35.3112C3.15107 34.5294 2.76912 33.5401 2.419 32.5827C2.21212 31.9923 1.862 31.2743 1.49596 30.5084C0.413779 28.2745 -0.71615 25.9608 0.572924 24.8599C0.923042 24.5567 1.35273 24.461 1.78242 24.5567C3.32613 24.9396 4.64703 28.083 4.88575 28.7053C5.52233 30.301 7.63896 33.7954 8.62566 34.9602C8.76889 34.1943 8.97577 32.2795 8.95986 27.6203C8.95986 27.5565 8.95986 27.4288 8.94394 27.2693C8.84846 25.913 8.60974 22.2909 10.8696 21.9079C11.2515 21.8441 11.6176 21.9399 11.904 22.1792C12.7634 22.8813 12.843 24.6524 12.9226 26.7108C12.9544 27.3969 12.9862 28.0511 13.034 28.6096C13.2249 30.3807 13.2886 31.9923 13.3523 33.1731C13.3841 34.0507 13.4159 34.7528 13.4796 35.1198C13.6069 35.8218 14.0843 36.1888 14.8641 36.7313C15.453 37.1302 16.1055 37.577 16.5192 38.311C17.1876 39.5237 17.0922 41.7257 16.9012 43.3532C16.6943 45.0605 16.2964 46.9434 15.7235 48.7943C15.6439 49.0655 15.4052 49.2251 15.1347 49.2251L15.1506 49.2411Z" fill="#03004C"/>
<path d="M6.23848 42.8426C6.09525 42.8426 5.92019 42.8426 5.72922 42.7947C5.0449 42.667 4.26509 42.3639 4.09003 42.2841C3.26247 41.9171 2.56224 41.5182 2.02114 41.1193C1.35274 40.6087 0.923044 40.0821 0.763899 39.5396C0.541096 38.8056 0.668412 38.0557 1.11402 37.4493C1.67103 36.6994 2.70547 36.2207 3.73991 36.2207C4.04228 36.2207 4.34466 36.2686 4.63112 36.3484C4.94941 36.4441 5.14038 36.7951 5.02898 37.1143C4.9335 37.4334 4.58338 37.6249 4.26509 37.5132C4.10594 37.4653 3.93088 37.4334 3.73991 37.4334C3.08741 37.4334 2.41901 37.7365 2.10072 38.1674C1.87791 38.4546 1.83017 38.7897 1.94157 39.1726C2.02114 39.4439 2.32352 39.7949 2.76912 40.13C3.23064 40.481 3.85131 40.8321 4.59929 41.1671C4.77435 41.2469 5.45867 41.5022 5.96794 41.598C6.09525 41.6139 6.17483 41.6299 6.22257 41.6299C6.38171 41.4863 6.60452 41.4225 6.82732 41.4863C7.14561 41.582 7.33658 41.9331 7.2411 42.2522C7.14561 42.5394 6.90689 42.8585 6.2544 42.8585L6.23848 42.8426Z" fill="#03004C"/>
<path d="M6.44537 40.2736C5.52233 40.2736 3.70808 39.029 3.69216 39.0131C3.42162 38.8216 3.34204 38.4387 3.54893 38.1514C3.73991 37.8802 4.12185 37.8164 4.40831 38.0078C4.90166 38.3589 6.09525 39.0131 6.42945 39.045C6.74774 38.9971 7.05012 39.2365 7.09786 39.5556C7.16152 39.8907 6.93872 40.2098 6.5886 40.2577C6.54086 40.2577 6.49311 40.2577 6.44537 40.2577V40.2736Z" fill="#03004C"/>
<path d="M5.02898 45.3318C3.96271 45.3318 2.70547 44.9329 1.87791 44.4542C0.891214 43.8798 0.366036 43.1458 0.381951 42.3959C0.381951 41.63 0.938958 40.9598 1.98931 40.4173C2.29169 40.2577 2.65772 40.3694 2.81687 40.6726C2.97601 40.9758 2.86461 41.3428 2.56224 41.5023C1.95749 41.8214 1.62328 42.1565 1.60737 42.4278C1.60737 42.699 1.94157 43.082 2.49858 43.4011C3.81948 44.183 5.50642 44.2787 5.80879 43.9436C5.90428 43.8479 5.84062 43.433 5.31544 42.731C5.10855 42.4597 5.17221 42.0767 5.44276 41.8693C5.7133 41.6619 6.09525 41.7257 6.30214 41.997C7.38433 43.4649 7.11378 44.3106 6.71592 44.7574C6.33397 45.1723 5.7133 45.3478 5.02898 45.3478V45.3318Z" fill="#03004C"/>
<path d="M7.63896 51.475C7.4639 51.475 7.30476 51.4111 7.17744 51.2675C7.14561 51.2356 7.05012 51.1718 6.92281 51.0761L6.57269 50.8208C4.51972 49.3209 0.254636 46.1934 1.59145 43.7202C1.7506 43.417 2.13255 43.3054 2.41901 43.4809C2.72138 43.6404 2.83278 44.0234 2.65772 44.3106C2.10072 45.3318 3.66034 47.1827 7.27293 49.8315L7.63896 50.1027C7.92542 50.3102 8.02091 50.4059 8.08456 50.4697C8.30737 50.725 8.29145 51.108 8.03682 51.3314C7.92542 51.4431 7.76627 51.4909 7.62304 51.4909L7.63896 51.475Z" fill="#03004C"/>
</g>
<defs>
<clipPath id="clip0_85_1032">
<rect width="67" height="73" fill="white"/>
</clipPath>
</defs>
</svg>
