<svg width="174" height="26" viewBox="0 0 174 26" fill="none" xmlns="http://www.w3.org/2000/svg">
<path d="M169.112 5.77539H4.1247C2.7579 5.77539 1.64989 6.88367 1.64989 8.25081V18.9776C1.64989 20.3448 2.7579 21.4531 4.1247 21.4531H169.112C170.479 21.4531 171.587 20.3448 171.587 18.9776V8.25081C171.587 6.88367 170.479 5.77539 169.112 5.77539Z" stroke="#161E3C" stroke-width="2.98112"/>
<path d="M110.541 0H62.6952C61.784 0 61.0453 0.738856 61.0453 1.65028V4.1257C61.0453 5.03713 61.784 5.77599 62.6952 5.77599H110.541C111.453 5.77599 112.191 5.03713 112.191 4.1257V1.65028C112.191 0.738856 111.453 0 110.541 0Z" fill="#161E3C"/>
<path d="M71.7695 22.6367C81.2292 26.2017 91.6627 26.2017 101.122 22.6367H71.7695Z" fill="#161E3C"/>
</svg>
