<svg width="281" height="52" viewBox="0 0 281 52" fill="none" xmlns="http://www.w3.org/2000/svg">
<g filter="url(#filter0_d_34_1465)">
<path d="M134.226 39.4387H25.7462C21.57 39.4387 17.5649 37.3737 14.6119 33.698C11.659 30.0223 10 25.0369 10 19.8387V19.6C10 14.4018 11.659 9.41642 14.6119 5.74071C17.5649 2.06499 21.57 0 25.7462 0L251.254 0C255.43 0 259.435 2.06499 262.388 5.74071C265.341 9.41642 267 14.4018 267 19.6V19.8387C267 25.0369 265.341 30.0223 262.388 33.698C259.435 37.3737 255.43 39.4387 251.254 39.4387H142.774L138.5 49L134.226 39.4387Z" fill="white"/>
<path d="M55.2376 27.417V20.889C54.8216 20.9317 54.4216 20.9744 54.0376 21.017C53.6643 21.0597 53.3336 21.0917 53.0456 21.113L52.8216 19.513C52.9496 19.5024 53.0936 19.497 53.2536 19.497C53.4136 19.497 53.5789 19.4917 53.7496 19.481C53.9416 19.2677 54.1443 19.0224 54.3576 18.745C54.5816 18.457 54.8109 18.1477 55.0456 17.817C54.7043 17.5397 54.3203 17.2517 53.8936 16.953C53.4669 16.6437 53.0669 16.377 52.6936 16.153L53.5416 14.857C53.6376 14.9104 53.7389 14.969 53.8456 15.033C53.9629 15.097 54.0749 15.1664 54.1816 15.241C54.3309 14.9957 54.4856 14.7237 54.6456 14.425C54.8056 14.1264 54.9549 13.833 55.0936 13.545C55.2323 13.2464 55.3389 13.001 55.4136 12.809L56.9016 13.385C56.6669 13.8117 56.4109 14.2704 56.1336 14.761C55.8563 15.241 55.5896 15.6677 55.3336 16.041C55.5469 16.1904 55.7496 16.345 55.9416 16.505C56.2296 16.0677 56.4909 15.6517 56.7256 15.257C56.9603 14.8624 57.1416 14.5317 57.2696 14.265L58.6936 14.985C58.4803 15.3797 58.2029 15.833 57.8616 16.345C57.5309 16.8464 57.1789 17.3637 56.8056 17.897C56.4323 18.4197 56.0696 18.905 55.7176 19.353C55.9949 19.3317 56.2669 19.3104 56.5336 19.289C56.8003 19.2677 57.0509 19.2464 57.2856 19.225C57.2109 19.065 57.1309 18.9104 57.0456 18.761C56.9709 18.6117 56.8963 18.4784 56.8216 18.361L58.0856 17.721C58.2669 17.9877 58.4483 18.3077 58.6296 18.681C58.8216 19.0544 58.9976 19.4224 59.1576 19.785V13.449H60.8056V14.665L62.1496 14.169C62.2563 14.4037 62.3789 14.7077 62.5176 15.081C62.6563 15.4437 62.7843 15.801 62.9016 16.153C63.0296 16.505 63.1203 16.7824 63.1736 16.985C62.9923 17.0277 62.7523 17.1077 62.4536 17.225C62.1549 17.3317 61.9256 17.4224 61.7656 17.497C61.7229 17.273 61.6429 16.9904 61.5256 16.649C61.4189 16.297 61.2963 15.945 61.1576 15.593C61.0296 15.241 60.9123 14.953 60.8056 14.729V22.505C61.1576 22.0784 61.5203 21.577 61.8936 21.001C62.2669 20.4144 62.5709 19.8704 62.8056 19.369H61.0616V17.897H63.2856V13.049H64.7896V16.889C64.9176 16.665 65.0616 16.3824 65.2216 16.041C65.3816 15.689 65.5363 15.337 65.6856 14.985C65.8349 14.6224 65.9416 14.313 66.0056 14.057L67.4136 14.569C67.3283 14.857 67.2109 15.1824 67.0616 15.545C66.9123 15.9077 66.7469 16.2704 66.5656 16.633C66.3949 16.985 66.2243 17.2944 66.0536 17.561C65.8829 17.4437 65.6749 17.3264 65.4296 17.209C65.1843 17.0917 64.9709 17.0064 64.7896 16.953V17.897H67.4456V19.369H65.3496C65.5416 19.7637 65.7816 20.185 66.0696 20.633C66.3576 21.081 66.6509 21.5024 66.9496 21.897C67.2589 22.2917 67.5416 22.617 67.7976 22.873C67.6269 22.9797 67.4189 23.1344 67.1736 23.337C66.9283 23.5397 66.7363 23.7157 66.5976 23.865C66.2776 23.5237 65.9629 23.1237 65.6536 22.665C65.3443 22.2064 65.0563 21.7317 64.7896 21.241V25.065H63.2856V21.385C63.0403 21.865 62.7683 22.329 62.4696 22.777C62.1709 23.2144 61.8669 23.5984 61.5576 23.929C61.3763 23.7264 61.1256 23.5024 60.8056 23.257V25.449H67.4936V27.033H59.1576V24.633C58.7203 24.7717 58.3149 24.9477 57.9416 25.161C57.8563 24.9264 57.7496 24.6064 57.6216 24.201C57.4936 23.785 57.3709 23.3584 57.2536 22.921C57.1363 22.4837 57.0456 22.1104 56.9816 21.801L58.3416 21.465C58.3949 21.6677 58.4643 21.9237 58.5496 22.233C58.6349 22.5424 58.7309 22.8624 58.8376 23.193C58.9549 23.5237 59.0616 23.8277 59.1576 24.105V20.825C58.7843 20.9744 58.4429 21.145 58.1336 21.337C58.1016 21.2197 58.0589 21.0917 58.0056 20.953C57.9523 20.8037 57.8989 20.6597 57.8456 20.521C57.7069 20.5424 57.5523 20.569 57.3816 20.601C57.2216 20.6224 57.0563 20.6437 56.8856 20.665V27.417H55.2376ZM53.9736 25.801C53.7709 25.7157 53.5309 25.6304 53.2536 25.545C52.9869 25.449 52.7523 25.3904 52.5496 25.369C52.7096 25.081 52.8643 24.7237 53.0136 24.297C53.1736 23.8597 53.3123 23.4117 53.4296 22.953C53.5576 22.4837 53.6483 22.057 53.7016 21.673L55.0936 21.961C55.0403 22.345 54.9496 22.777 54.8216 23.257C54.7043 23.737 54.5709 24.2064 54.4216 24.665C54.2723 25.113 54.1229 25.4917 53.9736 25.801ZM71.2056 27.417V20.889C70.7896 20.9317 70.3896 20.9744 70.0056 21.017C69.6216 21.0597 69.2856 21.0917 68.9976 21.113L68.7736 19.513C68.9123 19.5024 69.0616 19.497 69.2216 19.497C69.3816 19.497 69.5469 19.4917 69.7176 19.481C69.8989 19.2677 70.1016 19.0224 70.3256 18.745C70.5496 18.457 70.7789 18.1477 71.0136 17.817C70.6723 17.5397 70.2883 17.2517 69.8616 16.953C69.4349 16.6437 69.0296 16.377 68.6456 16.153L69.5096 14.857C69.7016 14.9637 69.9096 15.0917 70.1336 15.241C70.2829 14.9957 70.4376 14.7237 70.5976 14.425C70.7683 14.1264 70.9229 13.833 71.0616 13.545C71.2003 13.2464 71.3069 13.001 71.3816 12.809L72.8536 13.385C72.6296 13.8117 72.3736 14.2704 72.0856 14.761C71.8083 15.241 71.5469 15.6677 71.3016 16.041C71.4083 16.1157 71.5096 16.1957 71.6056 16.281C71.7123 16.3557 71.8136 16.4304 71.9096 16.505C72.1869 16.0677 72.4429 15.6517 72.6776 15.257C72.9123 14.8624 73.0989 14.5317 73.2376 14.265L74.6616 14.969C74.4376 15.3637 74.1549 15.817 73.8136 16.329C73.4829 16.841 73.1309 17.3637 72.7576 17.897C72.3843 18.4197 72.0216 18.905 71.6696 19.353C71.9363 19.3317 72.1923 19.3104 72.4376 19.289C72.6936 19.2677 72.9389 19.2464 73.1736 19.225C73.1096 19.0544 73.0456 18.8944 72.9816 18.745C72.9176 18.5957 72.8536 18.457 72.7896 18.329L74.1176 17.817C74.2563 18.0837 74.4003 18.4037 74.5496 18.777C74.7096 19.1397 74.8536 19.5024 74.9816 19.865V18.777H83.3176V21.689H81.6696V20.265H76.6616V21.689H74.9816V20.953C74.8003 21.017 74.6083 21.0917 74.4056 21.177C74.2029 21.2517 74.0216 21.3264 73.8616 21.401C73.8189 21.1664 73.7443 20.8784 73.6376 20.537C73.5096 20.5584 73.3816 20.5797 73.2536 20.601C73.1256 20.6224 72.9869 20.6437 72.8376 20.665V27.417H71.2056ZM75.5416 18.009V16.537H78.0536V15.657H74.6936V14.185H78.0536V12.905H79.8296V14.185H83.3496V15.657H79.8296V16.537H82.5016V18.009H75.5416ZM80.6776 27.209C80.1549 27.209 79.7816 27.1237 79.5576 26.953C79.3336 26.7824 79.2216 26.489 79.2216 26.073V20.857H80.9176V25.193C80.9176 25.3317 80.9443 25.4277 80.9976 25.481C81.0509 25.5237 81.1736 25.545 81.3656 25.545H81.7496C81.8989 25.545 82.0163 25.5184 82.1016 25.465C82.1976 25.401 82.2776 25.257 82.3416 25.033C82.4056 24.809 82.4589 24.4517 82.5016 23.961C82.6829 24.057 82.9336 24.1584 83.2536 24.265C83.5736 24.361 83.8509 24.4357 84.0856 24.489C84.0216 25.2037 83.9096 25.7584 83.7496 26.153C83.5896 26.5477 83.3656 26.8197 83.0776 26.969C82.8003 27.129 82.4269 27.209 81.9576 27.209H80.6776ZM75.4136 27.465C75.2749 27.2624 75.0989 27.033 74.8856 26.777C74.6723 26.5317 74.4589 26.3397 74.2456 26.201C74.9816 25.8597 75.5469 25.449 75.9416 24.969C76.3363 24.4784 76.6083 23.897 76.7576 23.225C76.9176 22.553 76.9976 21.7637 76.9976 20.857H78.5976C78.5976 21.9664 78.4963 22.9317 78.2936 23.753C78.0909 24.5744 77.7549 25.289 77.2856 25.897C76.8269 26.4944 76.2029 27.017 75.4136 27.465ZM69.9416 25.801C69.7389 25.7157 69.4989 25.6304 69.2216 25.545C68.9443 25.449 68.7096 25.3904 68.5176 25.369C68.6776 25.081 68.8323 24.7237 68.9816 24.297C69.1416 23.8597 69.2803 23.4117 69.3976 22.953C69.5256 22.4837 69.6163 22.057 69.6696 21.673L71.0616 21.961C71.0083 22.345 70.9176 22.777 70.7896 23.257C70.6723 23.737 70.5389 24.2064 70.3896 24.665C70.2403 25.113 70.0909 25.4917 69.9416 25.801ZM73.8936 25.161C73.8083 24.9264 73.7016 24.6064 73.5736 24.201C73.4563 23.785 73.3389 23.3584 73.2216 22.921C73.1043 22.4837 73.0136 22.1104 72.9496 21.801L74.3096 21.465C74.3736 21.721 74.4643 22.0517 74.5816 22.457C74.6989 22.8517 74.8216 23.2464 74.9496 23.641C75.0883 24.0357 75.2109 24.3504 75.3176 24.585C75.0936 24.6384 74.8483 24.7184 74.5816 24.825C74.3256 24.9317 74.0963 25.0437 73.8936 25.161ZM95.6856 27.433C95.6643 27.209 95.6269 26.937 95.5736 26.617C95.5309 26.297 95.4669 26.0464 95.3816 25.865H96.3416C96.5443 25.865 96.6723 25.8437 96.7256 25.801C96.7789 25.7477 96.8056 25.625 96.8056 25.433V24.777H92.7256V27.401H91.0616V24.777H90.1176V23.497H91.0616V19.689H93.9576V19.081H90.2616V17.769H92.4216V17.065H90.9656V15.865H92.4216V15.225H90.3896V13.993H92.4216V12.841H94.0376V13.993H95.4776V12.841H97.0936V13.993H99.2536V15.225H97.0936V15.865H98.7576V17.065H97.0936V17.769H99.4296V19.081H95.5736V19.689H98.4696V23.497H99.6216V24.777H98.4696V25.945C98.4696 26.4677 98.3309 26.8464 98.0536 27.081C97.7869 27.3157 97.3549 27.433 96.7576 27.433H95.6856ZM85.4456 23.641V13.417H89.8776V23.641H85.4456ZM86.0536 27.433C85.8616 27.3264 85.6109 27.1984 85.3016 27.049C85.0029 26.9104 84.7523 26.8144 84.5496 26.761C84.7523 26.5157 84.9549 26.2117 85.1576 25.849C85.3603 25.4864 85.5469 25.113 85.7176 24.729C85.8883 24.345 86.0163 23.9984 86.1016 23.689L87.5896 24.185C87.4936 24.5157 87.3603 24.8837 87.1896 25.289C87.0296 25.6837 86.8483 26.0677 86.6456 26.441C86.4429 26.8144 86.2456 27.145 86.0536 27.433ZM89.4936 27.305C89.3016 27.049 89.1043 26.7397 88.9016 26.377C88.6989 26.025 88.5069 25.657 88.3256 25.273C88.1549 24.8784 88.0109 24.5157 87.8936 24.185L89.3176 23.673C89.4669 24.153 89.6856 24.6437 89.9736 25.145C90.2616 25.6464 90.5496 26.073 90.8376 26.425C90.6349 26.5424 90.4056 26.6864 90.1496 26.857C89.8936 27.0384 89.6749 27.1877 89.4936 27.305ZM86.9496 22.089H88.3576V20.601H86.9496V22.089ZM86.9496 19.193H88.3576V17.769H86.9496V19.193ZM86.9496 16.361H88.3576V14.953H86.9496V16.361ZM94.0376 17.769H95.4776V17.065H94.0376V17.769ZM92.7256 23.497H93.9576V22.745H92.7256V23.497ZM95.5736 23.497H96.8056V22.745H95.5736V23.497ZM94.0376 15.865H95.4776V15.225H94.0376V15.865ZM92.7256 21.577H93.9576V20.873H92.7256V21.577ZM95.5736 21.577H96.8056V20.873H95.5736V21.577ZM101.814 27.497C101.675 27.2197 101.488 26.9317 101.254 26.633C101.03 26.3344 100.795 26.0837 100.55 25.881C101.862 25.273 102.955 24.5264 103.83 23.641C104.715 22.7557 105.408 21.7637 105.91 20.665C106.422 19.5664 106.758 18.4037 106.918 17.177L108.054 17.369C108.011 17.0064 107.974 16.6384 107.942 16.265C107.92 15.8917 107.915 15.5077 107.926 15.113H104.214V13.321H109.894C109.755 15.1984 109.846 16.9104 110.166 18.457C110.486 20.0037 111.11 21.3904 112.038 22.617C112.976 23.8437 114.288 24.9264 115.974 25.865C115.739 26.0464 115.483 26.297 115.206 26.617C114.928 26.937 114.699 27.2304 114.518 27.497C113.099 26.5797 111.856 25.4544 110.79 24.121C109.723 22.7877 108.944 21.2037 108.454 19.369C108.144 20.5317 107.675 21.6304 107.046 22.665C106.427 23.689 105.675 24.6117 104.79 25.433C103.904 26.2544 102.912 26.9424 101.814 27.497ZM127.91 26.873C126.8 26.745 125.819 26.4197 124.966 25.897C124.112 25.3744 123.446 24.697 122.966 23.865C122.496 23.033 122.262 22.0837 122.262 21.017C122.262 20.249 122.443 19.465 122.806 18.665C123.179 17.865 123.734 17.1557 124.47 16.537C123.616 16.6757 122.763 16.825 121.91 16.985C121.067 17.145 120.299 17.2944 119.606 17.433C118.923 17.5717 118.395 17.689 118.022 17.785L117.59 15.721C117.942 15.6997 118.427 15.6517 119.046 15.577C119.675 15.5024 120.379 15.4117 121.158 15.305C121.947 15.1877 122.758 15.065 123.59 14.937C124.432 14.7984 125.243 14.6597 126.022 14.521C126.811 14.3824 127.515 14.249 128.134 14.121C128.763 13.9824 129.254 13.8597 129.606 13.753L130.118 15.705C129.947 15.7157 129.739 15.737 129.494 15.769C129.259 15.801 128.992 15.8384 128.694 15.881C128.107 15.9557 127.547 16.137 127.014 16.425C126.48 16.713 126 17.0864 125.574 17.545C125.158 18.0037 124.827 18.5264 124.582 19.113C124.336 19.6997 124.214 20.3344 124.214 21.017C124.214 21.8384 124.422 22.521 124.838 23.065C125.254 23.609 125.819 24.0357 126.534 24.345C127.259 24.6437 128.07 24.8464 128.966 24.953C128.806 25.113 128.651 25.3157 128.502 25.561C128.352 25.7957 128.224 26.0304 128.118 26.265C128.011 26.5104 127.942 26.713 127.91 26.873ZM130.694 19.529C130.491 19.1984 130.219 18.8464 129.878 18.473C129.547 18.0997 129.243 17.801 128.966 17.577L129.83 16.857C129.99 16.985 130.182 17.1717 130.406 17.417C130.64 17.6624 130.87 17.913 131.094 18.169C131.318 18.4144 131.488 18.6277 131.606 18.809L130.694 19.529ZM129.254 20.745C129.051 20.4037 128.784 20.0464 128.454 19.673C128.123 19.2997 127.819 18.9957 127.542 18.761L128.422 18.057C128.582 18.185 128.774 18.3717 128.998 18.617C129.222 18.8624 129.44 19.113 129.654 19.369C129.878 19.625 130.048 19.8384 130.166 20.009L129.254 20.745ZM140.214 27.449C140.086 27.321 139.904 27.1877 139.67 27.049C139.446 26.921 139.206 26.7984 138.95 26.681C138.694 26.5637 138.459 26.4837 138.246 26.441C138.95 26.0357 139.584 25.529 140.15 24.921C140.726 24.3024 141.179 23.6037 141.51 22.825C141.851 22.0464 142.022 21.225 142.022 20.361C142.022 19.8384 141.888 19.4544 141.622 19.209C141.366 18.9637 141.035 18.841 140.63 18.841C140.16 18.841 139.67 18.905 139.158 19.033C138.656 19.161 138.176 19.3264 137.718 19.529C137.27 19.7317 136.886 19.9557 136.566 20.201C136.512 20.0624 136.416 19.8757 136.278 19.641C136.15 19.4064 136.006 19.177 135.846 18.953C135.696 18.729 135.558 18.5584 135.43 18.441C136.187 18.0677 137.014 17.737 137.91 17.449C138.816 17.1504 139.723 17.001 140.63 17.001C141.28 17.001 141.856 17.1344 142.358 17.401C142.859 17.657 143.254 18.0357 143.542 18.537C143.84 19.0384 143.99 19.6464 143.99 20.361C143.99 21.353 143.824 22.297 143.494 23.193C143.163 24.089 142.715 24.8997 142.15 25.625C141.584 26.3504 140.939 26.9584 140.214 27.449ZM142.198 16.041C141.942 15.9877 141.611 15.897 141.206 15.769C140.8 15.641 140.368 15.497 139.91 15.337C139.462 15.177 139.035 15.017 138.63 14.857C138.235 14.697 137.926 14.5584 137.702 14.441L138.614 12.793C138.806 12.889 139.078 13.0064 139.43 13.145C139.792 13.2837 140.187 13.4277 140.614 13.577C141.04 13.7264 141.451 13.8597 141.846 13.977C142.251 14.0944 142.582 14.1797 142.838 14.233L142.198 16.041ZM152.486 27.113V22.553C152.091 22.9904 151.728 23.4064 151.398 23.801C151.067 24.185 150.806 24.4997 150.614 24.745L149.206 23.529C149.654 23.1557 150.155 22.6864 150.71 22.121C151.275 21.545 151.867 20.9477 152.486 20.329V18.137C152.016 18.2437 151.552 18.345 151.094 18.441C150.646 18.537 150.283 18.6117 150.006 18.665L149.622 16.889C149.931 16.8677 150.352 16.8144 150.886 16.729C151.43 16.6437 151.963 16.5477 152.486 16.441V13.289H154.278V15.961L154.31 15.945L155.286 16.665L154.358 18.473C154.859 18.0144 155.355 17.5984 155.846 17.225C156.336 16.8517 156.806 16.553 157.254 16.329C157.702 16.105 158.112 15.993 158.486 15.993C159.222 15.993 159.755 16.2224 160.086 16.681C160.416 17.129 160.539 17.8544 160.454 18.857C160.443 19.0277 160.416 19.2837 160.374 19.625C160.342 19.9557 160.304 20.329 160.262 20.745C160.23 21.161 160.192 21.577 160.15 21.993C160.118 22.3984 160.086 22.7664 160.054 23.097C160.022 23.417 160 23.6517 159.99 23.801C159.936 24.2597 160.128 24.489 160.566 24.489C161.003 24.489 161.408 24.329 161.782 24.009C162.155 23.689 162.475 23.2997 162.742 22.841C162.795 22.9904 162.88 23.177 162.998 23.401C163.126 23.6144 163.259 23.8224 163.398 24.025C163.547 24.217 163.675 24.3664 163.782 24.473C163.536 24.8677 163.227 25.2144 162.854 25.513C162.48 25.8117 162.08 26.0464 161.654 26.217C161.238 26.377 160.827 26.457 160.422 26.457C158.704 26.457 157.92 25.593 158.07 23.865C158.091 23.6944 158.118 23.4384 158.15 23.097C158.182 22.745 158.214 22.361 158.246 21.945C158.288 21.5184 158.331 21.097 158.374 20.681C158.416 20.2544 158.454 19.8757 158.486 19.545C158.518 19.2037 158.539 18.9584 158.55 18.809C158.571 18.4464 158.539 18.1904 158.454 18.041C158.368 17.8917 158.203 17.817 157.958 17.817C157.744 17.817 157.446 17.9504 157.062 18.217C156.678 18.473 156.246 18.8197 155.766 19.257C155.286 19.6837 154.79 20.153 154.278 20.665V27.113H152.486ZM171.766 26.745C170.912 26.745 170.219 26.6597 169.686 26.489C169.163 26.3184 168.779 26.0304 168.534 25.625C168.299 25.2197 168.182 24.6704 168.182 23.977V13.401L170.278 13.529C170.256 13.7104 170.235 14.0144 170.214 14.441C170.192 14.8677 170.176 15.3264 170.166 15.817C170.155 16.2117 170.144 16.6437 170.134 17.113C170.134 17.5824 170.134 18.0997 170.134 18.665V23.593C170.134 24.0624 170.262 24.3824 170.518 24.553C170.784 24.7237 171.243 24.809 171.894 24.809C172.939 24.809 173.926 24.6117 174.854 24.217C175.792 23.8224 176.603 23.3317 177.286 22.745C177.296 22.9477 177.318 23.193 177.35 23.481C177.392 23.7584 177.435 24.025 177.478 24.281C177.531 24.5264 177.574 24.7184 177.606 24.857C176.838 25.4117 175.942 25.865 174.918 26.217C173.904 26.569 172.854 26.745 171.766 26.745ZM186.902 24.633C186.368 24.9317 185.867 25.0544 185.398 25.001C184.928 24.937 184.512 24.633 184.15 24.089C183.819 23.577 183.515 22.9744 183.238 22.281C182.96 21.5877 182.72 20.8517 182.518 20.073C182.326 19.2944 182.176 18.5157 182.07 17.737C181.974 16.9584 181.931 16.2277 181.942 15.545L183.894 15.561C183.862 16.0837 183.878 16.6544 183.942 17.273C184.006 17.8917 184.107 18.5157 184.246 19.145C184.384 19.7744 184.55 20.361 184.742 20.905C184.934 21.4384 185.142 21.8864 185.366 22.249C185.515 22.505 185.675 22.6544 185.846 22.697C186.027 22.729 186.219 22.681 186.422 22.553C186.678 22.3824 186.944 22.1477 187.222 21.849C187.51 21.5504 187.75 21.2624 187.942 20.985C187.995 21.145 188.08 21.3264 188.198 21.529C188.326 21.7317 188.459 21.929 188.598 22.121C188.747 22.313 188.88 22.4677 188.998 22.585C188.71 23.0117 188.379 23.4064 188.006 23.769C187.643 24.1317 187.275 24.4197 186.902 24.633ZM192.95 21.641C192.843 21.3317 192.678 20.9477 192.454 20.489C192.23 20.0304 191.974 19.5557 191.686 19.065C191.398 18.5637 191.11 18.105 190.822 17.689C190.534 17.2624 190.267 16.9317 190.022 16.697L191.558 15.721C191.824 15.9877 192.118 16.345 192.438 16.793C192.768 17.241 193.088 17.721 193.398 18.233C193.718 18.7344 194 19.225 194.246 19.705C194.491 20.1744 194.667 20.5744 194.774 20.905C194.443 20.969 194.107 21.0704 193.766 21.209C193.435 21.3477 193.163 21.4917 192.95 21.641ZM206.326 27.465C206.315 27.2944 206.288 27.0917 206.246 26.857C206.214 26.6224 206.176 26.393 206.134 26.169C206.091 25.945 206.038 25.7637 205.974 25.625H207.238C207.451 25.625 207.595 25.593 207.67 25.529C207.744 25.4544 207.782 25.3157 207.782 25.113V22.233H204.342C204.544 22.4037 204.774 22.6277 205.03 22.905C205.296 23.1717 205.547 23.4437 205.782 23.721C206.027 23.9984 206.214 24.2437 206.342 24.457C206.235 24.5317 206.08 24.649 205.878 24.809C205.675 24.9584 205.478 25.113 205.286 25.273C205.094 25.433 204.955 25.561 204.87 25.657C204.742 25.4224 204.555 25.1557 204.31 24.857C204.075 24.5584 203.83 24.265 203.574 23.977C203.318 23.689 203.083 23.4544 202.87 23.273L204.166 22.233H203.11V20.569H207.782V19.289H202.742V17.673H206.006V16.249H203.27V14.697H206.006V12.841H207.862V14.697H210.726V16.249H207.862V17.673H211.606V19.289H209.59V20.569H211.51V22.233H209.59V25.833C209.59 26.3984 209.424 26.809 209.094 27.065C208.774 27.3317 208.283 27.465 207.622 27.465H206.326ZM199.59 27.417V22.857C199.099 23.0384 198.64 23.2037 198.214 23.353C197.798 23.5024 197.472 23.609 197.238 23.673L196.806 21.721C197.104 21.657 197.504 21.5504 198.006 21.401C198.507 21.241 199.035 21.0704 199.59 20.889V17.657H198.646C198.571 18.0517 198.491 18.425 198.406 18.777C198.32 19.1184 198.235 19.4117 198.15 19.657C198.032 19.6144 197.867 19.577 197.654 19.545C197.451 19.5024 197.243 19.465 197.03 19.433C196.816 19.3904 196.63 19.369 196.47 19.369C196.64 18.921 196.79 18.409 196.918 17.833C197.056 17.2464 197.168 16.649 197.254 16.041C197.339 15.433 197.387 14.8677 197.398 14.345L199.046 14.505C199.035 14.697 199.019 14.921 198.998 15.177C198.976 15.433 198.95 15.6997 198.918 15.977H199.59V12.841H201.382V15.977H202.79V17.657H201.382V20.281C202.011 20.0677 202.486 19.8917 202.806 19.753V21.529C202.475 21.689 202 21.897 201.382 22.153V27.417H199.59ZM213.014 23.593V21.929H214.406V14.857H217.734V12.889H219.526V14.857H220.998V12.889H222.79V14.857H226.134V21.929H227.494V23.593H213.014ZM214.246 27.641C214.16 27.3957 214.022 27.113 213.83 26.793C213.648 26.473 213.467 26.217 213.286 26.025C213.83 25.8757 214.4 25.6784 214.998 25.433C215.606 25.177 216.176 24.8997 216.71 24.601C217.243 24.2917 217.68 23.9824 218.022 23.673L219.222 24.953C218.816 25.305 218.336 25.657 217.782 26.009C217.227 26.3504 216.64 26.6597 216.022 26.937C215.414 27.225 214.822 27.4597 214.246 27.641ZM226.246 27.641C225.67 27.4597 225.072 27.225 224.454 26.937C223.846 26.6597 223.264 26.3504 222.71 26.009C222.155 25.657 221.675 25.305 221.27 24.953L222.47 23.673C222.811 23.9824 223.248 24.2917 223.782 24.601C224.315 24.8997 224.88 25.177 225.478 25.433C226.086 25.6784 226.662 25.8757 227.206 26.025C227.035 26.217 226.854 26.473 226.662 26.793C226.47 27.113 226.331 27.3957 226.246 27.641ZM216.23 21.929H217.734V20.025H216.23V21.929ZM222.79 21.929H224.294V20.025H222.79V21.929ZM219.526 21.929H220.998V20.025H219.526V21.929ZM216.23 18.393H217.734V16.537H216.23V18.393ZM222.79 18.393H224.294V16.537H222.79V18.393ZM219.526 18.393H220.998V16.537H219.526V18.393Z" fill="#C5385F"/>
</g>
<defs>
<filter id="filter0_d_34_1465" x="10" y="0" width="259" height="52" filterUnits="userSpaceOnUse" color-interpolation-filters="sRGB">
<feFlood flood-opacity="0" result="BackgroundImageFix"/>
<feColorMatrix in="SourceAlpha" type="matrix" values="0 0 0 0 0 0 0 0 0 0 0 0 0 0 0 0 0 0 127 0" result="hardAlpha"/>
<feOffset dx="2" dy="3"/>
<feComposite in2="hardAlpha" operator="out"/>
<feColorMatrix type="matrix" values="0 0 0 0 0.772549 0 0 0 0 0.219608 0 0 0 0 0.372549 0 0 0 1 0"/>
<feBlend mode="normal" in2="BackgroundImageFix" result="effect1_dropShadow_34_1465"/>
<feBlend mode="normal" in="SourceGraphic" in2="effect1_dropShadow_34_1465" result="shape"/>
</filter>
</defs>
</svg>
